<svg version="1.1" xmlns="http://www.w3.org/2000/svg" xmlns:xlink="http://www.w3.org/1999/xlink" width="1035" height="1473"><desc>title%20PDF%0A%0Aactor%20Aluno%0Aactor%20Professor%0A%0Aparticipant%20PDFController%0Aparticipant%20PDFService%0Aparticipant%20CupomRepository%0Aparticipant%20TransacaoRepository%0A%0Agroup%20GerarExtratoAluno%0A%0AAluno%20-%3E%20PDFController%3A%201%3A%20gerarExtrato()%0A%0Aactivate%20PDFController%0APDFController%20-%3E%20PDFService%3A%202%3A%20geraPdfExtrato%0Adeactivate%20PDFController%0A%0Aactivate%20PDFService%0APDFService%20-%3E%20CupomRepository%3A%203%3A%20retornaCuponsAluno()%0A%0Aactivate%20CupomRepository%0ACupomRepository%20--%3E%20PDFService%3A%20returnList%0Adeactivate%20CupomRepository%0A%0A%0APDFService%20-%3ETransacaoRepository%3A%204%3A%20getTransacoesByAlunoId()%0A%0Aactivate%20TransacaoRepository%0ATransacaoRepository%20--%3EPDFService%3A%20returnList%0Adeactivate%20TransacaoRepository%0A%0Aloop%0APDFService%20-%3EPDFService%3A%205%3A%20escreveCupom()%0Aactivate%20PDFService%0Anote%20over%20PDFService%3A%20i%20%3D0%20%3B%20i%20%3C%20listCupons.size()%20%3B%20i%20%2B%20%2B%0Adeactivate%20PDFService%0Aend%0A%0Aloop%20%0APDFService%20-%3EPDFService%3A%206%3A%20escreveTransacao()%0Aactivate%20PDFService%0Anote%20over%20PDFService%3A%20i%20%3D0%20%3B%20i%20%3C%20listTransacoes.size()%20%3B%20i%20%2B%20%2B%0Adeactivate%20PDFService%0Aend%0APDFService%20--%3EPDFController%3A%20returnResponseEntity%0Adeactivate%20PDFService%0A%0Aend%0A%0Agroup%20GerarExtratoProfessor%0A%0AAluno%20-%3E%20PDFController%3A%201%3A%20gerarExtratoProfessor()%0A%0Aactivate%20PDFController%0APDFController%20-%3E%20PDFService%3A%202%3A%20geraPdfExtratoProfessor%0Adeactivate%20PDFController%0A%0Aactivate%20PDFService%0A%0APDFService%20-%3ETransacaoRepository%3A%203%3A%20getTransacoesByProfessorId()%0A%0Aactivate%20TransacaoRepository%0ATransacaoRepository%20--%3EPDFService%3A%20returnList%0Adeactivate%20TransacaoRepository%0A%0A%0Aloop%20%0APDFService%20-%3EPDFService%3A%204%3A%20escreveTransacao()%0Aactivate%20PDFService%0Anote%20over%20PDFService%3A%20i%20%3D0%20%3B%20i%20%3C%20listTransacoes.size()%20%3B%20i%20%2B%20%2B%0Adeactivate%20PDFService%0Aend%0APDFService%20--%3EPDFController%3A%20returnResponseEntity%0Adeactivate%20PDFService%0A%0Aend</desc><defs/><g><g/><g/><g/><g/><g/><g/><g/><g/><g/><g/><g/><g/><g/><g/><g/><g/><g/><g/><g><rect fill="white" stroke="none" x="0" y="0" width="1035" height="1473"/></g><g><text fill="black" stroke="none" font-family="sans-serif" font-size="16.5pt" font-style="normal" font-weight="normal" text-decoration="normal" x="495.57310760239056" y="24.50280495" text-anchor="start" dominant-baseline="alphabetic" xml:space="preserve">PDF</text></g><g/><g><path fill="none" stroke="black" paint-order="fill stroke markers" d=" M 73.50841485 128.80307802049998 L 73.50841485 1473.1903096104995" stroke-miterlimit="10" stroke-width="1.3612669416666667" stroke-dasharray="12.565541,5.445067766666667"/><path fill="none" stroke="black" paint-order="fill stroke markers" d=" M 180.02019989371743 128.80307802049998 L 180.02019989371743 1473.1903096104995" stroke-miterlimit="10" stroke-width="1.3612669416666667" stroke-dasharray="12.565541,5.445067766666667"/><path fill="none" stroke="black" paint-order="fill stroke markers" d=" M 294.69958658743485 128.80307802049998 L 294.69958658743485 1473.1903096104995" stroke-miterlimit="10" stroke-width="1.3612669416666667" stroke-dasharray="12.565541,5.445067766666667"/><path fill="none" stroke="black" paint-order="fill stroke markers" d=" M 531.4170025529947 128.80307802049998 L 531.4170025529947 1473.1903096104995" stroke-miterlimit="10" stroke-width="1.3612669416666667" stroke-dasharray="12.565541,5.445067766666667"/><path fill="none" stroke="black" paint-order="fill stroke markers" d=" M 760.0171385767577 128.80307802049998 L 760.0171385767577 1473.1903096104995" stroke-miterlimit="10" stroke-width="1.3612669416666667" stroke-dasharray="12.565541,5.445067766666667"/><path fill="none" stroke="black" paint-order="fill stroke markers" d=" M 939.8598145196913 128.80307802049998 L 939.8598145196913 1473.1903096104995" stroke-miterlimit="10" stroke-width="1.3612669416666667" stroke-dasharray="12.565541,5.445067766666667"/></g><g><g><path fill="white" stroke="black" paint-order="fill stroke markers" d=" M 82.819480731 59.70516806150002 A 9.311065881 9.311065881 0 1 1 82.81947607546743 59.69585699717086 M 73.50841485 69.01623394250002 L 73.50841485 88.94518196850002 M 61.747068473999995 76.20372339450002 L 85.26976122599999 76.20372339450002 M 73.50841485 88.94518196850002 L 61.747068473999995 107.56731373050002 M 73.50841485 88.94518196850002 L 85.26976122599999 107.56731373050002" stroke-miterlimit="10" stroke-width="2.7769845610000004" stroke-dasharray=""/></g><g><g/><text fill="black" stroke="none" font-family="sans-serif" font-size="11pt" font-style="normal" font-weight="normal" text-decoration="normal" x="54.761108026269525" y="123.90251703050001" text-anchor="start" dominant-baseline="alphabetic" xml:space="preserve">Aluno</text></g><g><path fill="white" stroke="black" paint-order="fill stroke markers" d=" M 189.33126577471742 59.70516806150002 A 9.311065881 9.311065881 0 1 1 189.3312611191849 59.69585699717086 M 180.02019989371743 69.01623394250002 L 180.02019989371743 88.94518196850002 M 168.25885351771743 76.20372339450002 L 191.78154626971744 76.20372339450002 M 180.02019989371743 88.94518196850002 L 168.25885351771743 107.56731373050002 M 180.02019989371743 88.94518196850002 L 191.78154626971744 107.56731373050002" stroke-miterlimit="10" stroke-width="2.7769845610000004" stroke-dasharray=""/></g><g><g/><text fill="black" stroke="none" font-family="sans-serif" font-size="11pt" font-style="normal" font-weight="normal" text-decoration="normal" x="148.6530047643229" y="123.90251703050001" text-anchor="start" dominant-baseline="alphabetic" xml:space="preserve">Professor</text></g><path fill="none" stroke="none"/><g><path fill="white" stroke="black" paint-order="fill stroke markers" d=" M 230.54068745468874 84.69802911050002 L 358.85848572018097 84.69802911050002 L 358.85848572018097 128.8030780205 L 230.54068745468874 128.8030780205 L 230.54068745468874 84.69802911050002 Z" stroke-miterlimit="10" stroke-width="2.613632528" stroke-dasharray=""/></g><g><g/><text fill="black" stroke="none" font-family="sans-serif" font-size="11pt" font-style="normal" font-weight="normal" text-decoration="normal" x="248.26438303518876" y="112.46787472049999" text-anchor="start" dominant-baseline="alphabetic" xml:space="preserve">PDFController</text></g><path fill="none" stroke="none"/><g><path fill="white" stroke="black" paint-order="fill stroke markers" d=" M 474.59167580794394 84.69802911050002 L 588.2423292980455 84.69802911050002 L 588.2423292980455 128.8030780205 L 474.59167580794394 128.8030780205 L 474.59167580794394 84.69802911050002 Z" stroke-miterlimit="10" stroke-width="2.613632528" stroke-dasharray=""/></g><g><g/><text fill="black" stroke="none" font-family="sans-serif" font-size="11pt" font-style="normal" font-weight="normal" text-decoration="normal" x="492.31537138844396" y="112.46787472049999" text-anchor="start" dominant-baseline="alphabetic" xml:space="preserve">PDFService</text></g><path fill="none" stroke="none"/><g><path fill="white" stroke="black" paint-order="fill stroke markers" d=" M 683.6284649689139 84.69802911050002 L 836.4058121846015 84.69802911050002 L 836.4058121846015 128.8030780205 L 683.6284649689139 128.8030780205 L 683.6284649689139 84.69802911050002 Z" stroke-miterlimit="10" stroke-width="2.613632528" stroke-dasharray=""/></g><g><g/><text fill="black" stroke="none" font-family="sans-serif" font-size="11pt" font-style="normal" font-weight="normal" text-decoration="normal" x="701.352160549414" y="112.46787472049999" text-anchor="start" dominant-baseline="alphabetic" xml:space="preserve">CupomRepository</text></g><path fill="none" stroke="none"/><g><path fill="white" stroke="black" paint-order="fill stroke markers" d=" M 852.7410154846015 84.69802911050002 L 1026.978613554781 84.69802911050002 L 1026.978613554781 128.8030780205 L 852.7410154846015 128.8030780205 L 852.7410154846015 84.69802911050002 Z" stroke-miterlimit="10" stroke-width="2.613632528" stroke-dasharray=""/></g><g><g/><text fill="black" stroke="none" font-family="sans-serif" font-size="11pt" font-style="normal" font-weight="normal" text-decoration="normal" x="870.4647110651015" y="112.46787472049999" text-anchor="start" dominant-baseline="alphabetic" xml:space="preserve">TransacaoRepository</text></g></g><g><path fill="white" stroke="black" paint-order="fill stroke markers" d=" M 286.53198493743486 226.81429782049997 L 302.86718823743485 226.81429782049997 L 302.86718823743485 272.5528670605 L 286.53198493743486 272.5528670605 L 286.53198493743486 226.81429782049997" stroke-miterlimit="10" stroke-width="1.3612669416666667" stroke-dasharray=""/><path fill="white" stroke="black" paint-order="fill stroke markers" d=" M 523.2494009029947 272.5528670605 L 539.5846042029948 272.5528670605 L 539.5846042029948 896.5576331204998 L 523.2494009029947 896.5576331204998 L 523.2494009029947 272.5528670605" stroke-miterlimit="10" stroke-width="1.3612669416666667" stroke-dasharray=""/><path fill="white" stroke="black" paint-order="fill stroke markers" d=" M 751.8495369267577 318.2914363005 L 768.1847402267578 318.2914363005 L 768.1847402267578 364.0300055405 L 751.8495369267577 364.0300055405 L 751.8495369267577 318.2914363005" stroke-miterlimit="10" stroke-width="1.3612669416666667" stroke-dasharray=""/><path fill="white" stroke="black" paint-order="fill stroke markers" d=" M 931.6922128696913 409.7685747805 L 948.0274161696914 409.7685747805 L 948.0274161696914 455.5071440205 L 931.6922128696913 455.5071440205 L 931.6922128696913 409.7685747805" stroke-miterlimit="10" stroke-width="1.3612669416666667" stroke-dasharray=""/><path fill="white" stroke="black" paint-order="fill stroke markers" d=" M 531.4170025529947 566.5865264605 L 547.7522058529948 566.5865264605 L 547.7522058529948 628.6602990004999 L 531.4170025529947 628.6602990004999 L 531.4170025529947 566.5865264605" stroke-miterlimit="10" stroke-width="1.3612669416666667" stroke-dasharray=""/><path fill="white" stroke="black" paint-order="fill stroke markers" d=" M 531.4170025529947 764.2424863904998 L 547.7522058529948 764.2424863904998 L 547.7522058529948 826.3162589304998 L 531.4170025529947 826.3162589304998 L 531.4170025529947 764.2424863904998" stroke-miterlimit="10" stroke-width="1.3612669416666667" stroke-dasharray=""/><path fill="white" stroke="black" paint-order="fill stroke markers" d=" M 286.53198493743486 1010.9040562204997 L 302.86718823743485 1010.9040562204997 L 302.86718823743485 1056.6426254604996 L 286.53198493743486 1056.6426254604996 L 286.53198493743486 1010.9040562204997" stroke-miterlimit="10" stroke-width="1.3612669416666667" stroke-dasharray=""/><path fill="white" stroke="black" paint-order="fill stroke markers" d=" M 523.2494009029947 1056.6426254604996 L 539.5846042029948 1056.6426254604996 L 539.5846042029948 1391.5142931104997 L 523.2494009029947 1391.5142931104997 L 523.2494009029947 1056.6426254604996" stroke-miterlimit="10" stroke-width="1.3612669416666667" stroke-dasharray=""/><path fill="white" stroke="black" paint-order="fill stroke markers" d=" M 931.6922128696913 1102.3811947004997 L 948.0274161696914 1102.3811947004997 L 948.0274161696914 1148.1197639404998 L 931.6922128696913 1148.1197639404998 L 931.6922128696913 1102.3811947004997" stroke-miterlimit="10" stroke-width="1.3612669416666667" stroke-dasharray=""/><path fill="white" stroke="black" paint-order="fill stroke markers" d=" M 531.4170025529947 1259.1991463804998 L 547.7522058529948 1259.1991463804998 L 547.7522058529948 1321.2729189204997 L 531.4170025529947 1321.2729189204997 L 531.4170025529947 1259.1991463804998" stroke-miterlimit="10" stroke-width="1.3612669416666667" stroke-dasharray=""/><g><g><rect fill="white" stroke="none" x="124.20560055106115" y="205.57853353049998" width="111.6291986853125" height="21.23576429"/></g><text fill="black" stroke="none" font-family="sans-serif" font-size="11pt" font-style="normal" font-weight="normal" text-decoration="normal" x="126.65588104606115" y="220.28021650049996" text-anchor="start" dominant-baseline="alphabetic" xml:space="preserve">1: gerarExtrato()</text></g><g><path fill="none" stroke="black" paint-order="fill stroke markers" d=" M 73.50841485 226.81429782049997 L 273.0826675537682 226.81429782049997" stroke-miterlimit="10" stroke-width="1.3612669416666667" stroke-dasharray=""/><g transform="translate(286.53198493743486,226.81429782049997) translate(-286.53198493743486,-226.81429782049997)"><path fill="black" stroke="none" paint-order="stroke fill markers" d=" M 272.9193155207682 220.00796311216664 L 286.53198493743486 226.81429782049997 L 272.9193155207682 233.6206325288333 Z"/></g></g><g><g><rect fill="white" stroke="none" x="353.56437393849603" y="251.3171027705" width="118.9878412634375" height="21.23576429"/></g><text fill="black" stroke="none" font-family="sans-serif" font-size="11pt" font-style="normal" font-weight="normal" text-decoration="normal" x="356.01465443349605" y="266.0187857405" text-anchor="start" dominant-baseline="alphabetic" xml:space="preserve">2: geraPdfExtrato</text></g><g><path fill="none" stroke="black" paint-order="fill stroke markers" d=" M 302.86718823743485 272.5528670605 L 509.80008351932804 272.5528670605" stroke-miterlimit="10" stroke-width="1.3612669416666667" stroke-dasharray=""/><g transform="translate(523.2494009029947,272.5528670605) translate(-523.2494009029947,-272.5528670605)"><path fill="black" stroke="none" paint-order="stroke fill markers" d=" M 509.636731486328 265.74653235216664 L 523.2494009029947 272.5528670605 L 509.636731486328 279.3592017688333 Z"/></g></g><g><g><rect fill="white" stroke="none" x="562.9983955996613" y="297.05567201049996" width="165.4373499304297" height="21.23576429"/></g><text fill="black" stroke="none" font-family="sans-serif" font-size="11pt" font-style="normal" font-weight="normal" text-decoration="normal" x="565.4486760946613" y="311.75735498049994" text-anchor="start" dominant-baseline="alphabetic" xml:space="preserve">3: retornaCuponsAluno()</text></g><g><path fill="none" stroke="black" paint-order="fill stroke markers" d=" M 539.5846042029948 318.2914363005 L 738.400219543091 318.2914363005" stroke-miterlimit="10" stroke-width="1.3612669416666667" stroke-dasharray=""/><g transform="translate(751.8495369267577,318.2914363005) translate(-751.8495369267577,-318.2914363005)"><path fill="black" stroke="none" paint-order="stroke fill markers" d=" M 738.236867510091 311.48510159216664 L 751.8495369267577 318.2914363005 L 738.236867510091 325.0977710088333 Z"/></g></g><g><g><rect fill="white" stroke="none" x="612.7120491641144" y="342.79424125049997" width="66.01004280152344" height="21.23576429"/></g><text fill="black" stroke="none" font-family="sans-serif" font-size="11pt" font-style="normal" font-weight="normal" text-decoration="normal" x="615.1623296591144" y="357.49592422049994" text-anchor="start" dominant-baseline="alphabetic" xml:space="preserve">returnList</text></g><g><path fill="none" stroke="black" paint-order="fill stroke markers" d=" M 751.8495369267577 364.0300055405 L 553.0339215866614 364.0300055405" stroke-miterlimit="10" stroke-width="1.3612669416666667" stroke-dasharray="6.53408132"/><g transform="translate(539.5846042029948,364.0300055405) translate(-539.5846042029948,-364.0300055405)"><path fill="black" stroke="none" paint-order="stroke fill markers" d=" M 553.1972736196615 357.22367083216665 L 539.5846042029948 364.0300055405 L 553.1972736196615 370.8363402488333 Z"/></g></g><g><g><rect fill="white" stroke="none" x="638.5281854143899" y="388.53281049049997" width="194.22044624390625" height="21.23576429"/></g><text fill="black" stroke="none" font-family="sans-serif" font-size="11pt" font-style="normal" font-weight="normal" text-decoration="normal" x="640.9784659093899" y="403.23449346049995" text-anchor="start" dominant-baseline="alphabetic" xml:space="preserve">4: getTransacoesByAlunoId()</text></g><g><path fill="none" stroke="black" paint-order="fill stroke markers" d=" M 539.5846042029948 409.7685747805 L 918.2428954860246 409.7685747805" stroke-miterlimit="10" stroke-width="1.3612669416666667" stroke-dasharray=""/><g transform="translate(931.6922128696913,409.7685747805) translate(-931.6922128696913,-409.7685747805)"><path fill="black" stroke="none" paint-order="stroke fill markers" d=" M 918.0795434530246 402.96224007216665 L 931.6922128696913 409.7685747805 L 918.0795434530246 416.5749094888333 Z"/></g></g><g><g><rect fill="white" stroke="none" x="702.6333871355813" y="434.2713797305" width="66.01004280152344" height="21.23576429"/></g><text fill="black" stroke="none" font-family="sans-serif" font-size="11pt" font-style="normal" font-weight="normal" text-decoration="normal" x="705.0836676305813" y="448.97306270049995" text-anchor="start" dominant-baseline="alphabetic" xml:space="preserve">returnList</text></g><g><path fill="none" stroke="black" paint-order="fill stroke markers" d=" M 931.6922128696913 455.5071440205 L 553.0339215866614 455.5071440205" stroke-miterlimit="10" stroke-width="1.3612669416666667" stroke-dasharray="6.53408132"/><g transform="translate(539.5846042029948,455.5071440205) translate(-539.5846042029948,-455.5071440205)"><path fill="black" stroke="none" paint-order="stroke fill markers" d=" M 553.1972736196615 448.70080931216665 L 539.5846042029948 455.5071440205 L 553.1972736196615 462.31347872883333 Z"/></g></g><g><g><rect fill="white" stroke="none" x="567.0821964246614" y="524.1149978804999" width="129.55333198609375" height="21.23576429"/></g><text fill="black" stroke="none" font-family="sans-serif" font-size="11pt" font-style="normal" font-weight="normal" text-decoration="normal" x="569.5324769196615" y="538.8166808504999" text-anchor="start" dominant-baseline="alphabetic" xml:space="preserve">5: escreveCupom()</text></g><g><path fill="none" stroke="black" paint-order="fill stroke markers" d=" M 539.5846042029948 545.3507621704999 L 613.0930190529947 545.3507621704999 L 613.0930190529947 566.5865264605 L 561.2015232366614 566.5865264605" stroke-miterlimit="10" stroke-width="1.3612669416666667" stroke-dasharray=""/><g transform="translate(547.7522058529947,566.5865264605) translate(-547.7522058529947,-566.5865264605)"><path fill="black" stroke="none" paint-order="stroke fill markers" d=" M 561.3648752696614 559.7801917521666 L 547.7522058529947 566.5865264605 L 561.3648752696614 573.3928611688333 Z"/></g></g><path fill="white" stroke="black" paint-order="fill stroke markers" d=" M 405.8849142830924 591.0893314104999 L 642.2474078528971 591.0893314104999 L 656.9490908228971 605.7910143804999 L 656.9490908228971 628.6602990004999 L 405.8849142830924 628.6602990004999 L 405.8849142830924 591.0893314104999 M 642.2474078528971 591.0893314104999 L 642.2474078528971 605.7910143804999 L 656.9490908228971 605.7910143804999" stroke-miterlimit="10" stroke-width="1.3612669416666667" stroke-dasharray=""/><g><text fill="black" stroke="none" font-family="sans-serif" font-size="11pt" font-style="normal" font-weight="normal" text-decoration="normal" x="428.7541989030924" y="613.9586160304999" text-anchor="start" dominant-baseline="alphabetic" xml:space="preserve">i =0 ; i &lt; listCupons.size() ; i + +</text></g><g><g><rect fill="white" stroke="none" x="567.0821964246614" y="721.7709578104998" width="151.01358284058594" height="21.23576429"/></g><text fill="black" stroke="none" font-family="sans-serif" font-size="11pt" font-style="normal" font-weight="normal" text-decoration="normal" x="569.5324769196615" y="736.4726407804998" text-anchor="start" dominant-baseline="alphabetic" xml:space="preserve">6: escreveTransacao()</text></g><g><path fill="none" stroke="black" paint-order="fill stroke markers" d=" M 539.5846042029948 743.0067221004998 L 613.0930190529947 743.0067221004998 L 613.0930190529947 764.2424863904998 L 561.2015232366614 764.2424863904998" stroke-miterlimit="10" stroke-width="1.3612669416666667" stroke-dasharray=""/><g transform="translate(547.7522058529947,764.2424863904998) translate(-547.7522058529947,-764.2424863904998)"><path fill="black" stroke="none" paint-order="stroke fill markers" d=" M 561.3648752696614 757.4361516821665 L 547.7522058529947 764.2424863904998 L 561.3648752696614 771.0488210988332 Z"/></g></g><path fill="white" stroke="black" paint-order="fill stroke markers" d=" M 393.1254385750846 788.7452913404998 L 655.006883560905 788.7452913404998 L 669.7085665309049 803.4469743104997 L 669.7085665309049 826.3162589304998 L 393.1254385750846 826.3162589304998 L 393.1254385750846 788.7452913404998 M 655.006883560905 788.7452913404998 L 655.006883560905 803.4469743104997 L 669.7085665309049 803.4469743104997" stroke-miterlimit="10" stroke-width="1.3612669416666667" stroke-dasharray=""/><g><text fill="black" stroke="none" font-family="sans-serif" font-size="11pt" font-style="normal" font-weight="normal" text-decoration="normal" x="415.9947231950846" y="811.6145759604998" text-anchor="start" dominant-baseline="alphabetic" xml:space="preserve">i =0 ; i &lt; listTransacoes.size() ; i + +</text></g><g><g><rect fill="white" stroke="none" x="336.03748839669913" y="875.3218688304997" width="145.87401069703125" height="21.23576429"/></g><text fill="black" stroke="none" font-family="sans-serif" font-size="11pt" font-style="normal" font-weight="normal" text-decoration="normal" x="338.48776889169915" y="890.0235518004997" text-anchor="start" dominant-baseline="alphabetic" xml:space="preserve">returnResponseEntity</text></g><g><path fill="none" stroke="black" paint-order="fill stroke markers" d=" M 523.2494009029947 896.5576331204998 L 308.1489039711015 896.5576331204998" stroke-miterlimit="10" stroke-width="1.3612669416666667" stroke-dasharray="6.53408132"/><g transform="translate(294.69958658743485,896.5576331204998) translate(-294.69958658743485,-896.5576331204998)"><path fill="black" stroke="none" paint-order="stroke fill markers" d=" M 308.3122560041015 889.7512984121664 L 294.69958658743485 896.5576331204998 L 308.3122560041015 903.3639678288331 Z"/></g></g><g><g><rect fill="white" stroke="none" x="92.83840542166662" y="989.6682919304997" width="174.36358894410156" height="21.23576429"/></g><text fill="black" stroke="none" font-family="sans-serif" font-size="11pt" font-style="normal" font-weight="normal" text-decoration="normal" x="95.28868591666662" y="1004.3699749004996" text-anchor="start" dominant-baseline="alphabetic" xml:space="preserve">1: gerarExtratoProfessor()</text></g><g><path fill="none" stroke="black" paint-order="fill stroke markers" d=" M 73.50841485 1010.9040562204997 L 273.0826675537682 1010.9040562204997" stroke-miterlimit="10" stroke-width="1.3612669416666667" stroke-dasharray=""/><g transform="translate(286.53198493743486,1010.9040562204997) translate(-286.53198493743486,-1010.9040562204997)"><path fill="black" stroke="none" paint-order="stroke fill markers" d=" M 272.9193155207682 1004.0977215121663 L 286.53198493743486 1010.9040562204997 L 272.9193155207682 1017.710390928833 Z"/></g></g><g><g><rect fill="white" stroke="none" x="322.1971788091015" y="1035.4068611704997" width="181.72223152222656" height="21.23576429"/></g><text fill="black" stroke="none" font-family="sans-serif" font-size="11pt" font-style="normal" font-weight="normal" text-decoration="normal" x="324.6474593041015" y="1050.1085441404998" text-anchor="start" dominant-baseline="alphabetic" xml:space="preserve">2: geraPdfExtratoProfessor</text></g><g><path fill="none" stroke="black" paint-order="fill stroke markers" d=" M 302.86718823743485 1056.6426254604996 L 509.80008351932804 1056.6426254604996" stroke-miterlimit="10" stroke-width="1.3612669416666667" stroke-dasharray=""/><g transform="translate(523.2494009029947,1056.6426254604996) translate(-523.2494009029947,-1056.6426254604996)"><path fill="black" stroke="none" paint-order="stroke fill markers" d=" M 509.636731486328 1049.8362907521664 L 523.2494009029947 1056.6426254604996 L 509.636731486328 1063.4489601688329 Z"/></g></g><g><g><rect fill="white" stroke="none" x="625.9082971087258" y="1081.1454304104998" width="219.46022285523438" height="21.23576429"/></g><text fill="black" stroke="none" font-family="sans-serif" font-size="11pt" font-style="normal" font-weight="normal" text-decoration="normal" x="628.3585776037258" y="1095.8471133804999" text-anchor="start" dominant-baseline="alphabetic" xml:space="preserve">3: getTransacoesByProfessorId()</text></g><g><path fill="none" stroke="black" paint-order="fill stroke markers" d=" M 539.5846042029948 1102.3811947004997 L 918.2428954860246 1102.3811947004997" stroke-miterlimit="10" stroke-width="1.3612669416666667" stroke-dasharray=""/><g transform="translate(931.6922128696913,1102.3811947004997) translate(-931.6922128696913,-1102.3811947004997)"><path fill="black" stroke="none" paint-order="stroke fill markers" d=" M 918.0795434530246 1095.5748599921665 L 931.6922128696913 1102.3811947004997 L 918.0795434530246 1109.187529408833 Z"/></g></g><g><g><rect fill="white" stroke="none" x="702.6333871355813" y="1126.8839996504998" width="66.01004280152344" height="21.23576429"/></g><text fill="black" stroke="none" font-family="sans-serif" font-size="11pt" font-style="normal" font-weight="normal" text-decoration="normal" x="705.0836676305813" y="1141.5856826205" text-anchor="start" dominant-baseline="alphabetic" xml:space="preserve">returnList</text></g><g><path fill="none" stroke="black" paint-order="fill stroke markers" d=" M 931.6922128696913 1148.1197639404998 L 553.0339215866614 1148.1197639404998" stroke-miterlimit="10" stroke-width="1.3612669416666667" stroke-dasharray="6.53408132"/><g transform="translate(539.5846042029948,1148.1197639404998) translate(-539.5846042029948,-1148.1197639404998)"><path fill="black" stroke="none" paint-order="stroke fill markers" d=" M 553.1972736196615 1141.3134292321665 L 539.5846042029948 1148.1197639404998 L 553.1972736196615 1154.926098648833 Z"/></g></g><g><g><rect fill="white" stroke="none" x="567.0821964246614" y="1216.7276178004997" width="151.01358284058594" height="21.23576429"/></g><text fill="black" stroke="none" font-family="sans-serif" font-size="11pt" font-style="normal" font-weight="normal" text-decoration="normal" x="569.5324769196615" y="1231.4293007704998" text-anchor="start" dominant-baseline="alphabetic" xml:space="preserve">4: escreveTransacao()</text></g><g><path fill="none" stroke="black" paint-order="fill stroke markers" d=" M 539.5846042029948 1237.9633820904999 L 613.0930190529947 1237.9633820904999 L 613.0930190529947 1259.1991463804998 L 561.2015232366614 1259.1991463804998" stroke-miterlimit="10" stroke-width="1.3612669416666667" stroke-dasharray=""/><g transform="translate(547.7522058529947,1259.1991463804998) translate(-547.7522058529947,-1259.1991463804998)"><path fill="black" stroke="none" paint-order="stroke fill markers" d=" M 561.3648752696614 1252.3928116721665 L 547.7522058529947 1259.1991463804998 L 561.3648752696614 1266.005481088833 Z"/></g></g><path fill="white" stroke="black" paint-order="fill stroke markers" d=" M 393.1254385750846 1283.7019513304997 L 655.006883560905 1283.7019513304997 L 669.7085665309049 1298.4036343004998 L 669.7085665309049 1321.2729189204997 L 393.1254385750846 1321.2729189204997 L 393.1254385750846 1283.7019513304997 M 655.006883560905 1283.7019513304997 L 655.006883560905 1298.4036343004998 L 669.7085665309049 1298.4036343004998" stroke-miterlimit="10" stroke-width="1.3612669416666667" stroke-dasharray=""/><g><text fill="black" stroke="none" font-family="sans-serif" font-size="11pt" font-style="normal" font-weight="normal" text-decoration="normal" x="415.9947231950846" y="1306.5712359504998" text-anchor="start" dominant-baseline="alphabetic" xml:space="preserve">i =0 ; i &lt; listTransacoes.size() ; i + +</text></g><g><g><rect fill="white" stroke="none" x="336.03748839669913" y="1370.2785288204998" width="145.87401069703125" height="21.23576429"/></g><text fill="black" stroke="none" font-family="sans-serif" font-size="11pt" font-style="normal" font-weight="normal" text-decoration="normal" x="338.48776889169915" y="1384.9802117904999" text-anchor="start" dominant-baseline="alphabetic" xml:space="preserve">returnResponseEntity</text></g><g><path fill="none" stroke="black" paint-order="fill stroke markers" d=" M 523.2494009029947 1391.5142931104997 L 308.1489039711015 1391.5142931104997" stroke-miterlimit="10" stroke-width="1.3612669416666667" stroke-dasharray="6.53408132"/><g transform="translate(294.69958658743485,1391.5142931104997) translate(-294.69958658743485,-1391.5142931104997)"><path fill="black" stroke="none" paint-order="stroke fill markers" d=" M 308.3122560041015 1384.7079584021665 L 294.69958658743485 1391.5142931104997 L 308.3122560041015 1398.320627818833 Z"/></g></g><g><g/><path fill="none" stroke="black" paint-order="fill stroke markers" d=" M 16.335203299999996 161.47348462049996 L 997.0330260696913 161.47348462049996 L 997.0330260696913 921.0604380704997 L 16.335203299999996 921.0604380704997 L 16.335203299999996 161.47348462049996 Z" stroke-miterlimit="10" stroke-width="2.3336004714285714" stroke-dasharray=""/><path fill="white" stroke="black" paint-order="fill stroke markers" d=" M 16.335203299999996 161.47348462049996 L 16.335203299999996 181.07572858049997 L 153.94545975351562 181.07572858049997 L 163.74658173351563 171.27460660049996 L 163.74658173351563 161.47348462049996 L 16.335203299999996 161.47348462049996" stroke-miterlimit="10" stroke-width="2.3336004714285714" stroke-dasharray=""/><text fill="black" stroke="none" font-family="sans-serif" font-size="8.8pt" font-style="normal" font-weight="bold" text-decoration="normal" x="32.67040659999999" y="174.54164726049996" text-anchor="start" dominant-baseline="alphabetic" xml:space="preserve">GerarExtratoAluno</text></g><g><g/><path fill="none" stroke="black" paint-order="fill stroke markers" d=" M 397.71731263309243 480.0099489705 L 702.3528495657552 480.0099489705 L 702.3528495657552 653.1631039504999 L 397.71731263309243 653.1631039504999 L 397.71731263309243 480.0099489705 Z" stroke-miterlimit="10" stroke-width="2.3336004714285714" stroke-dasharray=""/><path fill="white" stroke="black" paint-order="fill stroke markers" d=" M 397.71731263309243 480.0099489705 L 397.71731263309243 499.6121929305 L 455.1421137643424 499.6121929305 L 464.9432357443424 489.8110709505 L 464.9432357443424 480.0099489705 L 397.71731263309243 480.0099489705" stroke-miterlimit="10" stroke-width="2.3336004714285714" stroke-dasharray=""/><text fill="black" stroke="none" font-family="sans-serif" font-size="8.8pt" font-style="normal" font-weight="bold" text-decoration="normal" x="414.0525159330924" y="493.0781116105" text-anchor="start" dominant-baseline="alphabetic" xml:space="preserve">loop</text></g><g><g/><path fill="none" stroke="black" paint-order="fill stroke markers" d=" M 384.9578369250846 677.6659089004999 L 723.8131004202473 677.6659089004999 L 723.8131004202473 850.8190638804998 L 384.9578369250846 850.8190638804998 L 384.9578369250846 677.6659089004999 Z" stroke-miterlimit="10" stroke-width="2.3336004714285714" stroke-dasharray=""/><path fill="white" stroke="black" paint-order="fill stroke markers" d=" M 384.9578369250846 677.6659089004999 L 384.9578369250846 697.2681528604999 L 442.3826380563346 697.2681528604999 L 452.1837600363346 687.4670308804998 L 452.1837600363346 677.6659089004999 L 384.9578369250846 677.6659089004999" stroke-miterlimit="10" stroke-width="2.3336004714285714" stroke-dasharray=""/><text fill="black" stroke="none" font-family="sans-serif" font-size="8.8pt" font-style="normal" font-weight="bold" text-decoration="normal" x="401.2930402250846" y="690.7340715404998" text-anchor="start" dominant-baseline="alphabetic" xml:space="preserve">loop</text></g><g><g/><path fill="none" stroke="black" paint-order="fill stroke markers" d=" M 16.335203299999996 945.5632430204997 L 997.0330260696913 945.5632430204997 L 997.0330260696913 1416.0170980604996 L 16.335203299999996 1416.0170980604996 L 16.335203299999996 945.5632430204997 Z" stroke-miterlimit="10" stroke-width="2.3336004714285714" stroke-dasharray=""/><path fill="white" stroke="black" paint-order="fill stroke markers" d=" M 16.335203299999996 945.5632430204997 L 16.335203299999996 965.1654869804997 L 175.48098221445312 965.1654869804997 L 185.28210419445313 955.3643650004997 L 185.28210419445313 945.5632430204997 L 16.335203299999996 945.5632430204997" stroke-miterlimit="10" stroke-width="2.3336004714285714" stroke-dasharray=""/><text fill="black" stroke="none" font-family="sans-serif" font-size="8.8pt" font-style="normal" font-weight="bold" text-decoration="normal" x="32.67040659999999" y="958.6314056604997" text-anchor="start" dominant-baseline="alphabetic" xml:space="preserve">GerarExtratoProfessor</text></g><g><g/><path fill="none" stroke="black" paint-order="fill stroke markers" d=" M 384.9578369250846 1172.6225688905 L 723.8131004202473 1172.6225688905 L 723.8131004202473 1345.7757238704996 L 384.9578369250846 1345.7757238704996 L 384.9578369250846 1172.6225688905 Z" stroke-miterlimit="10" stroke-width="2.3336004714285714" stroke-dasharray=""/><path fill="white" stroke="black" paint-order="fill stroke markers" d=" M 384.9578369250846 1172.6225688905 L 384.9578369250846 1192.2248128504998 L 442.3826380563346 1192.2248128504998 L 452.1837600363346 1182.4236908705 L 452.1837600363346 1172.6225688905 L 384.9578369250846 1172.6225688905" stroke-miterlimit="10" stroke-width="2.3336004714285714" stroke-dasharray=""/><text fill="black" stroke="none" font-family="sans-serif" font-size="8.8pt" font-style="normal" font-weight="bold" text-decoration="normal" x="401.2930402250846" y="1185.6907315304998" text-anchor="start" dominant-baseline="alphabetic" xml:space="preserve">loop</text></g></g><g/><g/><g/><g/><g/><g/></g></svg>