<svg version="1.1" xmlns="http://www.w3.org/2000/svg" xmlns:xlink="http://www.w3.org/1999/xlink" width="890" height="743"><desc>title%20ADD-Usuario%0A%0Aactor%20Usuario%0Aparticipant%20Controller%0Aparticipant%20Service%0Aparticipant%20ServiceGeral%0Aparticipant%20Repository%0Adatabase%20BD%0A%0Aactivate%20Usuario%0AUsuario%20-%3E%20Controller%3A%201%3AinsereUsuario()%0Adeactivate%20Usuario%0A%0Aactivate%20Controller%0AController%20-%3E%20Service%3A%202%3AfabricaUsuario()%0AService%20--%3EController%3A%20returnUsuario%0AController%20-%3EService%3A%203%3AinsereUsuario()%0Adeactivate%20Controller%0A%0Aactivate%20Service%0AService%20-%3E%20ServiceGeral%3A%204%3AinsereObjeto()%0Adeactivate%20Service%0A%0Aactivate%20ServiceGeral%0AServiceGeral%20-%3E%20Repository%3A%205%3Asave()%0Adeactivate%20ServiceGeral%0A%0Aactivate%20Repository%0ARepository%20-%3EBD%3A6%3AexecuteQuery()%0Adeactivate%20Repository%0A%0Aactivate%20BD%0ABD%20--%3ERepository%3A%0Adeactivate%20BD%0A%0ARepository%20--%3E%20ServiceGeral%3A%0AServiceGeral%20--%3EService%3A%20%0AService%20--%3EController%3A%0AController--%3EUsuario%3A%20sucess%20or%20error%0A%0A%0A</desc><defs/><g><g/><g/><g/><g/><g/><g/><g/><g/><g/><g/><g/><g/><g><rect fill="white" stroke="none" x="0" y="0" width="890" height="743"/></g><g><text fill="black" stroke="none" font-family="sans-serif" font-size="16.5pt" font-style="normal" font-weight="normal" text-decoration="normal" x="380.37783471586783" y="24.50280495" text-anchor="start" dominant-baseline="alphabetic" xml:space="preserve">ADD-Usuario</text></g><g/><g><path fill="none" stroke="black" paint-order="fill stroke markers" d=" M 33.42528445029297 128.884754037 L 33.42528445029297 743.0883981169999" stroke-miterlimit="10" stroke-width="1.3612669416666667" stroke-dasharray="12.565541,5.445067766666667"/><path fill="none" stroke="black" paint-order="fill stroke markers" d=" M 205.75474570393877 128.884754037 L 205.75474570393877 743.0883981169999" stroke-miterlimit="10" stroke-width="1.3612669416666667" stroke-dasharray="12.565541,5.445067766666667"/><path fill="none" stroke="black" paint-order="fill stroke markers" d=" M 382.15722026324863 128.884754037 L 382.15722026324863 743.0883981169999" stroke-miterlimit="10" stroke-width="1.3612669416666667" stroke-dasharray="12.565541,5.445067766666667"/><path fill="none" stroke="black" paint-order="fill stroke markers" d=" M 547.1638665754882 128.884754037 L 547.1638665754882 743.0883981169999" stroke-miterlimit="10" stroke-width="1.3612669416666667" stroke-dasharray="12.565541,5.445067766666667"/><path fill="none" stroke="black" paint-order="fill stroke markers" d=" M 676.3479960706679 128.884754037 L 676.3479960706679 743.0883981169999" stroke-miterlimit="10" stroke-width="1.3612669416666667" stroke-dasharray="12.565541,5.445067766666667"/><path fill="none" stroke="black" paint-order="fill stroke markers" d=" M 849.5006689942356 128.884754037 L 849.5006689942356 743.0883981169999" stroke-miterlimit="10" stroke-width="1.3612669416666667" stroke-dasharray="12.565541,5.445067766666667"/></g><g><g><path fill="white" stroke="black" paint-order="fill stroke markers" d=" M 42.73635033129297 59.786844078 A 9.311065881 9.311065881 0 1 1 42.73634567576042 59.77753301367084 M 33.42528445029297 69.097909959 L 33.42528445029297 89.026857985 M 21.66393807429297 76.285399411 L 45.18663082629297 76.285399411 M 33.42528445029297 89.026857985 L 21.66393807429297 107.648989747 M 33.42528445029297 89.026857985 L 45.18663082629297 107.648989747" stroke-miterlimit="10" stroke-width="2.7769845610000004" stroke-dasharray=""/></g><g><g/><text fill="black" stroke="none" font-family="sans-serif" font-size="11pt" font-style="normal" font-weight="normal" text-decoration="normal" x="8.167601650000002" y="123.98419304699999" text-anchor="start" dominant-baseline="alphabetic" xml:space="preserve">Usuario</text></g><path fill="none" stroke="none"/><g><path fill="white" stroke="black" paint-order="fill stroke markers" d=" M 156.255834974513 84.779705127 L 255.25365643336457 84.779705127 L 255.25365643336457 128.884754037 L 156.255834974513 128.884754037 L 156.255834974513 84.779705127 Z" stroke-miterlimit="10" stroke-width="2.613632528" stroke-dasharray=""/></g><g><g/><text fill="black" stroke="none" font-family="sans-serif" font-size="11pt" font-style="normal" font-weight="normal" text-decoration="normal" x="173.97953055501299" y="112.549550737" text-anchor="start" dominant-baseline="alphabetic" xml:space="preserve">Controller</text></g><path fill="none" stroke="none"/><g><path fill="white" stroke="black" paint-order="fill stroke markers" d=" M 339.99188192151814 84.779705127 L 424.3225586049791 84.779705127 L 424.3225586049791 128.884754037 L 339.99188192151814 128.884754037 L 339.99188192151814 84.779705127 Z" stroke-miterlimit="10" stroke-width="2.613632528" stroke-dasharray=""/></g><g><g/><text fill="black" stroke="none" font-family="sans-serif" font-size="11pt" font-style="normal" font-weight="normal" text-decoration="normal" x="357.71557750201816" y="112.549550737" text-anchor="start" dominant-baseline="alphabetic" xml:space="preserve">Service</text></g><path fill="none" stroke="none"/><g><path fill="white" stroke="black" paint-order="fill stroke markers" d=" M 487.07441019176554 84.779705127 L 607.2533229592109 84.779705127 L 607.2533229592109 128.884754037 L 487.07441019176554 128.884754037 L 487.07441019176554 84.779705127 Z" stroke-miterlimit="10" stroke-width="2.613632528" stroke-dasharray=""/></g><g><g/><text fill="black" stroke="none" font-family="sans-serif" font-size="11pt" font-style="normal" font-weight="normal" text-decoration="normal" x="504.79810577226556" y="112.549550737" text-anchor="start" dominant-baseline="alphabetic" xml:space="preserve">ServiceGeral</text></g><path fill="none" stroke="none"/><g><path fill="white" stroke="black" paint-order="fill stroke markers" d=" M 623.5885262592109 84.779705127 L 729.107465882125 84.779705127 L 729.107465882125 128.884754037 L 623.5885262592109 128.884754037 L 623.5885262592109 84.779705127 Z" stroke-miterlimit="10" stroke-width="2.613632528" stroke-dasharray=""/></g><g><g/><text fill="black" stroke="none" font-family="sans-serif" font-size="11pt" font-style="normal" font-weight="normal" text-decoration="normal" x="641.3122218397109" y="112.549550737" text-anchor="start" dominant-baseline="alphabetic" xml:space="preserve">Repository</text></g><g><path fill="white" stroke="black" paint-order="fill stroke markers" d=" M 825.6512721762357 96.867755569 L 825.6512721762357 62.563828639 L 873.3500658122356 62.563828639 L 873.3500658122356 96.867755569" stroke-miterlimit="10" stroke-width="2.7769845610000004" stroke-dasharray=""/><path fill="white" stroke="black" paint-order="fill stroke markers" d=" M 873.3500658122356 61.3713587981 L 873.3488733523319 61.47916934301662 L 873.3452960918659 61.58696910696859 L 873.3393343885606 61.69474731006935 L 873.3309888385812 61.8024931745884 L 873.320260276476 61.91019592602908 L 873.3071497750922 62.017844794206 L 873.2916586454689 62.125429014322044 L 873.2737884367064 62.232937828044854 L 873.2535409358103 62.34036048458265 L 873.2309181675141 62.44768624175929 L 873.2059223940757 62.55490436708851 L 873.1785561150517 62.66200413884712 L 873.1488220670471 62.76897484714718 L 873.116723223442 62.87580579500701 L 873.0822627940939 62.982486299420856 L 873.0454442250171 63.08900569242717 L 873.0062711980378 63.19535332217542 L 872.964747630426 63.30151855399125 L 872.920877674504 63.40749077143996 L 872.8746657172306 63.5132593773881 L 872.8261163797633 63.618813795063225 L 872.7752345169953 63.724143469111524 L 872.7220252170704 63.82923786665337 L 872.6664938008742 63.93408647833659 L 872.6086458215021 64.03867881938739 L 872.548487063704 64.1430044306588 L 872.4860235433054 64.24705287967667 L 872.4212615066061 64.35081376168277 L 872.3542074297561 64.45427670067541 L 872.2848680181072 64.55743135044686 L 872.2132502055425 64.66026739561813 L 872.1393611537839 64.7627745526704 L 872.0632082516748 64.86494257097338 L 871.984799114442 64.96676123381039 L 871.9041415829339 65.06822035939997 L 871.8212437228365 65.16930980191414 L 871.7361138238666 65.27001945249287 L 871.6487603989432 65.37033924025505 L 871.559192183336 65.47025913330548 L 871.467418133792 65.56976913973813 L 871.3734474276396 65.66885930863528 L 871.277289461871 65.7675197310626 L 871.1789538522029 65.86574054106009 L 871.0784504321141 65.96351191662859 L 870.9757892518629 66.06082408071202 L 870.8709805774819 66.15766730217506 L 870.764034889751 66.25403189677627 L 870.65496288315 66.3499082281365 L 870.5437754647887 66.4452867087025 L 870.4304837533161 66.54015780070569 L 870.3150990778092 66.63451201711595 L 870.1976329766392 66.72833992259025 L 870.0780971963183 66.82163213441623 L 869.956503690325 66.91437932345046 L 869.8328646179086 67.00657221505134 L 869.7071923428732 67.0982015900065 L 869.5794994323418 67.18925828545483 L 869.4497986554987 67.27973319580266 L 869.3181029823138 67.36961727363435 L 869.1844255822446 67.45890153061701 L 869.0487798229196 67.54757703839935 L 868.9111792688018 67.6356349295045 L 868.7716376798319 67.72306639821673 L 868.6301690100526 67.80986270146201 L 868.4867874062128 67.89601515968236 L 868.3415072063536 67.98151515770375 L 868.1943429383738 68.06635414559763 L 868.0453093185777 68.15052363953589 L 867.8944212502028 68.2340152226393 L 867.7416938219304 68.31682054581911 L 867.5871423063761 68.39893132861202 L 867.4307821585627 68.48033936000816 L 867.2726290143744 68.56103649927225 L 867.1126986889941 68.6410146767576 L 866.9510071753209 68.72026589471311 L 866.7875706423716 68.79878222808303 L 866.6224054336631 68.87655582529945 L 866.4555280655787 68.95357890906746 L 866.2869552257163 69.02984377714286 L 866.1167037712191 69.10534280310242 L 865.944790727091 69.18006843710643 L 865.771233284493 69.25401320665378 L 865.5960487990246 69.32716971732913 L 865.4192547889886 69.39953065354239 L 865.2408689336386 69.47108877926021 L 865.0609090714113 69.54183693872967 L 864.8793931981432 69.61176805719379 L 864.6963394652703 69.68087514159897 L 864.5117661780133 69.74915128129439 L 864.3256917935471 69.81658964872294 L 864.1381349191552 69.88318350010411 L 863.9491143103685 69.94892617610824 L 863.7586488690906 70.01381110252252 L 863.5667576417068 70.07783179090838 L 863.37345981718 70.14098183925032 L 863.1787747251315 70.20325493259614 L 862.9827218339083 70.26464484368842 L 862.7853207486361 70.32514543358717 L 862.586591209259 70.38475065228383 L 862.3865530885653 70.44345453930622 L 862.1852263902003 70.50125122431453 L 861.9826312466663 70.55813492768844 L 861.7787879173085 70.61409996110503 L 861.5737167862902 70.66914072810756 L 861.3674383605535 70.72325172466522 L 861.1599732677691 70.77642753972344 L 860.9513422542734 70.82866285574504 L 860.741566182994 70.87995244924193 L 860.530666031363 70.9302911912975 L 860.3186628892199 70.9796740480795 L 860.1055779567023 71.0280960813434 L 859.8914325421259 71.07555244892625 L 859.6762480598536 71.12203840523081 L 859.4600460281544 71.16754930170019 L 859.2428480670512 71.21208058728268 L 859.0246758961592 71.25562780888683 L 858.8055513325137 71.29818661182675 L 858.5854962883883 71.33975274025764 L 858.3645327691042 71.38032203760127 L 858.1426828708293 71.41989044696174 L 857.9199687783682 71.45845401153106 L 857.6964127629448 71.49600887498494 L 857.4720371799743 71.5325512818683 L 857.246864466828 71.56807757797091 L 857.0209171405896 71.60258421069277 L 856.7942177958034 71.63606772939937 L 856.566789102215 71.66852478576672 L 856.3386538025042 71.69995213411627 L 856.1098347100109 71.73034663173934 L 855.8803547064535 71.7597052392115 L 855.6502367396415 71.78802502069648 L 855.4195038211794 71.81530314423973 L 855.1881790241671 71.84153688205163 L 854.9562854808912 71.86672361078024 L 854.7238463805131 71.8908608117737 L 854.490884966749 71.913946071332 L 854.2574245355461 71.93597708094846 L 854.0234884327531 71.95695163754044 L 853.7891000517851 71.97686764366978 L 853.5542828312851 71.99572310775245 L 853.3190602527795 72.01351614425778 L 853.0834558383299 72.03024497389691 L 852.8474931481816 72.04590792380084 L 852.6111957784069 72.06050342768764 L 852.3745873585459 72.07403002601906 L 852.1376915492433 72.08648636614654 L 851.9005320398828 72.09787120244648 L 851.6631325462176 72.1081833964447 L 851.4255168079992 72.11742191693043 L 851.1877085866035 72.12558584005929 L 850.9497316626545 72.13267434944576 L 850.7116098336461 72.13868673624485 L 850.473366911563 72.14362239922286 L 850.2350267204986 72.14748084481762 L 849.9966130942736 72.1502616871878 L 849.7581498740518 72.15196464825142 L 849.5196609059567 72.15258955771385 L 849.2811700386861 72.15213635308466 L 849.0427011211283 72.15060507968391 L 848.8042779999761 72.14799589063767 L 848.5659245173431 72.1443090468627 L 848.3276645083787 72.13954491704027 L 848.0895217988855 72.1337039775794 L 847.8515202029358 72.12678681256918 L 847.613683520491 72.11879411372033 L 847.3760355350211 72.10972668029609 L 847.1386000111265 72.09958541903224 L 846.9014006921618 72.08837134404646 L 846.6644612978614 72.07608557673689 L 846.4278055219671 72.06272934567005 L 846.1914570298593 72.04830398645788 L 845.9554394561902 72.0328109416243 L 845.7197764025207 72.01625176046089 L 845.4844914349595 71.99862809887196 L 845.2496080818075 71.97994171920898 L 845.0151498312042 71.96019449009434 L 844.7811401287794 71.9393883862345 L 844.547602375308 71.91752548822251 L 844.3145599243711 71.89460798232996 L 844.0820360800194 71.87063816028832 L 843.8500540944435 71.84561841905983 L 843.6186371656489 71.81955126059778 L 843.3878084351354 71.79243929159627 L 843.1575909855839 71.7642852232296 L 842.9280078385473 71.73509187088118 L 842.699081952149 71.7048621538619 L 842.470836218787 71.67359909511825 L 842.2432934628443 71.64130582093009 L 842.016476438407 71.6079855605979 L 841.7904078269886 71.57364164611994 L 841.5651102352616 71.53827751185906 L 841.3406061927975 71.50189669419922 L 841.1169181498136 71.46450283119185 L 840.8940684749277 71.42609966219209 L 840.6720794529216 71.38669102748484 L 840.4509732825126 71.34628086790075 L 840.2307720741331 71.30487322442208 L 840.011497847721 71.26247223777868 L 839.7931725305158 71.21908214803388 L 839.5758179548674 71.17470729416048 L 839.3594558560524 71.12935211360693 L 839.1441078701 71.08302114185344 L 838.9297955316298 71.0357190119586 L 838.7165402716967 70.987450454096 L 838.5043634156492 70.93822029508118 L 838.2932861809959 70.88803345788901 L 838.0833296752845 70.8368949611614 L 837.8745148939906 70.7848099187054 L 837.6668627184183 70.73178353898187 L 837.4603939136122 70.67782112458457 L 837.2551291262805 70.62292807170999 L 837.051088882731 70.56710986961765 L 836.848293586818 70.51037210008127 L 836.6467635179023 70.4527204368305 L 836.4465188288226 70.39416064498364 L 836.247579543881 70.33469858047107 L 836.0499655568402 70.27434018944969 L 835.8536966289344 70.2130915077083 L 835.6587923868925 70.15095866006402 L 835.4652723209766 70.08794785974987 L 835.2731557830318 70.02406540779336 L 835.0824619845521 69.95931769238642 L 834.8932099947581 69.89371118824668 L 834.7054187386912 69.82725245596986 L 834.5191069953205 69.7599481413738 L 834.3342933956651 69.69180497483389 L 834.150996420931 69.62282977060998 L 833.9692344006628 69.55302942616503 L 833.7890255109113 69.4824109214753 L 833.610387772415 69.41098131833243 L 833.4333390487991 69.3387477596372 L 833.2578970447883 69.26571746868528 L 833.0840793044368 69.19189774844492 L 832.9119032093739 69.1172959808266 L 832.7413859770655 69.04191962594494 L 832.572544659093 68.96577622137262 L 832.405396139447 68.88887338138663 L 832.2399571328407 68.81121879620689 L 832.0762441830365 68.73282023122718 L 831.9142736611932 68.6536855262387 L 831.7540617642279 68.573822594646 L 831.5956245131968 68.49323942267567 L 831.438977751693 68.41194406857777 L 831.2841371442621 68.32994466181995 L 831.1311181748358 68.24724940227456 L 830.9799361451835 68.16386655939866 L 830.8306061733822 68.07980447140702 L 830.6831431923047 67.99507154443839 L 830.5375619481262 67.90967625171488 L 830.3938769988497 67.8236271326946 L 830.2521027128505 67.73693279221771 L 830.1122532674391 67.64960189964606 L 829.9743426474433 67.56164318799608 L 829.8383846438103 67.47306545306569 L 829.7043928522272 67.38387755255452 L 829.5723806717615 67.29408840517834 L 829.4423613035211 67.20370698977703 L 829.3143477493346 67.11274234441683 L 829.1883528104507 67.02120356548647 L 829.0643890862584 66.92909980678756 L 828.9424689730267 66.83644027861922 L 828.8226046626653 66.74323424685704 L 828.7048081415054 66.64949103202653 L 828.5890911891009 66.55522000837107 L 828.4754653770507 66.46043060291444 L 828.3639420678413 66.3651322945182 L 828.2545324137106 66.2693346129338 L 828.147247355533 66.17304713784955 L 828.0420976217247 66.07627949793272 L 827.9390937271717 65.97904136986665 L 827.8382459721773 65.88134247738313 L 827.7395644414332 65.78319259028999 L 827.6430590030103 65.68460152349414 L 827.5487393073719 65.58557913602012 L 827.4566147864089 65.48613533002413 L 827.3666946524967 65.38628004980393 L 827.2789878975738 65.2860232808043 L 827.1935032922424 65.18537504861862 L 827.1102493848922 65.08434541798623 L 827.0292345008442 64.982944491786 L 826.9504667415193 64.88118241002603 L 826.8739539836281 64.77906934882972 L 826.7997038783823 64.67661551941809 L 826.7277238507307 64.5738311670887 L 826.658021098616 64.47072657019112 L 826.5906025922556 64.36731203909913 L 826.5254750734435 64.26359791517966 L 826.4626450548776 64.15959456975868 L 826.4021188195075 64.05531240308405 L 826.3439024199059 63.95076184328555 L 826.2880016776647 63.84595334533201 L 826.2344221828113 63.74089738998592 L 826.1831692932504 63.63560448275524 L 826.1342481342286 63.530085152842965 L 826.0876635978208 63.42434995209415 L 826.0434203424419 63.318409453940745 L 826.0015227923805 63.2122742523443 L 825.9619751373567 63.105954960736526 L 825.9247813321031 62.99946221095797 L 825.8899450959692 62.892806652194885 L 825.8574699125495 62.78599894991426 L 825.8273590293355 62.679049784797314 L 825.7996154573902 62.57196985167143 L 825.7742419710479 62.464769858440704 L 825.7512411076359 62.357460525015114 L 825.7306151672215 62.25005258223858 L 825.7123662123813 62.14255677081588 L 825.6964960679959 62.03498384023857 L 825.6830063210664 61.92734454771006 L 825.6718983205561 61.81964965706991 L 825.6631731772561 61.71190993771744 L 825.6568317636732 61.6041361635348 L 825.6528747139436 61.49633911180959 L 825.6513024237688 61.38852956215717 L 825.6521150503768 61.28071829544265 L 825.6553125125054 61.172916092702856 L 825.660894490411 61.06513373406823 L 825.6688604259007 60.957381997684834 L 825.6792095223874 60.84967165863649 L 825.6919407449702 60.74201348786736 L 825.7070528205373 60.6344182511048 L 825.724544237894 60.526896707782825 L 825.7444132479127 60.41945960996616 L 825.7666578637094 60.31211770127506 L 825.7912758608409 60.204881715810956 L 825.8182647775278 60.097762377083015 L 825.8476219149012 59.99077039693585 L 825.8793443372717 59.88391647447831 L 825.9134288724237 59.7772112950136 L 825.9498721119317 59.67066552897075 L 825.9886704115024 59.56428983083758 L 826.0298198913381 59.45809483809524 L 826.0733164365251 59.35209117015452 L 826.1191556974452 59.24628942729389 L 826.1673330902104 59.14070018959944 L 826.2178437971216 59.03533401590697 L 826.2706827671502 58.93020144274604 L 826.3258447164434 58.82531298328635 L 826.383324128852 58.72067912628645 L 826.4431152564828 58.61631033504484 L 826.5052121202726 58.51221704635366 L 826.5696085105872 58.40840966945505 L 826.636297987841 58.30489858500019 L 826.7052738831418 58.20169414401126 L 826.7765292989576 58.098806666846365 L 826.8500571098062 57.996246442167475 L 826.9258499629678 57.894023725911595 L 827.0039002792203 57.79214874026516 L 827.084200253597 57.69063167264185 L 827.1667418561674 57.58948267466382 L 827.2515168328401 57.488711861146584 L 827.3385167061881 57.38832930908751 L 827.4277327762965 57.28834505665816 L 827.5191561216326 57.18876910220045 L 827.6127775999381 57.08961140322686 L 827.7085878491431 56.99088187542464 L 827.8065772883027 56.8925903916643 L 827.9067361185546 56.794746781012314 L 828.0090543240991 56.6973608277482 L 828.1135216732009 56.60044227038614 L 828.2201277192124 56.5040008007011 L 828.3288618016177 56.40804606275968 L 828.439713047099 56.31258765195572 L 828.5526703706244 56.217635114050736 L 828.6677224765555 56.12319794421941 L 828.7848578597776 56.029285586100016 L 828.90406480685 55.93590743085011 L 829.0253313971774 55.8430728162074 L 829.1486455042018 55.75079102555599 L 829.2739947966153 55.65907128699804 L 829.401366739593 55.56792277243099 L 829.5307485960468 55.47735459663031 L 829.6621274278989 55.387375816338135 L 829.7954900973755 55.29799542935749 L 829.9308232683209 55.20922237365261 L 830.0681134075307 55.12106552645507 L 830.2073467861055 55.033533703376136 L 830.3485094808234 54.94663565752517 L 830.4915873755325 54.86038007863435 L 830.6365661625626 54.77477559218967 L 830.7834313441559 54.689830758568455 L 830.9321682339166 54.60555407218327 L 831.0827619582795 54.52195396063252 L 831.235197457998 54.439038783857704 L 831.3894594896487 54.35681683330739 L 831.5455326271574 54.27529633110813 L 831.7034012633402 54.19448542924221 L 831.8630496114652 54.114392208732454 L 832.0244617068303 54.03502467883419 L 832.1876214083608 53.95639077623426 L 832.3525124002223 53.878498364257396 L 832.5191181934532 53.801355232079885 L 832.687422127613 53.72496909395066 L 832.8574073724483 53.649347588419886 L 833.0290569295765 53.57449827757509 L 833.202353634185 53.50042864628498 L 833.3772801567475 53.42714610145097 L 833.5538190047577 53.35465797126647 L 833.7319525244777 53.28297150448409 L 833.9116629027043 53.21209386969077 L 834.0929321685492 53.14203215459092 L 834.2757421952368 53.072793365297684 L 834.460074701917 53.00438442563227 L 834.6459112554928 52.93681217643165 L 834.8332332724634 52.870083374864436 L 835.0220220207833 52.80420469375517 L 835.2122586217351 52.739182720917064 L 835.4039240518173 52.67502395849323 L 835.5969991446464 52.611734822306424 L 835.791464592874 52.54932164121754 L 835.9873009501176 52.48779065649267 L 836.1844886329044 52.427148021179015 L 836.3830079226307 52.36739979948956 L 836.5828389675327 52.3085519661967 L 836.7839617846724 52.25061040603471 L 836.9863562619361 52.19358091311133 L 837.1900021600444 52.13746919032833 L 837.3948791145772 52.08228084881122 L 837.6009666380098 52.02802140734818 L 837.8082441217617 51.974696291838114 L 838.0166908382572 51.922310834748146 L 838.2262859429984 51.87087027458034 L 838.4370084766493 51.82037975534783 L 838.6488373671324 51.770844326060484 L 838.861751431735 51.72226894021993 L 839.0757293792282 51.674658455324284 L 839.2907498119954 51.62801763238236 L 839.5067912281726 51.58235113543759 L 839.7238320237981 51.5376635311016 L 839.9418504949734 51.49395928809759 L 840.160824840033 51.451242776813444 L 840.3807331617247 51.409518268864694 L 840.6015534694 51.368789936667355 L 840.8232636812116 51.32906185302072 L 841.0458416263235 51.29033799070003 L 841.2692650471265 51.252622222059266 L 841.4935116014647 51.21591831864385 L 841.7185588648696 51.18022995081354 L 841.9443843328023 51.14556068737539 L 842.1709654229044 51.11191399522683 L 842.3982794772555 51.079293239009054 L 842.6263037646396 51.047701680770494 L 842.8550154828181 51.01714247964064 L 843.0843917608097 50.98761869151416 L 843.3144096611778 50.95913326874524 L 843.545046182324 50.93168905985244 L 843.7762782607883 50.90528880923376 L 844.0080827735557 50.87993515689227 L 844.240436540368 50.85563063817208 L 844.4733163260422 50.83237768350481 L 844.7066988427938 50.81017861816654 L 844.9405607525656 50.78903566204531 L 845.1748786693614 50.768950929419105 L 845.4096291615849 50.749926428744466 L 845.6447887543825 50.7319640624556 L 845.8803339319909 50.71506562677416 L 846.1162411400885 50.69923281152964 L 846.3524867881513 50.684467199990365 L 846.589047251811 50.6707702687052 L 846.8258988752189 50.658143387355835 L 847.0630179734095 50.64658781861989 L 847.3003808346709 50.63610471804463 L 847.5379637229147 50.62669513393135 L 847.77574288005 50.61836000723063 L 848.0136945283593 50.61110017144819 L 848.2517948728761 50.604916352561574 L 848.4900201037642 50.5998091689475 L 848.7283463986993 50.595779131320086 L 848.9667499252503 50.592826642679725 L 849.2052068432631 50.59095199827282 L 849.443693307245 50.59015538556226 L 849.682185468748 50.59043688420866 L 849.9206594787548 50.59179646606236 L 850.1590914900632 50.594233995166334 L 850.3974576596707 50.59774922776969 L 850.635734151159 50.6023418123521 L 850.8738971370775 50.60801128965893 L 851.111922801326 50.61475709274719 L 851.3497873415365 50.622578547042174 L 851.5874669714532 50.63147487040497 L 851.8249379233113 50.64144517321068 L 852.0621764502132 50.6524884584373 L 852.2991588285041 50.66460362176552 L 852.5358613601437 50.67778945168912 L 852.772260375076 50.69204462963607 L 853.0083322335967 50.70736773010048 L 853.2440533287163 50.72375722078505 L 853.479400088522 50.74121146275439 L 853.7143489785338 50.759728710598836 L 853.9488765040586 50.77930711260903 L 854.1829592125393 50.79994471096109 L 854.4165736959001 50.821639441912396 L 854.6496965928872 50.844389136007905 L 854.8823045914053 50.86819151829718 L 855.1143744308483 50.893044208561825 L 855.3458829044258 50.91894472155353 L 855.5768068614833 50.94589046724256 L 855.8071232098175 50.973878751076825 L 856.0368089179855 51.00290677425126 L 856.2658410176078 51.03297163398772 L 856.4941966056655 51.064070323825305 L 856.72185284679 51.09619973392093 L 856.9487869755467 51.129356651360375 L 857.1749762987121 51.16353776047952 L 857.4003981975424 51.198739643195935 L 857.6250301300353 51.23495877935069 L 857.848849633185 51.27219154706035 L 858.0718343252275 51.31043422307917 L 858.2939619078795 51.349682983171405 L 858.515210168568 51.38993390249377 L 858.7355569826511 51.43118295598788 L 858.954980315631 51.47342601878273 L 859.1734582253574 51.51665886660727 L 859.3909688642213 51.56087717621274 L 859.6074904813402 51.60607652580503 L 859.8230014247325 51.65225239548683 L 860.0374801434838 51.69940016770967 L 860.2509051899008 51.74751512773561 L 860.4632552216567 51.79659246410874 L 860.6745090039254 51.84662726913632 L 860.8846454115046 51.89761453937955 L 861.0936434309286 51.949549176153894 L 861.3014821625699 52.00242598603895 L 861.5081408227281 52.0562396813978 L 861.7135987457099 52.11098488090573 L 861.9178353858938 52.16665611008844 L 862.1208303197861 52.22324780186939 L 862.3225632480627 52.28075429712656 L 862.5230139975988 52.339169845258354 L 862.7221625234864 52.398488604758626 L 862.919988911039 52.458704643800864 L 863.1164733777827 52.51981194083135 L 863.3115962754345 52.581804385171296 L 863.5053380918672 52.64467577762793 L 863.6976794530606 52.708419831114405 L 863.888601125039 52.77303017127848 L 864.0780840157942 52.83850033713999 L 864.2661091771951 52.90482378173691 L 864.4526578068821 52.97199387278003 L 864.6377112501478 53.040003893316246 L 864.8212510018021 53.108847042400164 L 865.0032587080228 53.17851643577425 L 865.1837161681909 53.24900510655722 L 865.3626053367108 53.32030600594074 L 865.5399083248145 53.39241200389429 L 865.7156074023513 53.465315889878156 L 865.8896849995597 53.5390103735645 L 866.062123708825 53.61348808556637 L 866.23290628642 53.68874157817461 L 866.4020156542292 53.76476332610268 L 866.5694349014568 53.84154572723915 L 866.7351472863177 53.91908110340788 L 866.8991362377113 53.99736170113587 L 867.0613853568793 54.07637969242858 L 867.221878419045 54.156127175552726 L 867.3805993750358 54.236596175826456 L 867.5375323528883 54.3177786464168 L 867.6926616594357 54.39966646914434 L 867.8459717818765 54.48225145529506 L 867.9974473893262 54.56552534643915 L 868.1470733343504 54.6494798152569 L 868.2948346544791 54.73410646637139 L 868.4407165737036 54.81939683718802 L 868.5847045039535 54.9053423987408 L 868.7267840465557 54.99193455654518 L 868.8669409936745 55.079164651457546 L 869.0051613297317 55.16702396054111 L 869.141431232809 55.25550369793815 L 869.2757370760298 55.344595015748695 L 869.4080654289216 55.43428900491518 L 869.5384030587593 55.52457669611344 L 869.6667369318886 55.615449060649595 L 869.7930542150293 55.706897011362926 L 869.917342276558 55.79891140353456 L 870.0395886877724 55.891483035801954 L 870.1597812241331 55.98460265107904 L 870.2779078664868 56.07826093748187 L 870.3939568022674 56.17244852925987 L 870.5079164266783 56.26715600773234 L 870.619775343852 56.36237390223035 L 870.7295223679898 56.45809269104382 L 870.837146524481 56.55430280237361 L 870.9426370509995 56.65099461528878 L 871.0459833985805 56.74815846068861 L 871.1471752326754 56.84578462226952 L 871.2462024341853 56.943863337496715 L 871.3430551004723 57.0423847985804 L 871.4377235463506 57.14133915345658 L 871.5301983050546 57.240716506772216 L 871.6204701291854 57.34050692087479 L 871.7085299916357 57.44070041680606 L 871.7943690864928 57.54128697529992 L 871.8779788299188 57.64225653778434 L 871.9593508610087 57.74359900738722 L 872.0384770426276 57.84530424994605 L 872.1153494622231 57.94736209502132 L 872.1899604326172 58.04976233691358 L 872.2623024927752 58.15249473568397 L 872.3323684085515 58.25554901817823 L 872.4001511734125 58.35891487905398 L 872.4656440091385 58.46258198181127 L 872.5288403665004 58.566539959826216 L 872.5897339259151 58.67077841738765 L 872.6483185980775 58.77528693073668 L 872.7045885245691 58.88005504910905 L 872.7585380784443 58.985072295780256 L 872.8101618647926 59.09032816911312 L 872.8594547212782 59.19581214360803 L 872.9064117186568 59.301513670955444 L 872.9510281612677 59.4074221810907 L 872.9932995875038 59.513527083251056 L 873.0332217702576 59.619817767034704 L 873.0707907173443 59.72628360346185 L 873.1060026719002 59.832913946037564 L 873.1388541127596 59.939698131816456 L 873.1693417548055 60.046625482468926 L 873.1974625492992 60.153685305349015 L 873.2232136841845 60.26086689456366 L 873.2465925843698 60.36815953204325 L 873.267596911984 60.47555248861345 L 873.2862245666123 60.5830350250681 L 873.3024736855045 60.69059639324311 L 873.3163426437625 60.79822583709131 L 873.3278300545018 60.905912593758 L 873.3369347689909 61.01364589465726 L 873.3436558767661 61.12141496654876 L 873.347992705722 61.22920903261514 L 873.3499448221796 61.337017313539604 M 873.3500658122356 95.6752857281 L 873.3488733523319 95.78309627301661 L 873.3452960918659 95.89089603696858 L 873.3393343885606 95.99867424006935 L 873.3309888385812 96.1064201045884 L 873.320260276476 96.21412285602908 L 873.3071497750922 96.321771724206 L 873.2916586454689 96.42935594432204 L 873.2737884367064 96.53686475804484 L 873.2535409358103 96.64428741458265 L 873.2309181675141 96.75161317175929 L 873.2059223940757 96.85883129708851 L 873.1785561150517 96.96593106884711 L 873.1488220670471 97.07290177714718 L 873.116723223442 97.17973272500701 L 873.0822627940939 97.28641322942086 L 873.0454442250171 97.39293262242717 L 873.0062711980378 97.49928025217542 L 872.964747630426 97.60544548399125 L 872.920877674504 97.71141770143996 L 872.8746657172306 97.8171863073881 L 872.8261163797633 97.92274072506322 L 872.7752345169953 98.02807039911151 L 872.7220252170704 98.13316479665336 L 872.6664938008742 98.23801340833658 L 872.6086458215021 98.34260574938737 L 872.548487063704 98.4469313606588 L 872.4860235433054 98.55097980967666 L 872.4212615066061 98.65474069168278 L 872.3542074297561 98.7582036306754 L 872.2848680181072 98.86135828044685 L 872.2132502055425 98.96419432561812 L 872.1393611537839 99.0667014826704 L 872.0632082516748 99.16886950097337 L 871.984799114442 99.27068816381038 L 871.9041415829339 99.37214728939998 L 871.8212437228365 99.47323673191414 L 871.7361138238666 99.57394638249288 L 871.6487603989432 99.67426617025505 L 871.559192183336 99.77418606330548 L 871.467418133792 99.87369606973812 L 871.3734474276396 99.97278623863527 L 871.277289461871 100.0714466610626 L 871.1789538522029 100.1696674710601 L 871.0784504321141 100.2674388466286 L 870.9757892518629 100.36475101071201 L 870.8709805774819 100.46159423217506 L 870.764034889751 100.55795882677627 L 870.65496288315 100.65383515813649 L 870.5437754647887 100.74921363870249 L 870.4304837533161 100.84408473070569 L 870.3150990778092 100.93843894711594 L 870.1976329766392 101.03226685259024 L 870.0780971963183 101.12555906441622 L 869.956503690325 101.21830625345046 L 869.8328646179086 101.31049914505132 L 869.7071923428732 101.4021285200065 L 869.5794994323418 101.49318521545483 L 869.4497986554987 101.58366012580265 L 869.3181029823138 101.67354420363434 L 869.1844255822446 101.762828460617 L 869.0487798229196 101.85150396839936 L 868.9111792688018 101.93956185950451 L 868.7716376798319 102.02699332821673 L 868.6301690100526 102.11378963146201 L 868.4867874062128 102.19994208968237 L 868.3415072063536 102.28544208770374 L 868.1943429383738 102.37028107559762 L 868.0453093185777 102.45445056953588 L 867.8944212502028 102.53794215263929 L 867.7416938219304 102.6207474758191 L 867.5871423063761 102.70285825861201 L 867.4307821585627 102.78426629000816 L 867.2726290143744 102.86496342927225 L 867.1126986889941 102.9449416067576 L 866.9510071753209 103.02419282471311 L 866.7875706423716 103.10270915808303 L 866.6224054336631 103.18048275529944 L 866.4555280655787 103.25750583906745 L 866.2869552257163 103.33377070714286 L 866.1167037712191 103.4092697331024 L 865.944790727091 103.48399536710642 L 865.771233284493 103.55794013665377 L 865.5960487990246 103.63109664732913 L 865.4192547889886 103.70345758354237 L 865.2408689336386 103.7750157092602 L 865.0609090714113 103.84576386872968 L 864.8793931981432 103.91569498719377 L 864.6963394652703 103.98480207159896 L 864.5117661780133 104.05307821129438 L 864.3256917935471 104.12051657872294 L 864.1381349191552 104.1871104301041 L 863.9491143103685 104.25285310610823 L 863.7586488690906 104.31773803252251 L 863.5667576417068 104.38175872090837 L 863.37345981718 104.44490876925032 L 863.1787747251315 104.50718186259614 L 862.9827218339083 104.5685717736884 L 862.7853207486361 104.62907236358716 L 862.586591209259 104.68867758228383 L 862.3865530885653 104.7473814693062 L 862.1852263902003 104.80517815431453 L 861.9826312466663 104.86206185768845 L 861.7787879173085 104.91802689110501 L 861.5737167862902 104.97306765810755 L 861.3674383605535 105.02717865466522 L 861.1599732677691 105.08035446972343 L 860.9513422542734 105.13258978574503 L 860.741566182994 105.18387937924192 L 860.530666031363 105.23421812129749 L 860.3186628892199 105.28360097807949 L 860.1055779567023 105.33202301134341 L 859.8914325421259 105.37947937892625 L 859.6762480598536 105.4259653352308 L 859.4600460281544 105.4714762317002 L 859.2428480670512 105.51600751728267 L 859.0246758961592 105.55955473888682 L 858.8055513325137 105.60211354182675 L 858.5854962883883 105.64367967025764 L 858.3645327691042 105.68424896760128 L 858.1426828708293 105.72381737696173 L 857.9199687783682 105.76238094153106 L 857.6964127629448 105.79993580498493 L 857.4720371799743 105.83647821186828 L 857.246864466828 105.8720045079709 L 857.0209171405896 105.90651114069276 L 856.7942177958034 105.93999465939936 L 856.566789102215 105.97245171576672 L 856.3386538025042 106.00387906411626 L 856.1098347100109 106.03427356173933 L 855.8803547064535 106.0636321692115 L 855.6502367396415 106.09195195069648 L 855.4195038211794 106.11923007423972 L 855.1881790241671 106.14546381205162 L 854.9562854808912 106.17065054078024 L 854.7238463805131 106.1947877417737 L 854.490884966749 106.21787300133201 L 854.2574245355461 106.23990401094846 L 854.0234884327531 106.26087856754044 L 853.7891000517851 106.28079457366978 L 853.5542828312851 106.29965003775246 L 853.3190602527795 106.31744307425777 L 853.0834558383299 106.3341719038969 L 852.8474931481816 106.34983485380084 L 852.6111957784069 106.36443035768762 L 852.3745873585459 106.37795695601905 L 852.1376915492433 106.39041329614655 L 851.9005320398828 106.40179813244647 L 851.6631325462176 106.4121103264447 L 851.4255168079992 106.42134884693041 L 851.1877085866035 106.42951277005928 L 850.9497316626545 106.43660127944577 L 850.7116098336461 106.44261366624485 L 850.473366911563 106.44754932922287 L 850.2350267204986 106.45140777481762 L 849.9966130942736 106.45418861718778 L 849.7581498740518 106.45589157825142 L 849.5196609059567 106.45651648771386 L 849.2811700386861 106.45606328308465 L 849.0427011211283 106.4545320096839 L 848.8042779999761 106.45192282063768 L 848.5659245173431 106.44823597686269 L 848.3276645083787 106.44347184704026 L 848.0895217988855 106.43763090757939 L 847.8515202029358 106.43071374256917 L 847.613683520491 106.42272104372033 L 847.3760355350211 106.41365361029608 L 847.1386000111265 106.40351234903224 L 846.9014006921618 106.39229827404645 L 846.6644612978614 106.38001250673689 L 846.4278055219671 106.36665627567004 L 846.1914570298593 106.35223091645787 L 845.9554394561902 106.33673787162431 L 845.7197764025207 106.32017869046089 L 845.4844914349595 106.30255502887195 L 845.2496080818075 106.28386864920897 L 845.0151498312042 106.26412142009434 L 844.7811401287794 106.2433153162345 L 844.547602375308 106.22145241822251 L 844.3145599243711 106.19853491232995 L 844.0820360800194 106.17456509028831 L 843.8500540944435 106.14954534905984 L 843.6186371656489 106.12347819059778 L 843.3878084351354 106.09636622159626 L 843.1575909855839 106.06821215322961 L 842.9280078385473 106.03901880088118 L 842.699081952149 106.0087890838619 L 842.470836218787 105.97752602511825 L 842.2432934628443 105.94523275093007 L 842.016476438407 105.91191249059789 L 841.7904078269886 105.87756857611994 L 841.5651102352616 105.84220444185907 L 841.3406061927975 105.8058236241992 L 841.1169181498136 105.76842976119184 L 840.8940684749277 105.73002659219209 L 840.6720794529216 105.69061795748485 L 840.4509732825126 105.65020779790075 L 840.2307720741331 105.60880015442207 L 840.011497847721 105.56639916777867 L 839.7931725305158 105.52300907803387 L 839.5758179548674 105.47863422416049 L 839.3594558560524 105.43327904360692 L 839.1441078701 105.38694807185344 L 838.9297955316298 105.33964594195861 L 838.7165402716967 105.291377384096 L 838.5043634156492 105.24214722508117 L 838.2932861809959 105.19196038788901 L 838.0833296752845 105.1408218911614 L 837.8745148939906 105.08873684870541 L 837.6668627184183 105.03571046898188 L 837.4603939136122 104.98174805458457 L 837.2551291262805 104.92685500170998 L 837.051088882731 104.87103679961766 L 836.848293586818 104.81429903008126 L 836.6467635179023 104.75664736683049 L 836.4465188288226 104.69808757498365 L 836.247579543881 104.63862551047107 L 836.0499655568402 104.57826711944969 L 835.8536966289344 104.51701843770829 L 835.6587923868925 104.45488559006402 L 835.4652723209766 104.39187478974986 L 835.2731557830318 104.32799233779335 L 835.0824619845521 104.26324462238642 L 834.8932099947581 104.19763811824667 L 834.7054187386912 104.13117938596986 L 834.5191069953205 104.0638750713738 L 834.3342933956651 103.99573190483389 L 834.150996420931 103.92675670060999 L 833.9692344006628 103.85695635616503 L 833.7890255109113 103.7863378514753 L 833.610387772415 103.71490824833242 L 833.4333390487991 103.64267468963719 L 833.2578970447883 103.56964439868527 L 833.0840793044368 103.4958246784449 L 832.9119032093739 103.4212229108266 L 832.7413859770655 103.34584655594495 L 832.572544659093 103.26970315137261 L 832.405396139447 103.19280031138662 L 832.2399571328407 103.11514572620688 L 832.0762441830365 103.03674716122718 L 831.9142736611932 102.9576124562387 L 831.7540617642279 102.87774952464599 L 831.5956245131968 102.79716635267567 L 831.438977751693 102.71587099857777 L 831.2841371442621 102.63387159181995 L 831.1311181748358 102.55117633227457 L 830.9799361451835 102.46779348939864 L 830.8306061733822 102.383731401407 L 830.6831431923047 102.29899847443839 L 830.5375619481262 102.21360318171489 L 830.3938769988497 102.12755406269459 L 830.2521027128505 102.04085972221772 L 830.1122532674391 101.95352882964605 L 829.9743426474433 101.86557011799609 L 829.8383846438103 101.77699238306569 L 829.7043928522272 101.68780448255453 L 829.5723806717615 101.59801533517833 L 829.4423613035211 101.50763391977702 L 829.3143477493346 101.41666927441683 L 829.1883528104507 101.32513049548646 L 829.0643890862584 101.23302673678755 L 828.9424689730267 101.14036720861921 L 828.8226046626653 101.04716117685703 L 828.7048081415054 100.95341796202653 L 828.5890911891009 100.85914693837105 L 828.4754653770507 100.76435753291443 L 828.3639420678413 100.66905922451821 L 828.2545324137106 100.5732615429338 L 828.147247355533 100.47697406784954 L 828.0420976217247 100.3802064279327 L 827.9390937271717 100.28296829986664 L 827.8382459721773 100.18526940738312 L 827.7395644414332 100.08711952028997 L 827.6430590030103 99.98852845349413 L 827.5487393073719 99.8895060660201 L 827.4566147864089 99.79006226002413 L 827.3666946524967 99.69020697980392 L 827.2789878975738 99.5899502108043 L 827.1935032922424 99.48930197861863 L 827.1102493848922 99.38827234798623 L 827.0292345008442 99.28687142178599 L 826.9504667415193 99.18510934002603 L 826.8739539836281 99.08299627882971 L 826.7997038783823 98.98054244941808 L 826.7277238507307 98.87775809708869 L 826.658021098616 98.7746535001911 L 826.5906025922556 98.67123896909912 L 826.5254750734435 98.56752484517966 L 826.4626450548776 98.46352149975867 L 826.4021188195075 98.35923933308405 L 826.3439024199059 98.25468877328554 L 826.2880016776647 98.14988027533201 L 826.2344221828113 98.04482431998592 L 826.1831692932504 97.93953141275524 L 826.1342481342286 97.83401208284296 L 826.0876635978208 97.72827688209414 L 826.0434203424419 97.62233638394075 L 826.0015227923805 97.5162011823443 L 825.9619751373567 97.40988189073651 L 825.9247813321031 97.30338914095798 L 825.8899450959692 97.19673358219488 L 825.8574699125495 97.08992587991426 L 825.8273590293355 96.9829767147973 L 825.7996154573902 96.87589678167143 L 825.7742419710479 96.7686967884407 L 825.7512411076359 96.66138745501512 L 825.7306151672215 96.55397951223858 L 825.7123662123813 96.44648370081588 L 825.6964960679959 96.33891077023856 L 825.6830063210664 96.23127147771005 L 825.6718983205561 96.1235765870699 L 825.6631731772561 96.01583686771744 L 825.6568317636732 95.90806309353479 L 825.6528747139436 95.80026604180959 L 825.6513024237688 95.69245649215716" stroke-miterlimit="10" stroke-width="2.7769845610000004" stroke-dasharray=""/></g><g><g/><text fill="black" stroke="none" font-family="sans-serif" font-size="11pt" font-style="normal" font-weight="normal" text-decoration="normal" x="839.3181357300755" y="123.98419304699999" text-anchor="start" dominant-baseline="alphabetic" xml:space="preserve">BD</text></g></g><g><path fill="white" stroke="black" paint-order="fill stroke markers" d=" M 25.25768280029297 137.052355687 L 41.59288610029297 137.052355687 L 41.59288610029297 182.790924927 L 25.25768280029297 182.790924927 L 25.25768280029297 137.052355687" stroke-miterlimit="10" stroke-width="1.3612669416666667" stroke-dasharray=""/><path fill="white" stroke="black" paint-order="fill stroke markers" d=" M 197.58714405393877 182.790924927 L 213.92234735393876 182.790924927 L 213.92234735393876 320.006632647 L 197.58714405393877 320.006632647 L 197.58714405393877 182.790924927" stroke-miterlimit="10" stroke-width="1.3612669416666667" stroke-dasharray=""/><path fill="white" stroke="black" paint-order="fill stroke markers" d=" M 373.98961861324864 320.006632647 L 390.3248219132486 320.006632647 L 390.3248219132486 365.745201887 L 373.98961861324864 365.745201887 L 373.98961861324864 320.006632647" stroke-miterlimit="10" stroke-width="1.3612669416666667" stroke-dasharray=""/><path fill="white" stroke="black" paint-order="fill stroke markers" d=" M 538.9962649254882 365.745201887 L 555.3314682254883 365.745201887 L 555.3314682254883 411.483771127 L 538.9962649254882 411.483771127 L 538.9962649254882 365.745201887" stroke-miterlimit="10" stroke-width="1.3612669416666667" stroke-dasharray=""/><path fill="white" stroke="black" paint-order="fill stroke markers" d=" M 668.1803944206679 411.483771127 L 684.515597720668 411.483771127 L 684.515597720668 457.222340367 L 668.1803944206679 457.222340367 L 668.1803944206679 411.483771127" stroke-miterlimit="10" stroke-width="1.3612669416666667" stroke-dasharray=""/><path fill="white" stroke="black" paint-order="fill stroke markers" d=" M 841.3330673442356 457.222340367 L 857.6682706442357 457.222340367 L 857.6682706442357 502.960909607 L 841.3330673442356 502.960909607 L 841.3330673442356 457.222340367" stroke-miterlimit="10" stroke-width="1.3612669416666667" stroke-dasharray=""/><g><g><rect fill="white" stroke="none" x="60.922876671959614" y="161.555160637" width="117.3342768103125" height="21.23576429"/></g><text fill="black" stroke="none" font-family="sans-serif" font-size="11pt" font-style="normal" font-weight="normal" text-decoration="normal" x="63.373157166959615" y="176.25684360699998" text-anchor="start" dominant-baseline="alphabetic" xml:space="preserve">1:insereUsuario()</text></g><g><path fill="none" stroke="black" paint-order="fill stroke markers" d=" M 41.59288610029297 182.790924927 L 184.1378266702721 182.790924927" stroke-miterlimit="10" stroke-width="1.3612669416666667" stroke-dasharray=""/><g transform="translate(197.58714405393877,182.790924927) translate(-197.58714405393877,-182.790924927)"><path fill="black" stroke="none" paint-order="stroke fill markers" d=" M 183.9744746372721 175.98459021866665 L 197.58714405393877 182.790924927 L 183.9744746372721 189.59725963533333 Z"/></g></g><g><g><rect fill="white" stroke="none" x="237.33613875060544" y="207.293729877" width="121.40729011597656" height="21.23576429"/></g><text fill="black" stroke="none" font-family="sans-serif" font-size="11pt" font-style="normal" font-weight="normal" text-decoration="normal" x="239.78641924560543" y="221.99541284699998" text-anchor="start" dominant-baseline="alphabetic" xml:space="preserve">2:fabricaUsuario()</text></g><g><path fill="none" stroke="black" paint-order="fill stroke markers" d=" M 213.92234735393876 228.529494167 L 368.707902879582 228.529494167" stroke-miterlimit="10" stroke-width="1.3612669416666667" stroke-dasharray=""/><g transform="translate(382.15722026324863,228.529494167) translate(-382.15722026324863,-228.529494167)"><path fill="black" stroke="none" paint-order="stroke fill markers" d=" M 368.54455084658196 221.72315945866666 L 382.15722026324863 228.529494167 L 368.54455084658196 235.33582887533333 Z"/></g></g><g><g><rect fill="white" stroke="none" x="251.18365767150388" y="253.032299117" width="93.71225227417969" height="21.23576429"/></g><text fill="black" stroke="none" font-family="sans-serif" font-size="11pt" font-style="normal" font-weight="normal" text-decoration="normal" x="253.63393816650387" y="267.733982087" text-anchor="start" dominant-baseline="alphabetic" xml:space="preserve">returnUsuario</text></g><g><path fill="none" stroke="black" paint-order="fill stroke markers" d=" M 382.15722026324863 274.268063407 L 227.37166473760544 274.268063407" stroke-miterlimit="10" stroke-width="1.3612669416666667" stroke-dasharray="6.53408132"/><g transform="translate(213.92234735393876,274.268063407) translate(-213.92234735393876,-274.268063407)"><path fill="black" stroke="none" paint-order="stroke fill markers" d=" M 227.53501677060544 267.46172869866666 L 213.92234735393876 274.268063407 L 227.53501677060544 281.07439811533334 Z"/></g></g><g><g><rect fill="white" stroke="none" x="235.28884457843745" y="298.770868357" width="117.3342768103125" height="21.23576429"/></g><text fill="black" stroke="none" font-family="sans-serif" font-size="11pt" font-style="normal" font-weight="normal" text-decoration="normal" x="237.73912507343744" y="313.47255132699996" text-anchor="start" dominant-baseline="alphabetic" xml:space="preserve">3:insereUsuario()</text></g><g><path fill="none" stroke="black" paint-order="fill stroke markers" d=" M 213.92234735393876 320.006632647 L 360.540301229582 320.006632647" stroke-miterlimit="10" stroke-width="1.3612669416666667" stroke-dasharray=""/><g transform="translate(373.98961861324864,320.006632647) translate(-373.98961861324864,-320.006632647)"><path fill="black" stroke="none" paint-order="stroke fill markers" d=" M 360.37694919658196 313.20029793866667 L 373.98961861324864 320.006632647 L 360.37694919658196 326.81296735533334 Z"/></g></g><g><g><rect fill="white" stroke="none" x="409.6548124849153" y="344.509437597" width="110.01146186890625" height="21.23576429"/></g><text fill="black" stroke="none" font-family="sans-serif" font-size="11pt" font-style="normal" font-weight="normal" text-decoration="normal" x="412.1050929799153" y="359.21112056699997" text-anchor="start" dominant-baseline="alphabetic" xml:space="preserve">4:insereObjeto()</text></g><g><path fill="none" stroke="black" paint-order="fill stroke markers" d=" M 390.3248219132486 365.745201887 L 525.5469475418215 365.745201887" stroke-miterlimit="10" stroke-width="1.3612669416666667" stroke-dasharray=""/><g transform="translate(538.9962649254882,365.745201887) translate(-538.9962649254882,-365.745201887)"><path fill="black" stroke="none" paint-order="stroke fill markers" d=" M 525.3835955088215 358.93886717866667 L 538.9962649254882 365.745201887 L 525.3835955088215 372.55153659533335 Z"/></g></g><g><g><rect fill="white" stroke="none" x="582.8275014140156" y="390.248006837" width="57.856859818125" height="21.23576429"/></g><text fill="black" stroke="none" font-family="sans-serif" font-size="11pt" font-style="normal" font-weight="normal" text-decoration="normal" x="585.2777819090156" y="404.94968980699997" text-anchor="start" dominant-baseline="alphabetic" xml:space="preserve">5:save()</text></g><g><path fill="none" stroke="black" paint-order="fill stroke markers" d=" M 555.3314682254883 411.483771127 L 654.7310770370012 411.483771127" stroke-miterlimit="10" stroke-width="1.3612669416666667" stroke-dasharray=""/><g transform="translate(668.1803944206679,411.483771127) translate(-668.1803944206679,-411.483771127)"><path fill="black" stroke="none" paint-order="stroke fill markers" d=" M 654.5677250040012 404.6774364186667 L 668.1803944206679 411.483771127 L 654.5677250040012 418.29010583533335 Z"/></g></g><g><g><rect fill="white" stroke="none" x="703.8455882923346" y="435.986576077" width="118.15748848023438" height="21.23576429"/></g><text fill="black" stroke="none" font-family="sans-serif" font-size="11pt" font-style="normal" font-weight="normal" text-decoration="normal" x="706.2958687873346" y="450.688259047" text-anchor="start" dominant-baseline="alphabetic" xml:space="preserve">6:executeQuery()</text></g><g><path fill="none" stroke="black" paint-order="fill stroke markers" d=" M 684.515597720668 457.222340367 L 827.8837499605689 457.222340367" stroke-miterlimit="10" stroke-width="1.3612669416666667" stroke-dasharray=""/><g transform="translate(841.3330673442356,457.222340367) translate(-841.3330673442356,-457.222340367)"><path fill="black" stroke="none" paint-order="stroke fill markers" d=" M 827.7203979275689 450.4160056586667 L 841.3330673442356 457.222340367 L 827.7203979275689 464.02867507533335 Z"/></g></g><g><g><rect fill="white" stroke="none" x="756.3902512124517" y="481.725145317" width="4.90056099" height="21.23576429"/></g><text fill="black" stroke="none" font-family="sans-serif" font-size="11pt" font-style="normal" font-weight="normal" text-decoration="normal" x="758.8405317074518" y="496.426828287" text-anchor="start" dominant-baseline="alphabetic" xml:space="preserve"></text></g><g><path fill="none" stroke="black" paint-order="fill stroke markers" d=" M 841.3330673442356 502.960909607 L 689.7973134543346 502.960909607" stroke-miterlimit="10" stroke-width="1.3612669416666667" stroke-dasharray="6.53408132"/><g transform="translate(676.3479960706679,502.960909607) translate(-676.3479960706679,-502.960909607)"><path fill="black" stroke="none" paint-order="stroke fill markers" d=" M 689.9606654873346 496.1545748986667 L 676.3479960706679 502.960909607 L 689.9606654873346 509.76724431533336 Z"/></g></g><g><g><rect fill="white" stroke="none" x="609.3056508280781" y="527.463714557" width="4.90056099" height="21.23576429"/></g><text fill="black" stroke="none" font-family="sans-serif" font-size="11pt" font-style="normal" font-weight="normal" text-decoration="normal" x="611.7559313230781" y="542.165397527" text-anchor="start" dominant-baseline="alphabetic" xml:space="preserve"></text></g><g><path fill="none" stroke="black" paint-order="fill stroke markers" d=" M 676.3479960706679 548.699478847 L 560.6131839591549 548.699478847" stroke-miterlimit="10" stroke-width="1.3612669416666667" stroke-dasharray="6.53408132"/><g transform="translate(547.1638665754882,548.699478847) translate(-547.1638665754882,-548.699478847)"><path fill="black" stroke="none" paint-order="stroke fill markers" d=" M 560.7765359921549 541.8931441386667 L 547.1638665754882 548.699478847 L 560.7765359921549 555.5058135553334 Z"/></g></g><g><g><rect fill="white" stroke="none" x="462.2102629243684" y="573.202283797" width="4.90056099" height="21.23576429"/></g><text fill="black" stroke="none" font-family="sans-serif" font-size="11pt" font-style="normal" font-weight="normal" text-decoration="normal" x="464.6605434193684" y="587.9039667669999" text-anchor="start" dominant-baseline="alphabetic" xml:space="preserve"></text></g><g><path fill="none" stroke="black" paint-order="fill stroke markers" d=" M 547.1638665754882 594.438048087 L 395.6065376469153 594.438048087" stroke-miterlimit="10" stroke-width="1.3612669416666667" stroke-dasharray="6.53408132"/><g transform="translate(382.15722026324863,594.438048087) translate(-382.15722026324863,-594.438048087)"><path fill="black" stroke="none" paint-order="stroke fill markers" d=" M 395.7698896799153 587.6317133786666 L 382.15722026324863 594.438048087 L 395.7698896799153 601.2443827953333 Z"/></g></g><g><g><rect fill="white" stroke="none" x="291.50570248859367" y="618.9408530369999" width="4.90056099" height="21.23576429"/></g><text fill="black" stroke="none" font-family="sans-serif" font-size="11pt" font-style="normal" font-weight="normal" text-decoration="normal" x="293.9559829835937" y="633.6425360069999" text-anchor="start" dominant-baseline="alphabetic" xml:space="preserve"></text></g><g><path fill="none" stroke="black" paint-order="fill stroke markers" d=" M 382.15722026324863 640.1766173269999 L 219.20406308760545 640.1766173269999" stroke-miterlimit="10" stroke-width="1.3612669416666667" stroke-dasharray="6.53408132"/><g transform="translate(205.75474570393877,640.1766173269999) translate(-205.75474570393877,-640.1766173269999)"><path fill="black" stroke="none" paint-order="stroke fill markers" d=" M 219.36741512060544 633.3702826186666 L 205.75474570393877 640.1766173269999 L 219.36741512060544 646.9829520353333 Z"/></g></g><g><g><rect fill="white" stroke="none" x="68.2600272456901" y="664.6794222769998" width="102.65997566285156" height="21.23576429"/></g><text fill="black" stroke="none" font-family="sans-serif" font-size="11pt" font-style="normal" font-weight="normal" text-decoration="normal" x="70.7103077406901" y="679.3811052469998" text-anchor="start" dominant-baseline="alphabetic" xml:space="preserve">sucessorerror</text></g><g><path fill="none" stroke="black" paint-order="fill stroke markers" d=" M 205.75474570393877 685.9151865669999 L 46.87460183395964 685.9151865669999" stroke-miterlimit="10" stroke-width="1.3612669416666667" stroke-dasharray="6.53408132"/><g transform="translate(33.42528445029297,685.9151865669999) translate(-33.42528445029297,-685.9151865669999)"><path fill="black" stroke="none" paint-order="stroke fill markers" d=" M 47.03795386695964 679.1088518586665 L 33.42528445029297 685.9151865669999 L 47.03795386695964 692.7215212753332 Z"/></g></g></g><g/><g/><g/><g/><g/><g/></g></svg>