<svg version="1.1" xmlns="http://www.w3.org/2000/svg" xmlns:xlink="http://www.w3.org/1999/xlink" width="890" height="697"><desc>title%20Delete-Usuario%0A%0Aactor%20Usuario%0Aparticipant%20Controller%0Aparticipant%20Service%0Aparticipant%20ServiceGeral%0Aparticipant%20Repository%0Adatabase%20BD%0A%0Aactivate%20Usuario%0AUsuario%20-%3E%20Controller%3A%201%3AdeletaUsuario()%0Adeactivate%20Usuario%0A%0Aactivate%20Controller%0AController%20-%3E%20Service%3A%202%3AfabricaUsuario()%0AService%20--%3EController%3A%20returnUsuario%0AController%20-%3EService%3A%203%3AdeletaUsuario()%0Adeactivate%20Controller%0A%0Aactivate%20Service%0AService%20-%3E%20ServiceGeral%3A%204%3AdeletaObjeto()%0Adeactivate%20Service%0A%0Aactivate%20ServiceGeral%0AServiceGeral%20-%3E%20Repository%3A%205%3Adelete()%0Adeactivate%20ServiceGeral%0A%0Aactivate%20Repository%0ARepository%20-%3EBD%3A6%3AexecuteQuery()%0Adeactivate%20Repository%0A%0Aactivate%20BD%0ABD%20--%3ERepository%3A%0Adeactivate%20BD%0A%0ARepository%20--%3E%20ServiceGeral%3A%0AServiceGeral%20--%3EService%3A%20%0AService%20--%3EController%3A</desc><defs/><g><g/><g/><g/><g/><g/><g/><g/><g/><g/><g/><g/><g><rect fill="white" stroke="none" x="0" y="0" width="890" height="697"/></g><g><text fill="black" stroke="none" font-family="sans-serif" font-size="16.5pt" font-style="normal" font-weight="normal" text-decoration="normal" x="371.8198970937975" y="24.50280495" text-anchor="start" dominant-baseline="alphabetic" xml:space="preserve">Delete-Usuario</text></g><g/><g><path fill="none" stroke="black" paint-order="fill stroke markers" d=" M 33.42528445029297 128.884754037 L 33.42528445029297 697.3498288769999" stroke-miterlimit="10" stroke-width="1.3612669416666667" stroke-dasharray="12.565541,5.445067766666667"/><path fill="none" stroke="black" paint-order="fill stroke markers" d=" M 205.76907370686845 128.884754037 L 205.76907370686845 697.3498288769999" stroke-miterlimit="10" stroke-width="1.3612669416666667" stroke-dasharray="12.565541,5.445067766666667"/><path fill="none" stroke="black" paint-order="fill stroke markers" d=" M 382.1715482661783 128.884754037 L 382.1715482661783 697.3498288769999" stroke-miterlimit="10" stroke-width="1.3612669416666667" stroke-dasharray="12.565541,5.445067766666667"/><path fill="none" stroke="black" paint-order="fill stroke markers" d=" M 547.1925225813476 128.884754037 L 547.1925225813476 697.3498288769999" stroke-miterlimit="10" stroke-width="1.3612669416666667" stroke-dasharray="12.565541,5.445067766666667"/><path fill="none" stroke="black" paint-order="fill stroke markers" d=" M 676.3766520765273 128.884754037 L 676.3766520765273 697.3498288769999" stroke-miterlimit="10" stroke-width="1.3612669416666667" stroke-dasharray="12.565541,5.445067766666667"/><path fill="none" stroke="black" paint-order="fill stroke markers" d=" M 849.529325000095 128.884754037 L 849.529325000095 697.3498288769999" stroke-miterlimit="10" stroke-width="1.3612669416666667" stroke-dasharray="12.565541,5.445067766666667"/></g><g><g><path fill="white" stroke="black" paint-order="fill stroke markers" d=" M 42.73635033129297 59.786844078 A 9.311065881 9.311065881 0 1 1 42.73634567576042 59.77753301367084 M 33.42528445029297 69.097909959 L 33.42528445029297 89.026857985 M 21.66393807429297 76.285399411 L 45.18663082629297 76.285399411 M 33.42528445029297 89.026857985 L 21.66393807429297 107.648989747 M 33.42528445029297 89.026857985 L 45.18663082629297 107.648989747" stroke-miterlimit="10" stroke-width="2.7769845610000004" stroke-dasharray=""/></g><g><g/><text fill="black" stroke="none" font-family="sans-serif" font-size="11pt" font-style="normal" font-weight="normal" text-decoration="normal" x="8.167601650000002" y="123.98419304699999" text-anchor="start" dominant-baseline="alphabetic" xml:space="preserve">Usuario</text></g><path fill="none" stroke="none"/><g><path fill="white" stroke="black" paint-order="fill stroke markers" d=" M 156.27016297744268 84.779705127 L 255.26798443629426 84.779705127 L 255.26798443629426 128.884754037 L 156.27016297744268 128.884754037 L 156.27016297744268 84.779705127 Z" stroke-miterlimit="10" stroke-width="2.613632528" stroke-dasharray=""/></g><g><g/><text fill="black" stroke="none" font-family="sans-serif" font-size="11pt" font-style="normal" font-weight="normal" text-decoration="normal" x="173.99385855794267" y="112.549550737" text-anchor="start" dominant-baseline="alphabetic" xml:space="preserve">Controller</text></g><path fill="none" stroke="none"/><g><path fill="white" stroke="black" paint-order="fill stroke markers" d=" M 340.00620992444783 84.779705127 L 424.3368866079088 84.779705127 L 424.3368866079088 128.884754037 L 340.00620992444783 128.884754037 L 340.00620992444783 84.779705127 Z" stroke-miterlimit="10" stroke-width="2.613632528" stroke-dasharray=""/></g><g><g/><text fill="black" stroke="none" font-family="sans-serif" font-size="11pt" font-style="normal" font-weight="normal" text-decoration="normal" x="357.72990550494785" y="112.549550737" text-anchor="start" dominant-baseline="alphabetic" xml:space="preserve">Service</text></g><path fill="none" stroke="none"/><g><path fill="white" stroke="black" paint-order="fill stroke markers" d=" M 487.1030661976249 84.779705127 L 607.2819789650703 84.779705127 L 607.2819789650703 128.884754037 L 487.1030661976249 128.884754037 L 487.1030661976249 84.779705127 Z" stroke-miterlimit="10" stroke-width="2.613632528" stroke-dasharray=""/></g><g><g/><text fill="black" stroke="none" font-family="sans-serif" font-size="11pt" font-style="normal" font-weight="normal" text-decoration="normal" x="504.82676177812493" y="112.549550737" text-anchor="start" dominant-baseline="alphabetic" xml:space="preserve">ServiceGeral</text></g><path fill="none" stroke="none"/><g><path fill="white" stroke="black" paint-order="fill stroke markers" d=" M 623.6171822650703 84.779705127 L 729.1361218879844 84.779705127 L 729.1361218879844 128.884754037 L 623.6171822650703 128.884754037 L 623.6171822650703 84.779705127 Z" stroke-miterlimit="10" stroke-width="2.613632528" stroke-dasharray=""/></g><g><g/><text fill="black" stroke="none" font-family="sans-serif" font-size="11pt" font-style="normal" font-weight="normal" text-decoration="normal" x="641.3408778455703" y="112.549550737" text-anchor="start" dominant-baseline="alphabetic" xml:space="preserve">Repository</text></g><g><path fill="white" stroke="black" paint-order="fill stroke markers" d=" M 825.6799281820951 96.867755569 L 825.6799281820951 62.563828639 L 873.378721818095 62.563828639 L 873.378721818095 96.867755569" stroke-miterlimit="10" stroke-width="2.7769845610000004" stroke-dasharray=""/><path fill="white" stroke="black" paint-order="fill stroke markers" d=" M 873.378721818095 61.3713587981 L 873.3775293581913 61.47916934301662 L 873.3739520977252 61.58696910696859 L 873.36799039442 61.69474731006935 L 873.3596448444406 61.8024931745884 L 873.3489162823354 61.91019592602908 L 873.3358057809515 62.017844794206 L 873.3203146513283 62.125429014322044 L 873.3024444425657 62.232937828044854 L 873.2821969416697 62.34036048458265 L 873.2595741733735 62.44768624175929 L 873.2345783999351 62.55490436708851 L 873.2072121209111 62.66200413884712 L 873.1774780729065 62.76897484714718 L 873.1453792293014 62.87580579500701 L 873.1109187999533 62.982486299420856 L 873.0741002308765 63.08900569242717 L 873.0349272038972 63.19535332217542 L 872.9934036362854 63.30151855399125 L 872.9495336803634 63.40749077143996 L 872.90332172309 63.5132593773881 L 872.8547723856227 63.618813795063225 L 872.8038905228547 63.724143469111524 L 872.7506812229298 63.82923786665337 L 872.6951498067335 63.93408647833659 L 872.6373018273615 64.03867881938739 L 872.5771430695634 64.1430044306588 L 872.5146795491647 64.24705287967667 L 872.4499175124655 64.35081376168277 L 872.3828634356155 64.45427670067541 L 872.3135240239666 64.55743135044686 L 872.2419062114019 64.66026739561813 L 872.1680171596432 64.7627745526704 L 872.0918642575342 64.86494257097338 L 872.0134551203014 64.96676123381039 L 871.9327975887933 65.06822035939997 L 871.8498997286958 65.16930980191414 L 871.764769829726 65.27001945249287 L 871.6774164048026 65.37033924025505 L 871.5878481891954 65.47025913330548 L 871.4960741396513 65.56976913973813 L 871.402103433499 65.66885930863528 L 871.3059454677303 65.7675197310626 L 871.2076098580623 65.86574054106009 L 871.1071064379735 65.96351191662859 L 871.0044452577223 66.06082408071202 L 870.8996365833412 66.15766730217506 L 870.7926908956103 66.25403189677627 L 870.6836188890094 66.3499082281365 L 870.5724314706481 66.4452867087025 L 870.4591397591755 66.54015780070569 L 870.3437550836686 66.63451201711595 L 870.2262889824985 66.72833992259025 L 870.1067532021776 66.82163213441623 L 869.9851596961844 66.91437932345046 L 869.861520623768 67.00657221505134 L 869.7358483487326 67.0982015900065 L 869.6081554382012 67.18925828545483 L 869.4784546613581 67.27973319580266 L 869.3467589881732 67.36961727363435 L 869.2130815881039 67.45890153061701 L 869.077435828779 67.54757703839935 L 868.9398352746612 67.6356349295045 L 868.8002936856913 67.72306639821673 L 868.6588250159119 67.80986270146201 L 868.5154434120722 67.89601515968236 L 868.370163212213 67.98151515770375 L 868.2229989442332 68.06635414559763 L 868.073965324437 68.15052363953589 L 867.9230772560621 68.2340152226393 L 867.7703498277898 68.31682054581911 L 867.6157983122355 68.39893132861202 L 867.4594381644221 68.48033936000816 L 867.3012850202338 68.56103649927225 L 867.1413546948535 68.6410146767576 L 866.9796631811803 68.72026589471311 L 866.816226648231 68.79878222808303 L 866.6510614395224 68.87655582529945 L 866.4841840714381 68.95357890906746 L 866.3156112315756 69.02984377714286 L 866.1453597770785 69.10534280310242 L 865.9734467329504 69.18006843710643 L 865.7998892903523 69.25401320665378 L 865.624704804884 69.32716971732913 L 865.447910794848 69.39953065354239 L 865.269524939498 69.47108877926021 L 865.0895650772707 69.54183693872967 L 864.9080492040026 69.61176805719379 L 864.7249954711297 69.68087514159897 L 864.5404221838727 69.74915128129439 L 864.3543477994065 69.81658964872294 L 864.1667909250145 69.88318350010411 L 863.9777703162279 69.94892617610824 L 863.78730487495 70.01381110252252 L 863.5954136475661 70.07783179090838 L 863.4021158230394 70.14098183925032 L 863.2074307309908 70.20325493259614 L 863.0113778397676 70.26464484368842 L 862.8139767544955 70.32514543358717 L 862.6152472151184 70.38475065228383 L 862.4152090944247 70.44345453930622 L 862.2138823960597 70.50125122431453 L 862.0112872525257 70.55813492768844 L 861.8074439231679 70.61409996110503 L 861.6023727921496 70.66914072810756 L 861.3960943664129 70.72325172466522 L 861.1886292736285 70.77642753972344 L 860.9799982601328 70.82866285574504 L 860.7702221888534 70.87995244924193 L 860.5593220372224 70.9302911912975 L 860.3473188950793 70.9796740480795 L 860.1342339625617 71.0280960813434 L 859.9200885479853 71.07555244892625 L 859.704904065713 71.12203840523081 L 859.4887020340137 71.16754930170019 L 859.2715040729106 71.21208058728268 L 859.0533319020186 71.25562780888683 L 858.8342073383731 71.29818661182675 L 858.6141522942477 71.33975274025764 L 858.3931887749636 71.38032203760127 L 858.1713388766887 71.41989044696174 L 857.9486247842276 71.45845401153106 L 857.7250687688041 71.49600887498494 L 857.5006931858337 71.5325512818683 L 857.2755204726874 71.56807757797091 L 857.049573146449 71.60258421069277 L 856.8228738016628 71.63606772939937 L 856.5954451080744 71.66852478576672 L 856.3673098083635 71.69995213411627 L 856.1384907158703 71.73034663173934 L 855.9090107123129 71.7597052392115 L 855.6788927455009 71.78802502069648 L 855.4481598270388 71.81530314423973 L 855.2168350300265 71.84153688205163 L 854.9849414867506 71.86672361078024 L 854.7525023863725 71.8908608117737 L 854.5195409726084 71.913946071332 L 854.2860805414055 71.93597708094846 L 854.0521444386125 71.95695163754044 L 853.8177560576445 71.97686764366978 L 853.5829388371445 71.99572310775245 L 853.3477162586389 72.01351614425778 L 853.1121118441893 72.03024497389691 L 852.876149154041 72.04590792380084 L 852.6398517842663 72.06050342768764 L 852.4032433644053 72.07403002601906 L 852.1663475551027 72.08648636614654 L 851.9291880457422 72.09787120244648 L 851.691788552077 72.1081833964447 L 851.4541728138586 72.11742191693043 L 851.2163645924629 72.12558584005929 L 850.9783876685138 72.13267434944576 L 850.7402658395055 72.13868673624485 L 850.5020229174223 72.14362239922286 L 850.263682726358 72.14748084481762 L 850.025269100133 72.1502616871878 L 849.7868058799112 72.15196464825142 L 849.5483169118161 72.15258955771385 L 849.3098260445455 72.15213635308466 L 849.0713571269877 72.15060507968391 L 848.8329340058355 72.14799589063767 L 848.5945805232025 72.1443090468627 L 848.3563205142381 72.13954491704027 L 848.1181778047448 72.1337039775794 L 847.8801762087952 72.12678681256918 L 847.6423395263504 72.11879411372033 L 847.4046915408804 72.10972668029609 L 847.1672560169859 72.09958541903224 L 846.9300566980212 72.08837134404646 L 846.6931173037208 72.07608557673689 L 846.4564615278265 72.06272934567005 L 846.2201130357187 72.04830398645788 L 845.9840954620496 72.0328109416243 L 845.74843240838 72.01625176046089 L 845.5131474408189 71.99862809887196 L 845.2782640876669 71.97994171920898 L 845.0438058370636 71.96019449009434 L 844.8097961346388 71.9393883862345 L 844.5762583811673 71.91752548822251 L 844.3432159302305 71.89460798232996 L 844.1106920858788 71.87063816028832 L 843.8787101003029 71.84561841905983 L 843.6472931715083 71.81955126059778 L 843.4164644409948 71.79243929159627 L 843.1862469914432 71.7642852232296 L 842.9566638444066 71.73509187088118 L 842.7277379580083 71.7048621538619 L 842.4994922246464 71.67359909511825 L 842.2719494687037 71.64130582093009 L 842.0451324442664 71.6079855605979 L 841.819063832848 71.57364164611994 L 841.593766241121 71.53827751185906 L 841.3692621986569 71.50189669419922 L 841.145574155673 71.46450283119185 L 840.9227244807871 71.42609966219209 L 840.700735458781 71.38669102748484 L 840.4796292883719 71.34628086790075 L 840.2594280799925 71.30487322442208 L 840.0401538535804 71.26247223777868 L 839.8218285363752 71.21908214803388 L 839.6044739607268 71.17470729416048 L 839.3881118619117 71.12935211360693 L 839.1727638759594 71.08302114185344 L 838.9584515374892 71.0357190119586 L 838.745196277556 70.987450454096 L 838.5330194215086 70.93822029508118 L 838.3219421868553 70.88803345788901 L 838.1119856811439 70.8368949611614 L 837.90317089985 70.7848099187054 L 837.6955187242777 70.73178353898187 L 837.4890499194715 70.67782112458457 L 837.2837851321399 70.62292807170999 L 837.0797448885904 70.56710986961765 L 836.8769495926774 70.51037210008127 L 836.6754195237617 70.4527204368305 L 836.475174834682 70.39416064498364 L 836.2762355497404 70.33469858047107 L 836.0786215626996 70.27434018944969 L 835.8823526347937 70.2130915077083 L 835.6874483927519 70.15095866006402 L 835.493928326836 70.08794785974987 L 835.3018117888912 70.02406540779336 L 835.1111179904115 69.95931769238642 L 834.9218660006175 69.89371118824668 L 834.7340747445505 69.82725245596986 L 834.5477630011799 69.7599481413738 L 834.3629494015245 69.69180497483389 L 834.1796524267904 69.62282977060998 L 833.9978904065222 69.55302942616503 L 833.8176815167707 69.4824109214753 L 833.6390437782744 69.41098131833243 L 833.4619950546585 69.3387477596372 L 833.2865530506476 69.26571746868528 L 833.1127353102962 69.19189774844492 L 832.9405592152333 69.1172959808266 L 832.7700419829249 69.04191962594494 L 832.6012006649523 68.96577622137262 L 832.4340521453064 68.88887338138663 L 832.2686131387001 68.81121879620689 L 832.1049001888958 68.73282023122718 L 831.9429296670526 68.6536855262387 L 831.7827177700873 68.573822594646 L 831.6242805190561 68.49323942267567 L 831.4676337575523 68.41194406857777 L 831.3127931501215 68.32994466181995 L 831.1597741806952 68.24724940227456 L 831.0085921510429 68.16386655939866 L 830.8592621792416 68.07980447140702 L 830.711799198164 67.99507154443839 L 830.5662179539855 67.90967625171488 L 830.4225330047091 67.8236271326946 L 830.2807587187099 67.73693279221771 L 830.1409092732985 67.64960189964606 L 830.0029986533027 67.56164318799608 L 829.8670406496697 67.47306545306569 L 829.7330488580866 67.38387755255452 L 829.6010366776209 67.29408840517834 L 829.4710173093805 67.20370698977703 L 829.343003755194 67.11274234441683 L 829.2170088163101 67.02120356548647 L 829.0930450921178 66.92909980678756 L 828.9711249788861 66.83644027861922 L 828.8512606685247 66.74323424685704 L 828.7334641473648 66.64949103202653 L 828.6177471949603 66.55522000837107 L 828.5041213829101 66.46043060291444 L 828.3925980737007 66.3651322945182 L 828.28318841957 66.2693346129338 L 828.1759033613923 66.17304713784955 L 828.070753627584 66.07627949793272 L 827.967749733031 65.97904136986665 L 827.8669019780367 65.88134247738313 L 827.7682204472926 65.78319259028999 L 827.6717150088697 65.68460152349414 L 827.5773953132312 65.58557913602012 L 827.4852707922682 65.48613533002413 L 827.395350658356 65.38628004980393 L 827.3076439034331 65.2860232808043 L 827.2221592981018 65.18537504861862 L 827.1389053907516 65.08434541798623 L 827.0578905067035 64.982944491786 L 826.9791227473787 64.88118241002603 L 826.9026099894875 64.77906934882972 L 826.8283598842416 64.67661551941809 L 826.7563798565901 64.5738311670887 L 826.6866771044754 64.47072657019112 L 826.6192585981149 64.36731203909913 L 826.5541310793029 64.26359791517966 L 826.491301060737 64.15959456975868 L 826.4307748253668 64.05531240308405 L 826.3725584257653 63.95076184328555 L 826.3166576835241 63.84595334533201 L 826.2630781886706 63.74089738998592 L 826.2118252991098 63.63560448275524 L 826.162904140088 63.530085152842965 L 826.1163196036802 63.42434995209415 L 826.0720763483013 63.318409453940745 L 826.0301787982398 63.2122742523443 L 825.9906311432161 63.105954960736526 L 825.9534373379624 62.99946221095797 L 825.9186011018286 62.892806652194885 L 825.8861259184089 62.78599894991426 L 825.8560150351949 62.679049784797314 L 825.8282714632496 62.57196985167143 L 825.8028979769073 62.464769858440704 L 825.7798971134953 62.357460525015114 L 825.7592711730808 62.25005258223858 L 825.7410222182407 62.14255677081588 L 825.7251520738553 62.03498384023857 L 825.7116623269258 61.92734454771006 L 825.7005543264155 61.81964965706991 L 825.6918291831155 61.71190993771744 L 825.6854877695325 61.6041361635348 L 825.6815307198029 61.49633911180959 L 825.6799584296282 61.38852956215717 L 825.6807710562362 61.28071829544265 L 825.6839685183647 61.172916092702856 L 825.6895504962704 61.06513373406823 L 825.69751643176 60.957381997684834 L 825.7078655282468 60.84967165863649 L 825.7205967508296 60.74201348786736 L 825.7357088263967 60.6344182511048 L 825.7532002437533 60.526896707782825 L 825.7730692537721 60.41945960996616 L 825.7953138695688 60.31211770127506 L 825.8199318667002 60.204881715810956 L 825.8469207833872 60.097762377083015 L 825.8762779207606 59.99077039693585 L 825.9080003431311 59.88391647447831 L 825.942084878283 59.7772112950136 L 825.978528117791 59.67066552897075 L 826.0173264173618 59.56428983083758 L 826.0584758971975 59.45809483809524 L 826.1019724423845 59.35209117015452 L 826.1478117033046 59.24628942729389 L 826.1959890960698 59.14070018959944 L 826.246499802981 59.03533401590697 L 826.2993387730096 58.93020144274604 L 826.3545007223028 58.82531298328635 L 826.4119801347114 58.72067912628645 L 826.4717712623421 58.61631033504484 L 826.533868126132 58.51221704635366 L 826.5982645164465 58.40840966945505 L 826.6649539937004 58.30489858500019 L 826.7339298890012 58.20169414401126 L 826.805185304817 58.098806666846365 L 826.8787131156656 57.996246442167475 L 826.9545059688272 57.894023725911595 L 827.0325562850796 57.79214874026516 L 827.1128562594564 57.69063167264185 L 827.1953978620268 57.58948267466382 L 827.2801728386995 57.488711861146584 L 827.3671727120475 57.38832930908751 L 827.4563887821558 57.28834505665816 L 827.547812127492 57.18876910220045 L 827.6414336057975 57.08961140322686 L 827.7372438550025 56.99088187542464 L 827.8352332941621 56.8925903916643 L 827.935392124414 56.794746781012314 L 828.0377103299585 56.6973608277482 L 828.1421776790603 56.60044227038614 L 828.2487837250718 56.5040008007011 L 828.357517807477 56.40804606275968 L 828.4683690529583 56.31258765195572 L 828.5813263764837 56.217635114050736 L 828.6963784824148 56.12319794421941 L 828.813513865637 56.029285586100016 L 828.9327208127094 55.93590743085011 L 829.0539874030368 55.8430728162074 L 829.1773015100612 55.75079102555599 L 829.3026508024747 55.65907128699804 L 829.4300227454523 55.56792277243099 L 829.5594046019062 55.47735459663031 L 829.6907834337583 55.387375816338135 L 829.8241461032349 55.29799542935749 L 829.9594792741802 55.20922237365261 L 830.0967694133901 55.12106552645507 L 830.2360027919649 55.033533703376136 L 830.3771654866828 54.94663565752517 L 830.5202433813919 54.86038007863435 L 830.665222168422 54.77477559218967 L 830.8120873500153 54.689830758568455 L 830.960824239776 54.60555407218327 L 831.1114179641389 54.52195396063252 L 831.2638534638573 54.439038783857704 L 831.4181154955081 54.35681683330739 L 831.5741886330168 54.27529633110813 L 831.7320572691996 54.19448542924221 L 831.8917056173245 54.114392208732454 L 832.0531177126896 54.03502467883419 L 832.2162774142201 53.95639077623426 L 832.3811684060817 53.878498364257396 L 832.5477741993126 53.801355232079885 L 832.7160781334724 53.72496909395066 L 832.8860633783077 53.649347588419886 L 833.0577129354359 53.57449827757509 L 833.2310096400444 53.50042864628498 L 833.4059361626068 53.42714610145097 L 833.582475010617 53.35465797126647 L 833.7606085303371 53.28297150448409 L 833.9403189085637 53.21209386969077 L 834.1215881744085 53.14203215459092 L 834.3043982010962 53.072793365297684 L 834.4887307077764 53.00438442563227 L 834.6745672613522 52.93681217643165 L 834.8618892783228 52.870083374864436 L 835.0506780266427 52.80420469375517 L 835.2409146275945 52.739182720917064 L 835.4325800576767 52.67502395849323 L 835.6256551505057 52.611734822306424 L 835.8201205987334 52.54932164121754 L 836.015956955977 52.48779065649267 L 836.2131446387638 52.427148021179015 L 836.41166392849 52.36739979948956 L 836.611494973392 52.3085519661967 L 836.8126177905318 52.25061040603471 L 837.0150122677954 52.19358091311133 L 837.2186581659038 52.13746919032833 L 837.4235351204366 52.08228084881122 L 837.6296226438692 52.02802140734818 L 837.8369001276211 51.974696291838114 L 838.0453468441166 51.922310834748146 L 838.2549419488578 51.87087027458034 L 838.4656644825087 51.82037975534783 L 838.6774933729918 51.770844326060484 L 838.8904074375944 51.72226894021993 L 839.1043853850875 51.674658455324284 L 839.3194058178548 51.62801763238236 L 839.535447234032 51.58235113543759 L 839.7524880296575 51.5376635311016 L 839.9705065008328 51.49395928809759 L 840.1894808458924 51.451242776813444 L 840.4093891675841 51.409518268864694 L 840.6302094752593 51.368789936667355 L 840.851919687071 51.32906185302072 L 841.0744976321829 51.29033799070003 L 841.2979210529859 51.252622222059266 L 841.522167607324 51.21591831864385 L 841.747214870729 51.18022995081354 L 841.9730403386617 51.14556068737539 L 842.1996214287637 51.11191399522683 L 842.4269354831149 51.079293239009054 L 842.654959770499 51.047701680770494 L 842.8836714886775 51.01714247964064 L 843.1130477666691 50.98761869151416 L 843.3430656670372 50.95913326874524 L 843.5737021881833 50.93168905985244 L 843.8049342666477 50.90528880923376 L 844.036738779415 50.87993515689227 L 844.2690925462274 50.85563063817208 L 844.5019723319016 50.83237768350481 L 844.7353548486532 50.81017861816654 L 844.969216758425 50.78903566204531 L 845.2035346752208 50.768950929419105 L 845.4382851674443 50.749926428744466 L 845.6734447602419 50.7319640624556 L 845.9089899378503 50.71506562677416 L 846.1448971459479 50.69923281152964 L 846.3811427940107 50.684467199990365 L 846.6177032576704 50.6707702687052 L 846.8545548810782 50.658143387355835 L 847.0916739792689 50.64658781861989 L 847.3290368405303 50.63610471804463 L 847.5666197287741 50.62669513393135 L 847.8043988859093 50.61836000723063 L 848.0423505342187 50.61110017144819 L 848.2804508787355 50.604916352561574 L 848.5186761096236 50.5998091689475 L 848.7570024045586 50.595779131320086 L 848.9954059311096 50.592826642679725 L 849.2338628491225 50.59095199827282 L 849.4723493131044 50.59015538556226 L 849.7108414746074 50.59043688420866 L 849.9493154846142 50.59179646606236 L 850.1877474959226 50.594233995166334 L 850.4261136655301 50.59774922776969 L 850.6643901570184 50.6023418123521 L 850.9025531429369 50.60801128965893 L 851.1405788071854 50.61475709274719 L 851.3784433473959 50.622578547042174 L 851.6161229773126 50.63147487040497 L 851.8535939291706 50.64144517321068 L 852.0908324560726 50.6524884584373 L 852.3278148343635 50.66460362176552 L 852.5645173660031 50.67778945168912 L 852.8009163809354 50.69204462963607 L 853.036988239456 50.70736773010048 L 853.2727093345757 50.72375722078505 L 853.5080560943813 50.74121146275439 L 853.7430049843932 50.759728710598836 L 853.977532509918 50.77930711260903 L 854.2116152183987 50.79994471096109 L 854.4452297017594 50.821639441912396 L 854.6783525987465 50.844389136007905 L 854.9109605972646 50.86819151829718 L 855.1430304367077 50.893044208561825 L 855.3745389102852 50.91894472155353 L 855.6054628673427 50.94589046724256 L 855.8357792156769 50.973878751076825 L 856.0654649238448 51.00290677425126 L 856.2944970234672 51.03297163398772 L 856.5228526115249 51.064070323825305 L 856.7505088526493 51.09619973392093 L 856.977442981406 51.129356651360375 L 857.2036323045714 51.16353776047952 L 857.4290542034017 51.198739643195935 L 857.6536861358946 51.23495877935069 L 857.8775056390443 51.27219154706035 L 858.1004903310869 51.31043422307917 L 858.3226179137389 51.349682983171405 L 858.5438661744274 51.38993390249377 L 858.7642129885105 51.43118295598788 L 858.9836363214904 51.47342601878273 L 859.2021142312168 51.51665886660727 L 859.4196248700807 51.56087717621274 L 859.6361464871995 51.60607652580503 L 859.8516574305919 51.65225239548683 L 860.0661361493432 51.69940016770967 L 860.2795611957602 51.74751512773561 L 860.4919112275161 51.79659246410874 L 860.7031650097848 51.84662726913632 L 860.913301417364 51.89761453937955 L 861.122299436788 51.949549176153894 L 861.3301381684292 52.00242598603895 L 861.5367968285875 52.0562396813978 L 861.7422547515692 52.11098488090573 L 861.9464913917532 52.16665611008844 L 862.1494863256455 52.22324780186939 L 862.3512192539221 52.28075429712656 L 862.5516700034582 52.339169845258354 L 862.7508185293458 52.398488604758626 L 862.9486449168984 52.458704643800864 L 863.145129383642 52.51981194083135 L 863.3402522812938 52.581804385171296 L 863.5339940977266 52.64467577762793 L 863.72633545892 52.708419831114405 L 863.9172571308984 52.77303017127848 L 864.1067400216535 52.83850033713999 L 864.2947651830544 52.90482378173691 L 864.4813138127415 52.97199387278003 L 864.6663672560072 53.040003893316246 L 864.8499070076615 53.108847042400164 L 865.0319147138822 53.17851643577425 L 865.2123721740503 53.24900510655722 L 865.3912613425701 53.32030600594074 L 865.5685643306739 53.39241200389429 L 865.7442634082107 53.465315889878156 L 865.918341005419 53.5390103735645 L 866.0907797146843 53.61348808556637 L 866.2615622922793 53.68874157817461 L 866.4306716600886 53.76476332610268 L 866.5980909073162 53.84154572723915 L 866.763803292177 53.91908110340788 L 866.9277922435707 53.99736170113587 L 867.0900413627387 54.07637969242858 L 867.2505344249043 54.156127175552726 L 867.4092553808952 54.236596175826456 L 867.5661883587477 54.3177786464168 L 867.721317665295 54.39966646914434 L 867.8746277877359 54.48225145529506 L 868.0261033951856 54.56552534643915 L 868.1757293402097 54.6494798152569 L 868.3234906603385 54.73410646637139 L 868.469372579563 54.81939683718802 L 868.6133605098129 54.9053423987408 L 868.7554400524151 54.99193455654518 L 868.8955969995338 55.079164651457546 L 869.033817335591 55.16702396054111 L 869.1700872386684 55.25550369793815 L 869.3043930818892 55.344595015748695 L 869.436721434781 55.43428900491518 L 869.5670590646187 55.52457669611344 L 869.695392937748 55.615449060649595 L 869.8217102208887 55.706897011362926 L 869.9459982824173 55.79891140353456 L 870.0682446936318 55.891483035801954 L 870.1884372299925 55.98460265107904 L 870.3065638723461 56.07826093748187 L 870.4226128081268 56.17244852925987 L 870.5365724325377 56.26715600773234 L 870.6484313497114 56.36237390223035 L 870.7581783738492 56.45809269104382 L 870.8658025303404 56.55430280237361 L 870.9712930568588 56.65099461528878 L 871.0746394044398 56.74815846068861 L 871.1758312385348 56.84578462226952 L 871.2748584400447 56.943863337496715 L 871.3717111063316 57.0423847985804 L 871.46637955221 57.14133915345658 L 871.558854310914 57.240716506772216 L 871.6491261350448 57.34050692087479 L 871.7371859974951 57.44070041680606 L 871.8230250923522 57.54128697529992 L 871.9066348357782 57.64225653778434 L 871.9880068668681 57.74359900738722 L 872.067133048487 57.84530424994605 L 872.1440054680825 57.94736209502132 L 872.2186164384766 58.04976233691358 L 872.2909584986346 58.15249473568397 L 872.3610244144108 58.25554901817823 L 872.4288071792719 58.35891487905398 L 872.4943000149979 58.46258198181127 L 872.5574963723598 58.566539959826216 L 872.6183899317745 58.67077841738765 L 872.6769746039369 58.77528693073668 L 872.7332445304285 58.88005504910905 L 872.7871940843037 58.985072295780256 L 872.838817870652 59.09032816911312 L 872.8881107271376 59.19581214360803 L 872.9350677245162 59.301513670955444 L 872.9796841671271 59.4074221810907 L 873.0219555933631 59.513527083251056 L 873.061877776117 59.619817767034704 L 873.0994467232036 59.72628360346185 L 873.1346586777596 59.832913946037564 L 873.167510118619 59.939698131816456 L 873.1979977606649 60.046625482468926 L 873.2261185551586 60.153685305349015 L 873.2518696900439 60.26086689456366 L 873.2752485902291 60.36815953204325 L 873.2962529178434 60.47555248861345 L 873.3148805724717 60.5830350250681 L 873.3311296913639 60.69059639324311 L 873.3449986496219 60.79822583709131 L 873.3564860603611 60.905912593758 L 873.3655907748503 61.01364589465726 L 873.3723118826255 61.12141496654876 L 873.3766487115814 61.22920903261514 L 873.378600828039 61.337017313539604 M 873.378721818095 95.6752857281 L 873.3775293581913 95.78309627301661 L 873.3739520977252 95.89089603696858 L 873.36799039442 95.99867424006935 L 873.3596448444406 96.1064201045884 L 873.3489162823354 96.21412285602908 L 873.3358057809515 96.321771724206 L 873.3203146513283 96.42935594432204 L 873.3024444425657 96.53686475804484 L 873.2821969416697 96.64428741458265 L 873.2595741733735 96.75161317175929 L 873.2345783999351 96.85883129708851 L 873.2072121209111 96.96593106884711 L 873.1774780729065 97.07290177714718 L 873.1453792293014 97.17973272500701 L 873.1109187999533 97.28641322942086 L 873.0741002308765 97.39293262242717 L 873.0349272038972 97.49928025217542 L 872.9934036362854 97.60544548399125 L 872.9495336803634 97.71141770143996 L 872.90332172309 97.8171863073881 L 872.8547723856227 97.92274072506322 L 872.8038905228547 98.02807039911151 L 872.7506812229298 98.13316479665336 L 872.6951498067335 98.23801340833658 L 872.6373018273615 98.34260574938737 L 872.5771430695634 98.4469313606588 L 872.5146795491647 98.55097980967666 L 872.4499175124655 98.65474069168278 L 872.3828634356155 98.7582036306754 L 872.3135240239666 98.86135828044685 L 872.2419062114019 98.96419432561812 L 872.1680171596432 99.0667014826704 L 872.0918642575342 99.16886950097337 L 872.0134551203014 99.27068816381038 L 871.9327975887933 99.37214728939998 L 871.8498997286958 99.47323673191414 L 871.764769829726 99.57394638249288 L 871.6774164048026 99.67426617025505 L 871.5878481891954 99.77418606330548 L 871.4960741396513 99.87369606973812 L 871.402103433499 99.97278623863527 L 871.3059454677303 100.0714466610626 L 871.2076098580623 100.1696674710601 L 871.1071064379735 100.2674388466286 L 871.0044452577223 100.36475101071201 L 870.8996365833412 100.46159423217506 L 870.7926908956103 100.55795882677627 L 870.6836188890094 100.65383515813649 L 870.5724314706481 100.74921363870249 L 870.4591397591755 100.84408473070569 L 870.3437550836686 100.93843894711594 L 870.2262889824985 101.03226685259024 L 870.1067532021776 101.12555906441622 L 869.9851596961844 101.21830625345046 L 869.861520623768 101.31049914505132 L 869.7358483487326 101.4021285200065 L 869.6081554382012 101.49318521545483 L 869.4784546613581 101.58366012580265 L 869.3467589881732 101.67354420363434 L 869.2130815881039 101.762828460617 L 869.077435828779 101.85150396839936 L 868.9398352746612 101.93956185950451 L 868.8002936856913 102.02699332821673 L 868.6588250159119 102.11378963146201 L 868.5154434120722 102.19994208968237 L 868.370163212213 102.28544208770374 L 868.2229989442332 102.37028107559762 L 868.073965324437 102.45445056953588 L 867.9230772560621 102.53794215263929 L 867.7703498277898 102.6207474758191 L 867.6157983122355 102.70285825861201 L 867.4594381644221 102.78426629000816 L 867.3012850202338 102.86496342927225 L 867.1413546948535 102.9449416067576 L 866.9796631811803 103.02419282471311 L 866.816226648231 103.10270915808303 L 866.6510614395224 103.18048275529944 L 866.4841840714381 103.25750583906745 L 866.3156112315756 103.33377070714286 L 866.1453597770785 103.4092697331024 L 865.9734467329504 103.48399536710642 L 865.7998892903523 103.55794013665377 L 865.624704804884 103.63109664732913 L 865.447910794848 103.70345758354237 L 865.269524939498 103.7750157092602 L 865.0895650772707 103.84576386872968 L 864.9080492040026 103.91569498719377 L 864.7249954711297 103.98480207159896 L 864.5404221838727 104.05307821129438 L 864.3543477994065 104.12051657872294 L 864.1667909250145 104.1871104301041 L 863.9777703162279 104.25285310610823 L 863.78730487495 104.31773803252251 L 863.5954136475661 104.38175872090837 L 863.4021158230394 104.44490876925032 L 863.2074307309908 104.50718186259614 L 863.0113778397676 104.5685717736884 L 862.8139767544955 104.62907236358716 L 862.6152472151184 104.68867758228383 L 862.4152090944247 104.7473814693062 L 862.2138823960597 104.80517815431453 L 862.0112872525257 104.86206185768845 L 861.8074439231679 104.91802689110501 L 861.6023727921496 104.97306765810755 L 861.3960943664129 105.02717865466522 L 861.1886292736285 105.08035446972343 L 860.9799982601328 105.13258978574503 L 860.7702221888534 105.18387937924192 L 860.5593220372224 105.23421812129749 L 860.3473188950793 105.28360097807949 L 860.1342339625617 105.33202301134341 L 859.9200885479853 105.37947937892625 L 859.704904065713 105.4259653352308 L 859.4887020340137 105.4714762317002 L 859.2715040729106 105.51600751728267 L 859.0533319020186 105.55955473888682 L 858.8342073383731 105.60211354182675 L 858.6141522942477 105.64367967025764 L 858.3931887749636 105.68424896760128 L 858.1713388766887 105.72381737696173 L 857.9486247842276 105.76238094153106 L 857.7250687688041 105.79993580498493 L 857.5006931858337 105.83647821186828 L 857.2755204726874 105.8720045079709 L 857.049573146449 105.90651114069276 L 856.8228738016628 105.93999465939936 L 856.5954451080744 105.97245171576672 L 856.3673098083635 106.00387906411626 L 856.1384907158703 106.03427356173933 L 855.9090107123129 106.0636321692115 L 855.6788927455009 106.09195195069648 L 855.4481598270388 106.11923007423972 L 855.2168350300265 106.14546381205162 L 854.9849414867506 106.17065054078024 L 854.7525023863725 106.1947877417737 L 854.5195409726084 106.21787300133201 L 854.2860805414055 106.23990401094846 L 854.0521444386125 106.26087856754044 L 853.8177560576445 106.28079457366978 L 853.5829388371445 106.29965003775246 L 853.3477162586389 106.31744307425777 L 853.1121118441893 106.3341719038969 L 852.876149154041 106.34983485380084 L 852.6398517842663 106.36443035768762 L 852.4032433644053 106.37795695601905 L 852.1663475551027 106.39041329614655 L 851.9291880457422 106.40179813244647 L 851.691788552077 106.4121103264447 L 851.4541728138586 106.42134884693041 L 851.2163645924629 106.42951277005928 L 850.9783876685138 106.43660127944577 L 850.7402658395055 106.44261366624485 L 850.5020229174223 106.44754932922287 L 850.263682726358 106.45140777481762 L 850.025269100133 106.45418861718778 L 849.7868058799112 106.45589157825142 L 849.5483169118161 106.45651648771386 L 849.3098260445455 106.45606328308465 L 849.0713571269877 106.4545320096839 L 848.8329340058355 106.45192282063768 L 848.5945805232025 106.44823597686269 L 848.3563205142381 106.44347184704026 L 848.1181778047448 106.43763090757939 L 847.8801762087952 106.43071374256917 L 847.6423395263504 106.42272104372033 L 847.4046915408804 106.41365361029608 L 847.1672560169859 106.40351234903224 L 846.9300566980212 106.39229827404645 L 846.6931173037208 106.38001250673689 L 846.4564615278265 106.36665627567004 L 846.2201130357187 106.35223091645787 L 845.9840954620496 106.33673787162431 L 845.74843240838 106.32017869046089 L 845.5131474408189 106.30255502887195 L 845.2782640876669 106.28386864920897 L 845.0438058370636 106.26412142009434 L 844.8097961346388 106.2433153162345 L 844.5762583811673 106.22145241822251 L 844.3432159302305 106.19853491232995 L 844.1106920858788 106.17456509028831 L 843.8787101003029 106.14954534905984 L 843.6472931715083 106.12347819059778 L 843.4164644409948 106.09636622159626 L 843.1862469914432 106.06821215322961 L 842.9566638444066 106.03901880088118 L 842.7277379580083 106.0087890838619 L 842.4994922246464 105.97752602511825 L 842.2719494687037 105.94523275093007 L 842.0451324442664 105.91191249059789 L 841.819063832848 105.87756857611994 L 841.593766241121 105.84220444185907 L 841.3692621986569 105.8058236241992 L 841.145574155673 105.76842976119184 L 840.9227244807871 105.73002659219209 L 840.700735458781 105.69061795748485 L 840.4796292883719 105.65020779790075 L 840.2594280799925 105.60880015442207 L 840.0401538535804 105.56639916777867 L 839.8218285363752 105.52300907803387 L 839.6044739607268 105.47863422416049 L 839.3881118619117 105.43327904360692 L 839.1727638759594 105.38694807185344 L 838.9584515374892 105.33964594195861 L 838.745196277556 105.291377384096 L 838.5330194215086 105.24214722508117 L 838.3219421868553 105.19196038788901 L 838.1119856811439 105.1408218911614 L 837.90317089985 105.08873684870541 L 837.6955187242777 105.03571046898188 L 837.4890499194715 104.98174805458457 L 837.2837851321399 104.92685500170998 L 837.0797448885904 104.87103679961766 L 836.8769495926774 104.81429903008126 L 836.6754195237617 104.75664736683049 L 836.475174834682 104.69808757498365 L 836.2762355497404 104.63862551047107 L 836.0786215626996 104.57826711944969 L 835.8823526347937 104.51701843770829 L 835.6874483927519 104.45488559006402 L 835.493928326836 104.39187478974986 L 835.3018117888912 104.32799233779335 L 835.1111179904115 104.26324462238642 L 834.9218660006175 104.19763811824667 L 834.7340747445505 104.13117938596986 L 834.5477630011799 104.0638750713738 L 834.3629494015245 103.99573190483389 L 834.1796524267904 103.92675670060999 L 833.9978904065222 103.85695635616503 L 833.8176815167707 103.7863378514753 L 833.6390437782744 103.71490824833242 L 833.4619950546585 103.64267468963719 L 833.2865530506476 103.56964439868527 L 833.1127353102962 103.4958246784449 L 832.9405592152333 103.4212229108266 L 832.7700419829249 103.34584655594495 L 832.6012006649523 103.26970315137261 L 832.4340521453064 103.19280031138662 L 832.2686131387001 103.11514572620688 L 832.1049001888958 103.03674716122718 L 831.9429296670526 102.9576124562387 L 831.7827177700873 102.87774952464599 L 831.6242805190561 102.79716635267567 L 831.4676337575523 102.71587099857777 L 831.3127931501215 102.63387159181995 L 831.1597741806952 102.55117633227457 L 831.0085921510429 102.46779348939864 L 830.8592621792416 102.383731401407 L 830.711799198164 102.29899847443839 L 830.5662179539855 102.21360318171489 L 830.4225330047091 102.12755406269459 L 830.2807587187099 102.04085972221772 L 830.1409092732985 101.95352882964605 L 830.0029986533027 101.86557011799609 L 829.8670406496697 101.77699238306569 L 829.7330488580866 101.68780448255453 L 829.6010366776209 101.59801533517833 L 829.4710173093805 101.50763391977702 L 829.343003755194 101.41666927441683 L 829.2170088163101 101.32513049548646 L 829.0930450921178 101.23302673678755 L 828.9711249788861 101.14036720861921 L 828.8512606685247 101.04716117685703 L 828.7334641473648 100.95341796202653 L 828.6177471949603 100.85914693837105 L 828.5041213829101 100.76435753291443 L 828.3925980737007 100.66905922451821 L 828.28318841957 100.5732615429338 L 828.1759033613923 100.47697406784954 L 828.070753627584 100.3802064279327 L 827.967749733031 100.28296829986664 L 827.8669019780367 100.18526940738312 L 827.7682204472926 100.08711952028997 L 827.6717150088697 99.98852845349413 L 827.5773953132312 99.8895060660201 L 827.4852707922682 99.79006226002413 L 827.395350658356 99.69020697980392 L 827.3076439034331 99.5899502108043 L 827.2221592981018 99.48930197861863 L 827.1389053907516 99.38827234798623 L 827.0578905067035 99.28687142178599 L 826.9791227473787 99.18510934002603 L 826.9026099894875 99.08299627882971 L 826.8283598842416 98.98054244941808 L 826.7563798565901 98.87775809708869 L 826.6866771044754 98.7746535001911 L 826.6192585981149 98.67123896909912 L 826.5541310793029 98.56752484517966 L 826.491301060737 98.46352149975867 L 826.4307748253668 98.35923933308405 L 826.3725584257653 98.25468877328554 L 826.3166576835241 98.14988027533201 L 826.2630781886706 98.04482431998592 L 826.2118252991098 97.93953141275524 L 826.162904140088 97.83401208284296 L 826.1163196036802 97.72827688209414 L 826.0720763483013 97.62233638394075 L 826.0301787982398 97.5162011823443 L 825.9906311432161 97.40988189073651 L 825.9534373379624 97.30338914095798 L 825.9186011018286 97.19673358219488 L 825.8861259184089 97.08992587991426 L 825.8560150351949 96.9829767147973 L 825.8282714632496 96.87589678167143 L 825.8028979769073 96.7686967884407 L 825.7798971134953 96.66138745501512 L 825.7592711730808 96.55397951223858 L 825.7410222182407 96.44648370081588 L 825.7251520738553 96.33891077023856 L 825.7116623269258 96.23127147771005 L 825.7005543264155 96.1235765870699 L 825.6918291831155 96.01583686771744 L 825.6854877695325 95.90806309353479 L 825.6815307198029 95.80026604180959 L 825.6799584296282 95.69245649215716" stroke-miterlimit="10" stroke-width="2.7769845610000004" stroke-dasharray=""/></g><g><g/><text fill="black" stroke="none" font-family="sans-serif" font-size="11pt" font-style="normal" font-weight="normal" text-decoration="normal" x="839.3467917359349" y="123.98419304699999" text-anchor="start" dominant-baseline="alphabetic" xml:space="preserve">BD</text></g></g><g><path fill="white" stroke="black" paint-order="fill stroke markers" d=" M 25.25768280029297 137.052355687 L 41.59288610029297 137.052355687 L 41.59288610029297 182.790924927 L 25.25768280029297 182.790924927 L 25.25768280029297 137.052355687" stroke-miterlimit="10" stroke-width="1.3612669416666667" stroke-dasharray=""/><path fill="white" stroke="black" paint-order="fill stroke markers" d=" M 197.60147205686846 182.790924927 L 213.93667535686845 182.790924927 L 213.93667535686845 320.006632647 L 197.60147205686846 320.006632647 L 197.60147205686846 182.790924927" stroke-miterlimit="10" stroke-width="1.3612669416666667" stroke-dasharray=""/><path fill="white" stroke="black" paint-order="fill stroke markers" d=" M 374.0039466161783 320.006632647 L 390.3391499161783 320.006632647 L 390.3391499161783 365.745201887 L 374.0039466161783 365.745201887 L 374.0039466161783 320.006632647" stroke-miterlimit="10" stroke-width="1.3612669416666667" stroke-dasharray=""/><path fill="white" stroke="black" paint-order="fill stroke markers" d=" M 539.0249209313475 365.745201887 L 555.3601242313476 365.745201887 L 555.3601242313476 411.483771127 L 539.0249209313475 411.483771127 L 539.0249209313475 365.745201887" stroke-miterlimit="10" stroke-width="1.3612669416666667" stroke-dasharray=""/><path fill="white" stroke="black" paint-order="fill stroke markers" d=" M 668.2090504265273 411.483771127 L 684.5442537265274 411.483771127 L 684.5442537265274 457.222340367 L 668.2090504265273 457.222340367 L 668.2090504265273 411.483771127" stroke-miterlimit="10" stroke-width="1.3612669416666667" stroke-dasharray=""/><path fill="white" stroke="black" paint-order="fill stroke markers" d=" M 841.361723350095 457.222340367 L 857.6969266500951 457.222340367 L 857.6969266500951 502.960909607 L 841.361723350095 502.960909607 L 841.361723350095 457.222340367" stroke-miterlimit="10" stroke-width="1.3612669416666667" stroke-dasharray=""/><g><g><rect fill="white" stroke="none" x="60.922876671959614" y="161.555160637" width="117.34860481324219" height="21.23576429"/></g><text fill="black" stroke="none" font-family="sans-serif" font-size="11pt" font-style="normal" font-weight="normal" text-decoration="normal" x="63.373157166959615" y="176.25684360699998" text-anchor="start" dominant-baseline="alphabetic" xml:space="preserve">1:deletaUsuario()</text></g><g><path fill="none" stroke="black" paint-order="fill stroke markers" d=" M 41.59288610029297 182.790924927 L 184.15215467320178 182.790924927" stroke-miterlimit="10" stroke-width="1.3612669416666667" stroke-dasharray=""/><g transform="translate(197.60147205686846,182.790924927) translate(-197.60147205686846,-182.790924927)"><path fill="black" stroke="none" paint-order="stroke fill markers" d=" M 183.98880264020178 175.98459021866665 L 197.60147205686846 182.790924927 L 183.98880264020178 189.59725963533333 Z"/></g></g><g><g><rect fill="white" stroke="none" x="237.35046675353513" y="207.293729877" width="121.40729011597656" height="21.23576429"/></g><text fill="black" stroke="none" font-family="sans-serif" font-size="11pt" font-style="normal" font-weight="normal" text-decoration="normal" x="239.80074724853512" y="221.99541284699998" text-anchor="start" dominant-baseline="alphabetic" xml:space="preserve">2:fabricaUsuario()</text></g><g><path fill="none" stroke="black" paint-order="fill stroke markers" d=" M 213.93667535686845 228.529494167 L 368.72223088251167 228.529494167" stroke-miterlimit="10" stroke-width="1.3612669416666667" stroke-dasharray=""/><g transform="translate(382.1715482661783,228.529494167) translate(-382.1715482661783,-228.529494167)"><path fill="black" stroke="none" paint-order="stroke fill markers" d=" M 368.55887884951164 221.72315945866666 L 382.1715482661783 228.529494167 L 368.55887884951164 235.33582887533333 Z"/></g></g><g><g><rect fill="white" stroke="none" x="251.19798567443357" y="253.032299117" width="93.71225227417969" height="21.23576429"/></g><text fill="black" stroke="none" font-family="sans-serif" font-size="11pt" font-style="normal" font-weight="normal" text-decoration="normal" x="253.64826616943355" y="267.733982087" text-anchor="start" dominant-baseline="alphabetic" xml:space="preserve">returnUsuario</text></g><g><path fill="none" stroke="black" paint-order="fill stroke markers" d=" M 382.1715482661783 274.268063407 L 227.38599274053513 274.268063407" stroke-miterlimit="10" stroke-width="1.3612669416666667" stroke-dasharray="6.53408132"/><g transform="translate(213.93667535686845,274.268063407) translate(-213.93667535686845,-274.268063407)"><path fill="black" stroke="none" paint-order="stroke fill markers" d=" M 227.54934477353513 267.46172869866666 L 213.93667535686845 274.268063407 L 227.54934477353513 281.07439811533334 Z"/></g></g><g><g><rect fill="white" stroke="none" x="235.2960085799023" y="298.770868357" width="117.34860481324219" height="21.23576429"/></g><text fill="black" stroke="none" font-family="sans-serif" font-size="11pt" font-style="normal" font-weight="normal" text-decoration="normal" x="237.74628907490228" y="313.47255132699996" text-anchor="start" dominant-baseline="alphabetic" xml:space="preserve">3:deletaUsuario()</text></g><g><path fill="none" stroke="black" paint-order="fill stroke markers" d=" M 213.93667535686845 320.006632647 L 360.5546292325117 320.006632647" stroke-miterlimit="10" stroke-width="1.3612669416666667" stroke-dasharray=""/><g transform="translate(374.0039466161783,320.006632647) translate(-374.0039466161783,-320.006632647)"><path fill="black" stroke="none" paint-order="stroke fill markers" d=" M 360.39127719951165 313.20029793866667 L 374.0039466161783 320.006632647 L 360.39127719951165 326.81296735533334 Z"/></g></g><g><g><rect fill="white" stroke="none" x="409.66914048784497" y="344.509437597" width="110.02578987183594" height="21.23576429"/></g><text fill="black" stroke="none" font-family="sans-serif" font-size="11pt" font-style="normal" font-weight="normal" text-decoration="normal" x="412.119420982845" y="359.21112056699997" text-anchor="start" dominant-baseline="alphabetic" xml:space="preserve">4:deletaObjeto()</text></g><g><path fill="none" stroke="black" paint-order="fill stroke markers" d=" M 390.3391499161783 365.745201887 L 525.5756035476809 365.745201887" stroke-miterlimit="10" stroke-width="1.3612669416666667" stroke-dasharray=""/><g transform="translate(539.0249209313475,365.745201887) translate(-539.0249209313475,-365.745201887)"><path fill="black" stroke="none" paint-order="stroke fill markers" d=" M 525.4122515146809 358.93886717866667 L 539.0249209313475 365.745201887 L 525.4122515146809 372.55153659533335 Z"/></g></g><g><g><rect fill="white" stroke="none" x="578.3679677226094" y="390.248006837" width="66.83323921265625" height="21.23576429"/></g><text fill="black" stroke="none" font-family="sans-serif" font-size="11pt" font-style="normal" font-weight="normal" text-decoration="normal" x="580.8182482176094" y="404.94968980699997" text-anchor="start" dominant-baseline="alphabetic" xml:space="preserve">5:delete()</text></g><g><path fill="none" stroke="black" paint-order="fill stroke markers" d=" M 555.3601242313476 411.483771127 L 654.7597330428606 411.483771127" stroke-miterlimit="10" stroke-width="1.3612669416666667" stroke-dasharray=""/><g transform="translate(668.2090504265273,411.483771127) translate(-668.2090504265273,-411.483771127)"><path fill="black" stroke="none" paint-order="stroke fill markers" d=" M 654.5963810098606 404.6774364186667 L 668.2090504265273 411.483771127 L 654.5963810098606 418.29010583533335 Z"/></g></g><g><g><rect fill="white" stroke="none" x="703.874244298194" y="435.986576077" width="118.15748848023438" height="21.23576429"/></g><text fill="black" stroke="none" font-family="sans-serif" font-size="11pt" font-style="normal" font-weight="normal" text-decoration="normal" x="706.324524793194" y="450.688259047" text-anchor="start" dominant-baseline="alphabetic" xml:space="preserve">6:executeQuery()</text></g><g><path fill="none" stroke="black" paint-order="fill stroke markers" d=" M 684.5442537265274 457.222340367 L 827.9124059664283 457.222340367" stroke-miterlimit="10" stroke-width="1.3612669416666667" stroke-dasharray=""/><g transform="translate(841.361723350095,457.222340367) translate(-841.361723350095,-457.222340367)"><path fill="black" stroke="none" paint-order="stroke fill markers" d=" M 827.7490539334283 450.4160056586667 L 841.361723350095 457.222340367 L 827.7490539334283 464.02867507533335 Z"/></g></g><g><g><rect fill="white" stroke="none" x="756.4189072183111" y="481.725145317" width="4.90056099" height="21.23576429"/></g><text fill="black" stroke="none" font-family="sans-serif" font-size="11pt" font-style="normal" font-weight="normal" text-decoration="normal" x="758.8691877133111" y="496.426828287" text-anchor="start" dominant-baseline="alphabetic" xml:space="preserve"></text></g><g><path fill="none" stroke="black" paint-order="fill stroke markers" d=" M 841.361723350095 502.960909607 L 689.825969460194 502.960909607" stroke-miterlimit="10" stroke-width="1.3612669416666667" stroke-dasharray="6.53408132"/><g transform="translate(676.3766520765273,502.960909607) translate(-676.3766520765273,-502.960909607)"><path fill="black" stroke="none" paint-order="stroke fill markers" d=" M 689.989321493194 496.1545748986667 L 676.3766520765273 502.960909607 L 689.989321493194 509.76724431533336 Z"/></g></g><g><g><rect fill="white" stroke="none" x="609.3343068339375" y="527.463714557" width="4.90056099" height="21.23576429"/></g><text fill="black" stroke="none" font-family="sans-serif" font-size="11pt" font-style="normal" font-weight="normal" text-decoration="normal" x="611.7845873289375" y="542.165397527" text-anchor="start" dominant-baseline="alphabetic" xml:space="preserve"></text></g><g><path fill="none" stroke="black" paint-order="fill stroke markers" d=" M 676.3766520765273 548.699478847 L 560.6418399650142 548.699478847" stroke-miterlimit="10" stroke-width="1.3612669416666667" stroke-dasharray="6.53408132"/><g transform="translate(547.1925225813476,548.699478847) translate(-547.1925225813476,-548.699478847)"><path fill="black" stroke="none" paint-order="stroke fill markers" d=" M 560.8051919980143 541.8931441386667 L 547.1925225813476 548.699478847 L 560.8051919980143 555.5058135553334 Z"/></g></g><g><g><rect fill="white" stroke="none" x="462.23175492876294" y="573.202283797" width="4.90056099" height="21.23576429"/></g><text fill="black" stroke="none" font-family="sans-serif" font-size="11pt" font-style="normal" font-weight="normal" text-decoration="normal" x="464.68203542376295" y="587.9039667669999" text-anchor="start" dominant-baseline="alphabetic" xml:space="preserve"></text></g><g><path fill="none" stroke="black" paint-order="fill stroke markers" d=" M 547.1925225813476 594.438048087 L 395.620865649845 594.438048087" stroke-miterlimit="10" stroke-width="1.3612669416666667" stroke-dasharray="6.53408132"/><g transform="translate(382.1715482661783,594.438048087) translate(-382.1715482661783,-594.438048087)"><path fill="black" stroke="none" paint-order="stroke fill markers" d=" M 395.784217682845 587.6317133786666 L 382.1715482661783 594.438048087 L 395.784217682845 601.2443827953333 Z"/></g></g><g><g><rect fill="white" stroke="none" x="291.52003049152336" y="618.9408530369999" width="4.90056099" height="21.23576429"/></g><text fill="black" stroke="none" font-family="sans-serif" font-size="11pt" font-style="normal" font-weight="normal" text-decoration="normal" x="293.9703109865234" y="633.6425360069999" text-anchor="start" dominant-baseline="alphabetic" xml:space="preserve"></text></g><g><path fill="none" stroke="black" paint-order="fill stroke markers" d=" M 382.1715482661783 640.1766173269999 L 219.21839109053514 640.1766173269999" stroke-miterlimit="10" stroke-width="1.3612669416666667" stroke-dasharray="6.53408132"/><g transform="translate(205.76907370686845,640.1766173269999) translate(-205.76907370686845,-640.1766173269999)"><path fill="black" stroke="none" paint-order="stroke fill markers" d=" M 219.38174312353513 633.3702826186666 L 205.76907370686845 640.1766173269999 L 219.38174312353513 646.9829520353333 Z"/></g></g></g><g/><g/><g/><g/><g/><g/></g></svg>