<svg version="1.1" xmlns="http://www.w3.org/2000/svg" xmlns:xlink="http://www.w3.org/1999/xlink" width="822" height="514"><desc>title%20Troca-Moedas-Professor%0A%0Aactor%20Professor%0Aparticipant%20Controller%0Aparticipant%20Service%0Aparticipant%20Repository%0Adatabase%20BD%0A%0Aactivate%20Professor%0AProfessor%20-%3E%20Controller%3A%201%3ArealizaTransacao()%0Adeactivate%20Professor%0A%0Aactivate%20Controller%0AController%20-%3EService%3A%202%3ArealizaTransacao()%0Adeactivate%20Controller%0A%0Aactivate%20Service%0AService%20-%3E%20Repository%3A%203%3AsaveTransacao()%0Adeactivate%20Service%0A%0Aactivate%20Repository%0ARepository%20-%3EBD%3A4%3AexecuteQuery()%0Adeactivate%20Repository%0A%0Aactivate%20BD%0ABD%20--%3ERepository%3A%0Adeactivate%20BD%0A%0ARepository%20--%3E%20Service%3A%0AService%20--%3EController%3A</desc><defs/><g><g/><g/><g/><g/><g/><g/><g/><g><rect fill="white" stroke="none" x="0" y="0" width="822" height="514"/></g><g><text fill="black" stroke="none" font-family="sans-serif" font-size="16.5pt" font-style="normal" font-weight="normal" text-decoration="normal" x="290.09611847902016" y="24.50280495" text-anchor="start" dominant-baseline="alphabetic" xml:space="preserve">Troca-Moedas-Professor</text></g><g/><g><path fill="none" stroke="black" paint-order="fill stroke markers" d=" M 39.53479677939453 128.884754037 L 39.53479677939453 514.395551917" stroke-miterlimit="10" stroke-width="1.3612669416666667" stroke-dasharray="12.565541,5.445067766666667"/><path fill="none" stroke="black" paint-order="fill stroke markers" d=" M 233.32452414632158 128.884754037 L 233.32452414632158 514.395551917" stroke-miterlimit="10" stroke-width="1.3612669416666667" stroke-dasharray="12.565541,5.445067766666667"/><path fill="none" stroke="black" paint-order="fill stroke markers" d=" M 427.11425151324863 128.884754037 L 427.11425151324863 514.395551917" stroke-miterlimit="10" stroke-width="1.3612669416666667" stroke-dasharray="12.565541,5.445067766666667"/><path fill="none" stroke="black" paint-order="fill stroke markers" d=" M 608.6849542219726 128.884754037 L 608.6849542219726 514.395551917" stroke-miterlimit="10" stroke-width="1.3612669416666667" stroke-dasharray="12.565541,5.445067766666667"/><path fill="none" stroke="black" paint-order="fill stroke markers" d=" M 781.8376271455403 128.884754037 L 781.8376271455403 514.395551917" stroke-miterlimit="10" stroke-width="1.3612669416666667" stroke-dasharray="12.565541,5.445067766666667"/></g><g><g><path fill="white" stroke="black" paint-order="fill stroke markers" d=" M 48.84586266039453 59.786844078 A 9.311065881 9.311065881 0 1 1 48.84585800486198 59.77753301367084 M 39.53479677939453 69.097909959 L 39.53479677939453 89.026857985 M 27.773450403394534 76.285399411 L 51.29614315539453 76.285399411 M 39.53479677939453 89.026857985 L 27.773450403394534 107.648989747 M 39.53479677939453 89.026857985 L 51.29614315539453 107.648989747" stroke-miterlimit="10" stroke-width="2.7769845610000004" stroke-dasharray=""/></g><g><g/><text fill="black" stroke="none" font-family="sans-serif" font-size="11pt" font-style="normal" font-weight="normal" text-decoration="normal" x="8.167601650000002" y="123.98419304699999" text-anchor="start" dominant-baseline="alphabetic" xml:space="preserve">Professor</text></g><path fill="none" stroke="none"/><g><path fill="white" stroke="black" paint-order="fill stroke markers" d=" M 183.8256134168958 84.779705127 L 282.82343487574735 84.779705127 L 282.82343487574735 128.884754037 L 183.8256134168958 128.884754037 L 183.8256134168958 84.779705127 Z" stroke-miterlimit="10" stroke-width="2.613632528" stroke-dasharray=""/></g><g><g/><text fill="black" stroke="none" font-family="sans-serif" font-size="11pt" font-style="normal" font-weight="normal" text-decoration="normal" x="201.5493089973958" y="112.549550737" text-anchor="start" dominant-baseline="alphabetic" xml:space="preserve">Controller</text></g><path fill="none" stroke="none"/><g><path fill="white" stroke="black" paint-order="fill stroke markers" d=" M 384.94891317151814 84.779705127 L 469.2795898549791 84.779705127 L 469.2795898549791 128.884754037 L 384.94891317151814 128.884754037 L 384.94891317151814 84.779705127 Z" stroke-miterlimit="10" stroke-width="2.613632528" stroke-dasharray=""/></g><g><g/><text fill="black" stroke="none" font-family="sans-serif" font-size="11pt" font-style="normal" font-weight="normal" text-decoration="normal" x="402.67260875201816" y="112.549550737" text-anchor="start" dominant-baseline="alphabetic" xml:space="preserve">Service</text></g><path fill="none" stroke="none"/><g><path fill="white" stroke="black" paint-order="fill stroke markers" d=" M 555.9254844105155 84.779705127 L 661.4444240334296 84.779705127 L 661.4444240334296 128.884754037 L 555.9254844105155 128.884754037 L 555.9254844105155 84.779705127 Z" stroke-miterlimit="10" stroke-width="2.613632528" stroke-dasharray=""/></g><g><g/><text fill="black" stroke="none" font-family="sans-serif" font-size="11pt" font-style="normal" font-weight="normal" text-decoration="normal" x="573.6491799910156" y="112.549550737" text-anchor="start" dominant-baseline="alphabetic" xml:space="preserve">Repository</text></g><g><path fill="white" stroke="black" paint-order="fill stroke markers" d=" M 757.9882303275404 96.867755569 L 757.9882303275404 62.563828639 L 805.6870239635402 62.563828639 L 805.6870239635402 96.867755569" stroke-miterlimit="10" stroke-width="2.7769845610000004" stroke-dasharray=""/><path fill="white" stroke="black" paint-order="fill stroke markers" d=" M 805.6870239635402 61.3713587981 L 805.6858315036366 61.47916934301662 L 805.6822542431705 61.58696910696859 L 805.6762925398652 61.69474731006935 L 805.6679469898859 61.8024931745884 L 805.6572184277807 61.91019592602908 L 805.6441079263968 62.017844794206 L 805.6286167967736 62.125429014322044 L 805.610746588011 62.232937828044854 L 805.590499087115 62.34036048458265 L 805.5678763188188 62.44768624175929 L 805.5428805453804 62.55490436708851 L 805.5155142663564 62.66200413884712 L 805.4857802183518 62.76897484714718 L 805.4536813747467 62.87580579500701 L 805.4192209453986 62.982486299420856 L 805.3824023763218 63.08900569242717 L 805.3432293493424 63.19535332217542 L 805.3017057817307 63.30151855399125 L 805.2578358258087 63.40749077143996 L 805.2116238685353 63.5132593773881 L 805.163074531068 63.618813795063225 L 805.1121926682999 63.724143469111524 L 805.058983368375 63.82923786665337 L 805.0034519521788 63.93408647833659 L 804.9456039728068 64.03867881938739 L 804.8854452150086 64.1430044306588 L 804.82298169461 64.24705287967667 L 804.7582196579108 64.35081376168277 L 804.6911655810608 64.45427670067541 L 804.6218261694119 64.55743135044686 L 804.5502083568472 64.66026739561813 L 804.4763193050885 64.7627745526704 L 804.4001664029795 64.86494257097338 L 804.3217572657467 64.96676123381039 L 804.2410997342386 65.06822035939997 L 804.1582018741411 65.16930980191414 L 804.0730719751713 65.27001945249287 L 803.9857185502478 65.37033924025505 L 803.8961503346407 65.47025913330548 L 803.8043762850966 65.56976913973813 L 803.7104055789441 65.66885930863528 L 803.6142476131756 65.7675197310626 L 803.5159120035075 65.86574054106009 L 803.4154085834186 65.96351191662859 L 803.3127474031676 66.06082408071202 L 803.2079387287865 66.15766730217506 L 803.1009930410556 66.25403189677627 L 802.9919210344547 66.3499082281365 L 802.8807336160934 66.4452867087025 L 802.7674419046208 66.54015780070569 L 802.6520572291139 66.63451201711595 L 802.5345911279438 66.72833992259025 L 802.4150553476229 66.82163213441623 L 802.2934618416297 66.91437932345046 L 802.1698227692133 67.00657221505134 L 802.0441504941779 67.0982015900065 L 801.9164575836464 67.18925828545483 L 801.7867568068034 67.27973319580266 L 801.6550611336185 67.36961727363435 L 801.5213837335492 67.45890153061701 L 801.3857379742243 67.54757703839935 L 801.2481374201064 67.6356349295045 L 801.1085958311365 67.72306639821673 L 800.9671271613572 67.80986270146201 L 800.8237455575174 67.89601515968236 L 800.6784653576583 67.98151515770375 L 800.5313010896784 68.06635414559763 L 800.3822674698823 68.15052363953589 L 800.2313794015074 68.2340152226393 L 800.0786519732351 68.31682054581911 L 799.9241004576809 68.39893132861202 L 799.7677403098673 68.48033936000816 L 799.609587165679 68.56103649927225 L 799.4496568402988 68.6410146767576 L 799.2879653266256 68.72026589471311 L 799.1245287936763 68.79878222808303 L 798.9593635849677 68.87655582529945 L 798.7924862168834 68.95357890906746 L 798.6239133770209 69.02984377714286 L 798.4536619225238 69.10534280310242 L 798.2817488783957 69.18006843710643 L 798.1081914357976 69.25401320665378 L 797.9330069503293 69.32716971732913 L 797.7562129402933 69.39953065354239 L 797.5778270849432 69.47108877926021 L 797.397867222716 69.54183693872967 L 797.2163513494479 69.61176805719379 L 797.0332976165749 69.68087514159897 L 796.848724329318 69.74915128129439 L 796.6626499448518 69.81658964872294 L 796.4750930704598 69.88318350010411 L 796.2860724616731 69.94892617610824 L 796.0956070203953 70.01381110252252 L 795.9037157930114 70.07783179090838 L 795.7104179684846 70.14098183925032 L 795.5157328764361 70.20325493259614 L 795.3196799852129 70.26464484368842 L 795.1222788999407 70.32514543358717 L 794.9235493605637 70.38475065228383 L 794.7235112398699 70.44345453930622 L 794.522184541505 70.50125122431453 L 794.319589397971 70.55813492768844 L 794.1157460686131 70.61409996110503 L 793.9106749375949 70.66914072810756 L 793.7043965118581 70.72325172466522 L 793.4969314190738 70.77642753972344 L 793.2883004055781 70.82866285574504 L 793.0785243342987 70.87995244924193 L 792.8676241826677 70.9302911912975 L 792.6556210405246 70.9796740480795 L 792.442536108007 71.0280960813434 L 792.2283906934306 71.07555244892625 L 792.0132062111583 71.12203840523081 L 791.797004179459 71.16754930170019 L 791.5798062183559 71.21208058728268 L 791.3616340474639 71.25562780888683 L 791.1425094838183 71.29818661182675 L 790.922454439693 71.33975274025764 L 790.7014909204089 71.38032203760127 L 790.4796410221339 71.41989044696174 L 790.2569269296729 71.45845401153106 L 790.0333709142494 71.49600887498494 L 789.808995331279 71.5325512818683 L 789.5838226181327 71.56807757797091 L 789.3578752918943 71.60258421069277 L 789.1311759471081 71.63606772939937 L 788.9037472535197 71.66852478576672 L 788.6756119538088 71.69995213411627 L 788.4467928613155 71.73034663173934 L 788.2173128577582 71.7597052392115 L 787.9871948909462 71.78802502069648 L 787.7564619724841 71.81530314423973 L 787.5251371754717 71.84153688205163 L 787.2932436321959 71.86672361078024 L 787.0608045318178 71.8908608117737 L 786.8278431180537 71.913946071332 L 786.5943826868507 71.93597708094846 L 786.3604465840577 71.95695163754044 L 786.1260582030898 71.97686764366978 L 785.8912409825898 71.99572310775245 L 785.6560184040842 72.01351614425778 L 785.4204139896345 72.03024497389691 L 785.1844512994862 72.04590792380084 L 784.9481539297116 72.06050342768764 L 784.7115455098506 72.07403002601906 L 784.474649700548 72.08648636614654 L 784.2374901911875 72.09787120244648 L 784.0000906975223 72.1081833964447 L 783.7624749593039 72.11742191693043 L 783.5246667379082 72.12558584005929 L 783.2866898139591 72.13267434944576 L 783.0485679849508 72.13868673624485 L 782.8103250628676 72.14362239922286 L 782.5719848718032 72.14748084481762 L 782.3335712455782 72.1502616871878 L 782.0951080253565 72.15196464825142 L 781.8566190572614 72.15258955771385 L 781.6181281899908 72.15213635308466 L 781.379659272433 72.15060507968391 L 781.1412361512807 72.14799589063767 L 780.9028826686477 72.1443090468627 L 780.6646226596833 72.13954491704027 L 780.4264799501901 72.1337039775794 L 780.1884783542405 72.12678681256918 L 779.9506416717957 72.11879411372033 L 779.7129936863257 72.10972668029609 L 779.4755581624312 72.09958541903224 L 779.2383588434665 72.08837134404646 L 779.0014194491661 72.07608557673689 L 778.7647636732718 72.06272934567005 L 778.528415181164 72.04830398645788 L 778.2923976074949 72.0328109416243 L 778.0567345538253 72.01625176046089 L 777.8214495862642 71.99862809887196 L 777.5865662331122 71.97994171920898 L 777.3521079825089 71.96019449009434 L 777.118098280084 71.9393883862345 L 776.8845605266126 71.91752548822251 L 776.6515180756758 71.89460798232996 L 776.4189942313241 71.87063816028832 L 776.1870122457482 71.84561841905983 L 775.9555953169536 71.81955126059778 L 775.7247665864401 71.79243929159627 L 775.4945491368885 71.7642852232296 L 775.2649659898519 71.73509187088118 L 775.0360401034536 71.7048621538619 L 774.8077943700916 71.67359909511825 L 774.580251614149 71.64130582093009 L 774.3534345897117 71.6079855605979 L 774.1273659782933 71.57364164611994 L 773.9020683865663 71.53827751185906 L 773.6775643441022 71.50189669419922 L 773.4538763011183 71.46450283119185 L 773.2310266262324 71.42609966219209 L 773.0090376042263 71.38669102748484 L 772.7879314338172 71.34628086790075 L 772.5677302254378 71.30487322442208 L 772.3484559990256 71.26247223777868 L 772.1301306818204 71.21908214803388 L 771.912776106172 71.17470729416048 L 771.696414007357 71.12935211360693 L 771.4810660214047 71.08302114185344 L 771.2667536829344 71.0357190119586 L 771.0534984230013 70.987450454096 L 770.8413215669539 70.93822029508118 L 770.6302443323005 70.88803345788901 L 770.4202878265892 70.8368949611614 L 770.2114730452953 70.7848099187054 L 770.003820869723 70.73178353898187 L 769.7973520649168 70.67782112458457 L 769.5920872775852 70.62292807170999 L 769.3880470340357 70.56710986961765 L 769.1852517381227 70.51037210008127 L 768.983721669207 70.4527204368305 L 768.7834769801273 70.39416064498364 L 768.5845376951856 70.33469858047107 L 768.3869237081449 70.27434018944969 L 768.190654780239 70.2130915077083 L 767.9957505381972 70.15095866006402 L 767.8022304722813 70.08794785974987 L 767.6101139343365 70.02406540779336 L 767.4194201358567 69.95931769238642 L 767.2301681460627 69.89371118824668 L 767.0423768899958 69.82725245596986 L 766.8560651466252 69.7599481413738 L 766.6712515469698 69.69180497483389 L 766.4879545722357 69.62282977060998 L 766.3061925519676 69.55302942616503 L 766.125983662216 69.4824109214753 L 765.9473459237197 69.41098131833243 L 765.7702972001038 69.3387477596372 L 765.5948551960929 69.26571746868528 L 765.4210374557415 69.19189774844492 L 765.2488613606786 69.1172959808266 L 765.0783441283702 69.04191962594494 L 764.9095028103976 68.96577622137262 L 764.7423542907517 68.88887338138663 L 764.5769152841453 68.81121879620689 L 764.4132023343411 68.73282023122718 L 764.2512318124978 68.6536855262387 L 764.0910199155326 68.573822594646 L 763.9325826645014 68.49323942267567 L 763.7759359029976 68.41194406857777 L 763.6210952955668 68.32994466181995 L 763.4680763261404 68.24724940227456 L 763.3168942964882 68.16386655939866 L 763.1675643246869 68.07980447140702 L 763.0201013436093 67.99507154443839 L 762.8745200994308 67.90967625171488 L 762.7308351501543 67.8236271326946 L 762.5890608641552 67.73693279221771 L 762.4492114187437 67.64960189964606 L 762.311300798748 67.56164318799608 L 762.175342795115 67.47306545306569 L 762.0413510035319 67.38387755255452 L 761.9093388230662 67.29408840517834 L 761.7793194548258 67.20370698977703 L 761.6513059006393 67.11274234441683 L 761.5253109617554 67.02120356548647 L 761.4013472375631 66.92909980678756 L 761.2794271243314 66.83644027861922 L 761.15956281397 66.74323424685704 L 761.04176629281 66.64949103202653 L 760.9260493404056 66.55522000837107 L 760.8124235283553 66.46043060291444 L 760.700900219146 66.3651322945182 L 760.5914905650153 66.2693346129338 L 760.4842055068376 66.17304713784955 L 760.3790557730293 66.07627949793272 L 760.2760518784763 65.97904136986665 L 760.175204123482 65.88134247738313 L 760.0765225927379 65.78319259028999 L 759.980017154315 65.68460152349414 L 759.8856974586765 65.58557913602012 L 759.7935729377135 65.48613533002413 L 759.7036528038013 65.38628004980393 L 759.6159460488784 65.2860232808043 L 759.5304614435471 65.18537504861862 L 759.4472075361969 65.08434541798623 L 759.3661926521488 64.982944491786 L 759.287424892824 64.88118241002603 L 759.2109121349328 64.77906934882972 L 759.1366620296869 64.67661551941809 L 759.0646820020354 64.5738311670887 L 758.9949792499207 64.47072657019112 L 758.9275607435602 64.36731203909913 L 758.8624332247482 64.26359791517966 L 758.7996032061823 64.15959456975868 L 758.7390769708121 64.05531240308405 L 758.6808605712106 63.95076184328555 L 758.6249598289694 63.84595334533201 L 758.5713803341159 63.74089738998592 L 758.5201274445551 63.63560448275524 L 758.4712062855333 63.530085152842965 L 758.4246217491254 63.42434995209415 L 758.3803784937465 63.318409453940745 L 758.3384809436851 63.2122742523443 L 758.2989332886614 63.105954960736526 L 758.2617394834077 62.99946221095797 L 758.2269032472739 62.892806652194885 L 758.1944280638542 62.78599894991426 L 758.1643171806402 62.679049784797314 L 758.1365736086949 62.57196985167143 L 758.1112001223526 62.464769858440704 L 758.0881992589406 62.357460525015114 L 758.0675733185261 62.25005258223858 L 758.049324363686 62.14255677081588 L 758.0334542193006 62.03498384023857 L 758.019964472371 61.92734454771006 L 758.0088564718608 61.81964965706991 L 758.0001313285608 61.71190993771744 L 757.9937899149778 61.6041361635348 L 757.9898328652482 61.49633911180959 L 757.9882605750735 61.38852956215717 L 757.9890732016814 61.28071829544265 L 757.99227066381 61.172916092702856 L 757.9978526417157 61.06513373406823 L 758.0058185772053 60.957381997684834 L 758.016167673692 60.84967165863649 L 758.0288988962749 60.74201348786736 L 758.044010971842 60.6344182511048 L 758.0615023891986 60.526896707782825 L 758.0813713992175 60.41945960996616 L 758.103616015014 60.31211770127506 L 758.1282340121455 60.204881715810956 L 758.1552229288325 60.097762377083015 L 758.1845800662059 59.99077039693585 L 758.2163024885764 59.88391647447831 L 758.2503870237283 59.7772112950136 L 758.2868302632363 59.67066552897075 L 758.3256285628071 59.56428983083758 L 758.3667780426427 59.45809483809524 L 758.4102745878298 59.35209117015452 L 758.4561138487499 59.24628942729389 L 758.504291241515 59.14070018959944 L 758.5548019484263 59.03533401590697 L 758.6076409184549 58.93020144274604 L 758.662802867748 58.82531298328635 L 758.7202822801567 58.72067912628645 L 758.7800734077874 58.61631033504484 L 758.8421702715773 58.51221704635366 L 758.9065666618918 58.40840966945505 L 758.9732561391456 58.30489858500019 L 759.0422320344464 58.20169414401126 L 759.1134874502623 58.098806666846365 L 759.1870152611109 57.996246442167475 L 759.2628081142725 57.894023725911595 L 759.3408584305249 57.79214874026516 L 759.4211584049017 57.69063167264185 L 759.503700007472 57.58948267466382 L 759.5884749841448 57.488711861146584 L 759.6754748574928 57.38832930908751 L 759.7646909276011 57.28834505665816 L 759.8561142729372 57.18876910220045 L 759.9497357512428 57.08961140322686 L 760.0455460004478 56.99088187542464 L 760.1435354396074 56.8925903916643 L 760.2436942698592 56.794746781012314 L 760.3460124754038 56.6973608277482 L 760.4504798245056 56.60044227038614 L 760.5570858705171 56.5040008007011 L 760.6658199529223 56.40804606275968 L 760.7766711984036 56.31258765195572 L 760.889628521929 56.217635114050736 L 761.0046806278601 56.12319794421941 L 761.1218160110823 56.029285586100016 L 761.2410229581546 55.93590743085011 L 761.3622895484821 55.8430728162074 L 761.4856036555066 55.75079102555599 L 761.6109529479199 55.65907128699804 L 761.7383248908976 55.56792277243099 L 761.8677067473515 55.47735459663031 L 761.9990855792036 55.387375816338135 L 762.1324482486801 55.29799542935749 L 762.2677814196255 55.20922237365261 L 762.4050715588354 55.12106552645507 L 762.5443049374102 55.033533703376136 L 762.685467632128 54.94663565752517 L 762.8285455268372 54.86038007863435 L 762.9735243138673 54.77477559218967 L 763.1203894954606 54.689830758568455 L 763.2691263852213 54.60555407218327 L 763.4197201095842 54.52195396063252 L 763.5721556093026 54.439038783857704 L 763.7264176409534 54.35681683330739 L 763.882490778462 54.27529633110813 L 764.0403594146449 54.19448542924221 L 764.2000077627698 54.114392208732454 L 764.3614198581349 54.03502467883419 L 764.5245795596654 53.95639077623426 L 764.6894705515269 53.878498364257396 L 764.8560763447579 53.801355232079885 L 765.0243802789176 53.72496909395066 L 765.1943655237529 53.649347588419886 L 765.3660150808812 53.57449827757509 L 765.5393117854896 53.50042864628498 L 765.7142383080521 53.42714610145097 L 765.8907771560623 53.35465797126647 L 766.0689106757824 53.28297150448409 L 766.2486210540089 53.21209386969077 L 766.4298903198538 53.14203215459092 L 766.6127003465415 53.072793365297684 L 766.7970328532217 53.00438442563227 L 766.9828694067975 52.93681217643165 L 767.1701914237681 52.870083374864436 L 767.358980172088 52.80420469375517 L 767.5492167730398 52.739182720917064 L 767.7408822031219 52.67502395849323 L 767.933957295951 52.611734822306424 L 768.1284227441787 52.54932164121754 L 768.3242591014223 52.48779065649267 L 768.521446784209 52.427148021179015 L 768.7199660739353 52.36739979948956 L 768.9197971188373 52.3085519661967 L 769.1209199359771 52.25061040603471 L 769.3233144132407 52.19358091311133 L 769.5269603113491 52.13746919032833 L 769.7318372658818 52.08228084881122 L 769.9379247893145 52.02802140734818 L 770.1452022730664 51.974696291838114 L 770.3536489895619 51.922310834748146 L 770.5632440943031 51.87087027458034 L 770.773966627954 51.82037975534783 L 770.985795518437 51.770844326060484 L 771.1987095830397 51.72226894021993 L 771.4126875305328 51.674658455324284 L 771.6277079633 51.62801763238236 L 771.8437493794772 51.58235113543759 L 772.0607901751027 51.5376635311016 L 772.2788086462781 51.49395928809759 L 772.4977829913377 51.451242776813444 L 772.7176913130295 51.409518268864694 L 772.9385116207046 51.368789936667355 L 773.1602218325163 51.32906185302072 L 773.3827997776282 51.29033799070003 L 773.6062231984312 51.252622222059266 L 773.8304697527693 51.21591831864385 L 774.0555170161742 51.18022995081354 L 774.281342484107 51.14556068737539 L 774.507923574209 51.11191399522683 L 774.7352376285602 51.079293239009054 L 774.9632619159443 51.047701680770494 L 775.1919736341227 51.01714247964064 L 775.4213499121144 50.98761869151416 L 775.6513678124825 50.95913326874524 L 775.8820043336286 50.93168905985244 L 776.113236412093 50.90528880923376 L 776.3450409248603 50.87993515689227 L 776.5773946916727 50.85563063817208 L 776.8102744773469 50.83237768350481 L 777.0436569940985 50.81017861816654 L 777.2775189038703 50.78903566204531 L 777.5118368206661 50.768950929419105 L 777.7465873128896 50.749926428744466 L 777.9817469056871 50.7319640624556 L 778.2172920832955 50.71506562677416 L 778.4531992913932 50.69923281152964 L 778.6894449394559 50.684467199990365 L 778.9260054031157 50.6707702687052 L 779.1628570265235 50.658143387355835 L 779.3999761247142 50.64658781861989 L 779.6373389859756 50.63610471804463 L 779.8749218742194 50.62669513393135 L 780.1127010313546 50.61836000723063 L 780.350652679664 50.61110017144819 L 780.5887530241807 50.604916352561574 L 780.8269782550689 50.5998091689475 L 781.0653045500039 50.595779131320086 L 781.3037080765549 50.592826642679725 L 781.5421649945678 50.59095199827282 L 781.7806514585496 50.59015538556226 L 782.0191436200527 50.59043688420866 L 782.2576176300595 50.59179646606236 L 782.4960496413679 50.594233995166334 L 782.7344158109754 50.59774922776969 L 782.9726923024637 50.6023418123521 L 783.2108552883822 50.60801128965893 L 783.4488809526307 50.61475709274719 L 783.6867454928412 50.622578547042174 L 783.9244251227578 50.63147487040497 L 784.1618960746159 50.64144517321068 L 784.3991346015179 50.6524884584373 L 784.6361169798088 50.66460362176552 L 784.8728195114484 50.67778945168912 L 785.1092185263807 50.69204462963607 L 785.3452903849013 50.70736773010048 L 785.581011480021 50.72375722078505 L 785.8163582398266 50.74121146275439 L 786.0513071298385 50.759728710598836 L 786.2858346553633 50.77930711260903 L 786.519917363844 50.79994471096109 L 786.7535318472047 50.821639441912396 L 786.9866547441918 50.844389136007905 L 787.2192627427099 50.86819151829718 L 787.451332582153 50.893044208561825 L 787.6828410557305 50.91894472155353 L 787.913765012788 50.94589046724256 L 788.1440813611222 50.973878751076825 L 788.3737670692901 51.00290677425126 L 788.6027991689125 51.03297163398772 L 788.8311547569701 51.064070323825305 L 789.0588109980946 51.09619973392093 L 789.2857451268513 51.129356651360375 L 789.5119344500167 51.16353776047952 L 789.737356348847 51.198739643195935 L 789.9619882813399 51.23495877935069 L 790.1858077844896 51.27219154706035 L 790.4087924765322 51.31043422307917 L 790.6309200591842 51.349682983171405 L 790.8521683198727 51.38993390249377 L 791.0725151339558 51.43118295598788 L 791.2919384669357 51.47342601878273 L 791.5104163766621 51.51665886660727 L 791.727927015526 51.56087717621274 L 791.9444486326448 51.60607652580503 L 792.1599595760372 51.65225239548683 L 792.3744382947884 51.69940016770967 L 792.5878633412054 51.74751512773561 L 792.8002133729614 51.79659246410874 L 793.0114671552301 51.84662726913632 L 793.2216035628093 51.89761453937955 L 793.4306015822333 51.949549176153894 L 793.6384403138745 52.00242598603895 L 793.8450989740328 52.0562396813978 L 794.0505568970145 52.11098488090573 L 794.2547935371985 52.16665611008844 L 794.4577884710908 52.22324780186939 L 794.6595213993673 52.28075429712656 L 794.8599721489035 52.339169845258354 L 795.0591206747911 52.398488604758626 L 795.2569470623437 52.458704643800864 L 795.4534315290873 52.51981194083135 L 795.6485544267391 52.581804385171296 L 795.8422962431719 52.64467577762793 L 796.0346376043652 52.708419831114405 L 796.2255592763437 52.77303017127848 L 796.4150421670988 52.83850033713999 L 796.6030673284997 52.90482378173691 L 796.7896159581868 52.97199387278003 L 796.9746694014525 53.040003893316246 L 797.1582091531068 53.108847042400164 L 797.3402168593275 53.17851643577425 L 797.5206743194956 53.24900510655722 L 797.6995634880154 53.32030600594074 L 797.8768664761192 53.39241200389429 L 798.052565553656 53.465315889878156 L 798.2266431508643 53.5390103735645 L 798.3990818601296 53.61348808556637 L 798.5698644377246 53.68874157817461 L 798.7389738055339 53.76476332610268 L 798.9063930527615 53.84154572723915 L 799.0721054376223 53.91908110340788 L 799.236094389016 53.99736170113587 L 799.398343508184 54.07637969242858 L 799.5588365703496 54.156127175552726 L 799.7175575263404 54.236596175826456 L 799.874490504193 54.3177786464168 L 800.0296198107403 54.39966646914434 L 800.1829299331812 54.48225145529506 L 800.3344055406309 54.56552534643915 L 800.484031485655 54.6494798152569 L 800.6317928057838 54.73410646637139 L 800.7776747250083 54.81939683718802 L 800.9216626552582 54.9053423987408 L 801.0637421978604 54.99193455654518 L 801.2038991449791 55.079164651457546 L 801.3421194810363 55.16702396054111 L 801.4783893841137 55.25550369793815 L 801.6126952273345 55.344595015748695 L 801.7450235802263 55.43428900491518 L 801.8753612100639 55.52457669611344 L 802.0036950831933 55.615449060649595 L 802.130012366334 55.706897011362926 L 802.2543004278626 55.79891140353456 L 802.376546839077 55.891483035801954 L 802.4967393754378 55.98460265107904 L 802.6148660177914 56.07826093748187 L 802.7309149535721 56.17244852925987 L 802.844874577983 56.26715600773234 L 802.9567334951566 56.36237390223035 L 803.0664805192945 56.45809269104382 L 803.1741046757857 56.55430280237361 L 803.2795952023041 56.65099461528878 L 803.3829415498851 56.74815846068861 L 803.4841333839801 56.84578462226952 L 803.58316058549 56.943863337496715 L 803.6800132517769 57.0423847985804 L 803.7746816976553 57.14133915345658 L 803.8671564563592 57.240716506772216 L 803.95742828049 57.34050692087479 L 804.0454881429404 57.44070041680606 L 804.1313272377974 57.54128697529992 L 804.2149369812234 57.64225653778434 L 804.2963090123134 57.74359900738722 L 804.3754351939323 57.84530424994605 L 804.4523076135278 57.94736209502132 L 804.5269185839219 58.04976233691358 L 804.59926064408 58.15249473568397 L 804.6693265598561 58.25554901817823 L 804.7371093247172 58.35891487905398 L 804.8026021604431 58.46258198181127 L 804.8657985178049 58.566539959826216 L 804.9266920772197 58.67077841738765 L 804.9852767493821 58.77528693073668 L 805.0415466758737 58.88005504910905 L 805.095496229749 58.985072295780256 L 805.1471200160972 59.09032816911312 L 805.1964128725829 59.19581214360803 L 805.2433698699615 59.301513670955444 L 805.2879863125723 59.4074221810907 L 805.3302577388084 59.513527083251056 L 805.3701799215622 59.619817767034704 L 805.4077488686489 59.72628360346185 L 805.4429608232049 59.832913946037564 L 805.4758122640642 59.939698131816456 L 805.5062999061101 60.046625482468926 L 805.5344207006038 60.153685305349015 L 805.5601718354892 60.26086689456366 L 805.5835507356744 60.36815953204325 L 805.6045550632887 60.47555248861345 L 805.623182717917 60.5830350250681 L 805.6394318368092 60.69059639324311 L 805.6533007950671 60.79822583709131 L 805.6647882058064 60.905912593758 L 805.6738929202955 61.01364589465726 L 805.6806140280707 61.12141496654876 L 805.6849508570267 61.22920903261514 L 805.6869029734843 61.337017313539604 M 805.6870239635402 95.6752857281 L 805.6858315036366 95.78309627301661 L 805.6822542431705 95.89089603696858 L 805.6762925398652 95.99867424006935 L 805.6679469898859 96.1064201045884 L 805.6572184277807 96.21412285602908 L 805.6441079263968 96.321771724206 L 805.6286167967736 96.42935594432204 L 805.610746588011 96.53686475804484 L 805.590499087115 96.64428741458265 L 805.5678763188188 96.75161317175929 L 805.5428805453804 96.85883129708851 L 805.5155142663564 96.96593106884711 L 805.4857802183518 97.07290177714718 L 805.4536813747467 97.17973272500701 L 805.4192209453986 97.28641322942086 L 805.3824023763218 97.39293262242717 L 805.3432293493424 97.49928025217542 L 805.3017057817307 97.60544548399125 L 805.2578358258087 97.71141770143996 L 805.2116238685353 97.8171863073881 L 805.163074531068 97.92274072506322 L 805.1121926682999 98.02807039911151 L 805.058983368375 98.13316479665336 L 805.0034519521788 98.23801340833658 L 804.9456039728068 98.34260574938737 L 804.8854452150086 98.4469313606588 L 804.82298169461 98.55097980967666 L 804.7582196579108 98.65474069168278 L 804.6911655810608 98.7582036306754 L 804.6218261694119 98.86135828044685 L 804.5502083568472 98.96419432561812 L 804.4763193050885 99.0667014826704 L 804.4001664029795 99.16886950097337 L 804.3217572657467 99.27068816381038 L 804.2410997342386 99.37214728939998 L 804.1582018741411 99.47323673191414 L 804.0730719751713 99.57394638249288 L 803.9857185502478 99.67426617025505 L 803.8961503346407 99.77418606330548 L 803.8043762850966 99.87369606973812 L 803.7104055789441 99.97278623863527 L 803.6142476131756 100.0714466610626 L 803.5159120035075 100.1696674710601 L 803.4154085834186 100.2674388466286 L 803.3127474031676 100.36475101071201 L 803.2079387287865 100.46159423217506 L 803.1009930410556 100.55795882677627 L 802.9919210344547 100.65383515813649 L 802.8807336160934 100.74921363870249 L 802.7674419046208 100.84408473070569 L 802.6520572291139 100.93843894711594 L 802.5345911279438 101.03226685259024 L 802.4150553476229 101.12555906441622 L 802.2934618416297 101.21830625345046 L 802.1698227692133 101.31049914505132 L 802.0441504941779 101.4021285200065 L 801.9164575836464 101.49318521545483 L 801.7867568068034 101.58366012580265 L 801.6550611336185 101.67354420363434 L 801.5213837335492 101.762828460617 L 801.3857379742243 101.85150396839936 L 801.2481374201064 101.93956185950451 L 801.1085958311365 102.02699332821673 L 800.9671271613572 102.11378963146201 L 800.8237455575174 102.19994208968237 L 800.6784653576583 102.28544208770374 L 800.5313010896784 102.37028107559762 L 800.3822674698823 102.45445056953588 L 800.2313794015074 102.53794215263929 L 800.0786519732351 102.6207474758191 L 799.9241004576809 102.70285825861201 L 799.7677403098673 102.78426629000816 L 799.609587165679 102.86496342927225 L 799.4496568402988 102.9449416067576 L 799.2879653266256 103.02419282471311 L 799.1245287936763 103.10270915808303 L 798.9593635849677 103.18048275529944 L 798.7924862168834 103.25750583906745 L 798.6239133770209 103.33377070714286 L 798.4536619225238 103.4092697331024 L 798.2817488783957 103.48399536710642 L 798.1081914357976 103.55794013665377 L 797.9330069503293 103.63109664732913 L 797.7562129402933 103.70345758354237 L 797.5778270849432 103.7750157092602 L 797.397867222716 103.84576386872968 L 797.2163513494479 103.91569498719377 L 797.0332976165749 103.98480207159896 L 796.848724329318 104.05307821129438 L 796.6626499448518 104.12051657872294 L 796.4750930704598 104.1871104301041 L 796.2860724616731 104.25285310610823 L 796.0956070203953 104.31773803252251 L 795.9037157930114 104.38175872090837 L 795.7104179684846 104.44490876925032 L 795.5157328764361 104.50718186259614 L 795.3196799852129 104.5685717736884 L 795.1222788999407 104.62907236358716 L 794.9235493605637 104.68867758228383 L 794.7235112398699 104.7473814693062 L 794.522184541505 104.80517815431453 L 794.319589397971 104.86206185768845 L 794.1157460686131 104.91802689110501 L 793.9106749375949 104.97306765810755 L 793.7043965118581 105.02717865466522 L 793.4969314190738 105.08035446972343 L 793.2883004055781 105.13258978574503 L 793.0785243342987 105.18387937924192 L 792.8676241826677 105.23421812129749 L 792.6556210405246 105.28360097807949 L 792.442536108007 105.33202301134341 L 792.2283906934306 105.37947937892625 L 792.0132062111583 105.4259653352308 L 791.797004179459 105.4714762317002 L 791.5798062183559 105.51600751728267 L 791.3616340474639 105.55955473888682 L 791.1425094838183 105.60211354182675 L 790.922454439693 105.64367967025764 L 790.7014909204089 105.68424896760128 L 790.4796410221339 105.72381737696173 L 790.2569269296729 105.76238094153106 L 790.0333709142494 105.79993580498493 L 789.808995331279 105.83647821186828 L 789.5838226181327 105.8720045079709 L 789.3578752918943 105.90651114069276 L 789.1311759471081 105.93999465939936 L 788.9037472535197 105.97245171576672 L 788.6756119538088 106.00387906411626 L 788.4467928613155 106.03427356173933 L 788.2173128577582 106.0636321692115 L 787.9871948909462 106.09195195069648 L 787.7564619724841 106.11923007423972 L 787.5251371754717 106.14546381205162 L 787.2932436321959 106.17065054078024 L 787.0608045318178 106.1947877417737 L 786.8278431180537 106.21787300133201 L 786.5943826868507 106.23990401094846 L 786.3604465840577 106.26087856754044 L 786.1260582030898 106.28079457366978 L 785.8912409825898 106.29965003775246 L 785.6560184040842 106.31744307425777 L 785.4204139896345 106.3341719038969 L 785.1844512994862 106.34983485380084 L 784.9481539297116 106.36443035768762 L 784.7115455098506 106.37795695601905 L 784.474649700548 106.39041329614655 L 784.2374901911875 106.40179813244647 L 784.0000906975223 106.4121103264447 L 783.7624749593039 106.42134884693041 L 783.5246667379082 106.42951277005928 L 783.2866898139591 106.43660127944577 L 783.0485679849508 106.44261366624485 L 782.8103250628676 106.44754932922287 L 782.5719848718032 106.45140777481762 L 782.3335712455782 106.45418861718778 L 782.0951080253565 106.45589157825142 L 781.8566190572614 106.45651648771386 L 781.6181281899908 106.45606328308465 L 781.379659272433 106.4545320096839 L 781.1412361512807 106.45192282063768 L 780.9028826686477 106.44823597686269 L 780.6646226596833 106.44347184704026 L 780.4264799501901 106.43763090757939 L 780.1884783542405 106.43071374256917 L 779.9506416717957 106.42272104372033 L 779.7129936863257 106.41365361029608 L 779.4755581624312 106.40351234903224 L 779.2383588434665 106.39229827404645 L 779.0014194491661 106.38001250673689 L 778.7647636732718 106.36665627567004 L 778.528415181164 106.35223091645787 L 778.2923976074949 106.33673787162431 L 778.0567345538253 106.32017869046089 L 777.8214495862642 106.30255502887195 L 777.5865662331122 106.28386864920897 L 777.3521079825089 106.26412142009434 L 777.118098280084 106.2433153162345 L 776.8845605266126 106.22145241822251 L 776.6515180756758 106.19853491232995 L 776.4189942313241 106.17456509028831 L 776.1870122457482 106.14954534905984 L 775.9555953169536 106.12347819059778 L 775.7247665864401 106.09636622159626 L 775.4945491368885 106.06821215322961 L 775.2649659898519 106.03901880088118 L 775.0360401034536 106.0087890838619 L 774.8077943700916 105.97752602511825 L 774.580251614149 105.94523275093007 L 774.3534345897117 105.91191249059789 L 774.1273659782933 105.87756857611994 L 773.9020683865663 105.84220444185907 L 773.6775643441022 105.8058236241992 L 773.4538763011183 105.76842976119184 L 773.2310266262324 105.73002659219209 L 773.0090376042263 105.69061795748485 L 772.7879314338172 105.65020779790075 L 772.5677302254378 105.60880015442207 L 772.3484559990256 105.56639916777867 L 772.1301306818204 105.52300907803387 L 771.912776106172 105.47863422416049 L 771.696414007357 105.43327904360692 L 771.4810660214047 105.38694807185344 L 771.2667536829344 105.33964594195861 L 771.0534984230013 105.291377384096 L 770.8413215669539 105.24214722508117 L 770.6302443323005 105.19196038788901 L 770.4202878265892 105.1408218911614 L 770.2114730452953 105.08873684870541 L 770.003820869723 105.03571046898188 L 769.7973520649168 104.98174805458457 L 769.5920872775852 104.92685500170998 L 769.3880470340357 104.87103679961766 L 769.1852517381227 104.81429903008126 L 768.983721669207 104.75664736683049 L 768.7834769801273 104.69808757498365 L 768.5845376951856 104.63862551047107 L 768.3869237081449 104.57826711944969 L 768.190654780239 104.51701843770829 L 767.9957505381972 104.45488559006402 L 767.8022304722813 104.39187478974986 L 767.6101139343365 104.32799233779335 L 767.4194201358567 104.26324462238642 L 767.2301681460627 104.19763811824667 L 767.0423768899958 104.13117938596986 L 766.8560651466252 104.0638750713738 L 766.6712515469698 103.99573190483389 L 766.4879545722357 103.92675670060999 L 766.3061925519676 103.85695635616503 L 766.125983662216 103.7863378514753 L 765.9473459237197 103.71490824833242 L 765.7702972001038 103.64267468963719 L 765.5948551960929 103.56964439868527 L 765.4210374557415 103.4958246784449 L 765.2488613606786 103.4212229108266 L 765.0783441283702 103.34584655594495 L 764.9095028103976 103.26970315137261 L 764.7423542907517 103.19280031138662 L 764.5769152841453 103.11514572620688 L 764.4132023343411 103.03674716122718 L 764.2512318124978 102.9576124562387 L 764.0910199155326 102.87774952464599 L 763.9325826645014 102.79716635267567 L 763.7759359029976 102.71587099857777 L 763.6210952955668 102.63387159181995 L 763.4680763261404 102.55117633227457 L 763.3168942964882 102.46779348939864 L 763.1675643246869 102.383731401407 L 763.0201013436093 102.29899847443839 L 762.8745200994308 102.21360318171489 L 762.7308351501543 102.12755406269459 L 762.5890608641552 102.04085972221772 L 762.4492114187437 101.95352882964605 L 762.311300798748 101.86557011799609 L 762.175342795115 101.77699238306569 L 762.0413510035319 101.68780448255453 L 761.9093388230662 101.59801533517833 L 761.7793194548258 101.50763391977702 L 761.6513059006393 101.41666927441683 L 761.5253109617554 101.32513049548646 L 761.4013472375631 101.23302673678755 L 761.2794271243314 101.14036720861921 L 761.15956281397 101.04716117685703 L 761.04176629281 100.95341796202653 L 760.9260493404056 100.85914693837105 L 760.8124235283553 100.76435753291443 L 760.700900219146 100.66905922451821 L 760.5914905650153 100.5732615429338 L 760.4842055068376 100.47697406784954 L 760.3790557730293 100.3802064279327 L 760.2760518784763 100.28296829986664 L 760.175204123482 100.18526940738312 L 760.0765225927379 100.08711952028997 L 759.980017154315 99.98852845349413 L 759.8856974586765 99.8895060660201 L 759.7935729377135 99.79006226002413 L 759.7036528038013 99.69020697980392 L 759.6159460488784 99.5899502108043 L 759.5304614435471 99.48930197861863 L 759.4472075361969 99.38827234798623 L 759.3661926521488 99.28687142178599 L 759.287424892824 99.18510934002603 L 759.2109121349328 99.08299627882971 L 759.1366620296869 98.98054244941808 L 759.0646820020354 98.87775809708869 L 758.9949792499207 98.7746535001911 L 758.9275607435602 98.67123896909912 L 758.8624332247482 98.56752484517966 L 758.7996032061823 98.46352149975867 L 758.7390769708121 98.35923933308405 L 758.6808605712106 98.25468877328554 L 758.6249598289694 98.14988027533201 L 758.5713803341159 98.04482431998592 L 758.5201274445551 97.93953141275524 L 758.4712062855333 97.83401208284296 L 758.4246217491254 97.72827688209414 L 758.3803784937465 97.62233638394075 L 758.3384809436851 97.5162011823443 L 758.2989332886614 97.40988189073651 L 758.2617394834077 97.30338914095798 L 758.2269032472739 97.19673358219488 L 758.1944280638542 97.08992587991426 L 758.1643171806402 96.9829767147973 L 758.1365736086949 96.87589678167143 L 758.1112001223526 96.7686967884407 L 758.0881992589406 96.66138745501512 L 758.0675733185261 96.55397951223858 L 758.049324363686 96.44648370081588 L 758.0334542193006 96.33891077023856 L 758.019964472371 96.23127147771005 L 758.0088564718608 96.1235765870699 L 758.0001313285608 96.01583686771744 L 757.9937899149778 95.90806309353479 L 757.9898328652482 95.80026604180959 L 757.9882605750735 95.69245649215716" stroke-miterlimit="10" stroke-width="2.7769845610000004" stroke-dasharray=""/></g><g><g/><text fill="black" stroke="none" font-family="sans-serif" font-size="11pt" font-style="normal" font-weight="normal" text-decoration="normal" x="771.6550938813801" y="123.98419304699999" text-anchor="start" dominant-baseline="alphabetic" xml:space="preserve">BD</text></g></g><g><path fill="white" stroke="black" paint-order="fill stroke markers" d=" M 31.36719512939453 137.052355687 L 47.702398429394535 137.052355687 L 47.702398429394535 182.790924927 L 31.36719512939453 182.790924927 L 31.36719512939453 137.052355687" stroke-miterlimit="10" stroke-width="1.3612669416666667" stroke-dasharray=""/><path fill="white" stroke="black" paint-order="fill stroke markers" d=" M 225.15692249632158 182.790924927 L 241.49212579632157 182.790924927 L 241.49212579632157 228.529494167 L 225.15692249632158 228.529494167 L 225.15692249632158 182.790924927" stroke-miterlimit="10" stroke-width="1.3612669416666667" stroke-dasharray=""/><path fill="white" stroke="black" paint-order="fill stroke markers" d=" M 418.94664986324864 228.529494167 L 435.2818531632486 228.529494167 L 435.2818531632486 274.268063407 L 418.94664986324864 274.268063407 L 418.94664986324864 228.529494167" stroke-miterlimit="10" stroke-width="1.3612669416666667" stroke-dasharray=""/><path fill="white" stroke="black" paint-order="fill stroke markers" d=" M 600.5173525719725 274.268063407 L 616.8525558719726 274.268063407 L 616.8525558719726 320.006632647 L 600.5173525719725 320.006632647 L 600.5173525719725 274.268063407" stroke-miterlimit="10" stroke-width="1.3612669416666667" stroke-dasharray=""/><path fill="white" stroke="black" paint-order="fill stroke markers" d=" M 773.6700254955402 320.006632647 L 790.0052287955403 320.006632647 L 790.0052287955403 365.745201887 L 773.6700254955402 365.745201887 L 773.6700254955402 320.006632647" stroke-miterlimit="10" stroke-width="1.3612669416666667" stroke-dasharray=""/><g><g><rect fill="white" stroke="none" x="67.03238900106119" y="161.555160637" width="138.79454292359375" height="21.23576429"/></g><text fill="black" stroke="none" font-family="sans-serif" font-size="11pt" font-style="normal" font-weight="normal" text-decoration="normal" x="69.48266949606119" y="176.25684360699998" text-anchor="start" dominant-baseline="alphabetic" xml:space="preserve">1:realizaTransacao()</text></g><g><path fill="none" stroke="black" paint-order="fill stroke markers" d=" M 47.702398429394535 182.790924927 L 211.7076051126549 182.790924927" stroke-miterlimit="10" stroke-width="1.3612669416666667" stroke-dasharray=""/><g transform="translate(225.15692249632158,182.790924927) translate(-225.15692249632158,-182.790924927)"><path fill="black" stroke="none" paint-order="stroke fill markers" d=" M 211.5442530796549 175.98459021866665 L 225.15692249632158 182.790924927 L 211.5442530796549 189.59725963533333 Z"/></g></g><g><g><rect fill="white" stroke="none" x="260.8221163679882" y="207.293729877" width="138.79454292359375" height="21.23576429"/></g><text fill="black" stroke="none" font-family="sans-serif" font-size="11pt" font-style="normal" font-weight="normal" text-decoration="normal" x="263.2723968629882" y="221.99541284699998" text-anchor="start" dominant-baseline="alphabetic" xml:space="preserve">2:realizaTransacao()</text></g><g><path fill="none" stroke="black" paint-order="fill stroke markers" d=" M 241.49212579632157 228.529494167 L 405.497332479582 228.529494167" stroke-miterlimit="10" stroke-width="1.3612669416666667" stroke-dasharray=""/><g transform="translate(418.94664986324864,228.529494167) translate(-418.94664986324864,-228.529494167)"><path fill="black" stroke="none" paint-order="stroke fill markers" d=" M 405.33398044658196 221.72315945866666 L 418.94664986324864 228.529494167 L 405.33398044658196 235.33582887533333 Z"/></g></g><g><g><rect fill="white" stroke="none" x="454.6118437349153" y="253.032299117" width="126.57551826539063" height="21.23576429"/></g><text fill="black" stroke="none" font-family="sans-serif" font-size="11pt" font-style="normal" font-weight="normal" text-decoration="normal" x="457.0621242299153" y="267.733982087" text-anchor="start" dominant-baseline="alphabetic" xml:space="preserve">3:saveTransacao()</text></g><g><path fill="none" stroke="black" paint-order="fill stroke markers" d=" M 435.2818531632486 274.268063407 L 587.0680351883059 274.268063407" stroke-miterlimit="10" stroke-width="1.3612669416666667" stroke-dasharray=""/><g transform="translate(600.5173525719725,274.268063407) translate(-600.5173525719725,-274.268063407)"><path fill="black" stroke="none" paint-order="stroke fill markers" d=" M 586.9046831553059 267.46172869866666 L 600.5173525719725 274.268063407 L 586.9046831553059 281.07439811533334 Z"/></g></g><g><g><rect fill="white" stroke="none" x="636.1825464436392" y="298.770868357" width="118.15748848023438" height="21.23576429"/></g><text fill="black" stroke="none" font-family="sans-serif" font-size="11pt" font-style="normal" font-weight="normal" text-decoration="normal" x="638.6328269386393" y="313.47255132699996" text-anchor="start" dominant-baseline="alphabetic" xml:space="preserve">4:executeQuery()</text></g><g><path fill="none" stroke="black" paint-order="fill stroke markers" d=" M 616.8525558719726 320.006632647 L 760.2207081118736 320.006632647" stroke-miterlimit="10" stroke-width="1.3612669416666667" stroke-dasharray=""/><g transform="translate(773.6700254955402,320.006632647) translate(-773.6700254955402,-320.006632647)"><path fill="black" stroke="none" paint-order="stroke fill markers" d=" M 760.0573560788736 313.20029793866667 L 773.6700254955402 320.006632647 L 760.0573560788736 326.81296735533334 Z"/></g></g><g><g><rect fill="white" stroke="none" x="688.7272093637564" y="344.509437597" width="4.90056099" height="21.23576429"/></g><text fill="black" stroke="none" font-family="sans-serif" font-size="11pt" font-style="normal" font-weight="normal" text-decoration="normal" x="691.1774898587564" y="359.21112056699997" text-anchor="start" dominant-baseline="alphabetic" xml:space="preserve"></text></g><g><path fill="none" stroke="black" paint-order="fill stroke markers" d=" M 773.6700254955402 365.745201887 L 622.1342716056392 365.745201887" stroke-miterlimit="10" stroke-width="1.3612669416666667" stroke-dasharray="6.53408132"/><g transform="translate(608.6849542219726,365.745201887) translate(-608.6849542219726,-365.745201887)"><path fill="black" stroke="none" paint-order="stroke fill markers" d=" M 622.2976236386393 358.93886717866667 L 608.6849542219726 365.745201887 L 622.2976236386393 372.55153659533335 Z"/></g></g><g><g><rect fill="white" stroke="none" x="515.4493223726106" y="390.248006837" width="4.90056099" height="21.23576429"/></g><text fill="black" stroke="none" font-family="sans-serif" font-size="11pt" font-style="normal" font-weight="normal" text-decoration="normal" x="517.8996028676106" y="404.94968980699997" text-anchor="start" dominant-baseline="alphabetic" xml:space="preserve"></text></g><g><path fill="none" stroke="black" paint-order="fill stroke markers" d=" M 608.6849542219726 411.483771127 L 440.5635688969153 411.483771127" stroke-miterlimit="10" stroke-width="1.3612669416666667" stroke-dasharray="6.53408132"/><g transform="translate(427.11425151324863,411.483771127) translate(-427.11425151324863,-411.483771127)"><path fill="black" stroke="none" paint-order="stroke fill markers" d=" M 440.7269209299153 404.6774364186667 L 427.11425151324863 411.483771127 L 440.7269209299153 418.29010583533335 Z"/></g></g><g><g><rect fill="white" stroke="none" x="327.7691073347851" y="435.986576077" width="4.90056099" height="21.23576429"/></g><text fill="black" stroke="none" font-family="sans-serif" font-size="11pt" font-style="normal" font-weight="normal" text-decoration="normal" x="330.2193878297851" y="450.688259047" text-anchor="start" dominant-baseline="alphabetic" xml:space="preserve"></text></g><g><path fill="none" stroke="black" paint-order="fill stroke markers" d=" M 427.11425151324863 457.222340367 L 246.77384152998826 457.222340367" stroke-miterlimit="10" stroke-width="1.3612669416666667" stroke-dasharray="6.53408132"/><g transform="translate(233.32452414632158,457.222340367) translate(-233.32452414632158,-457.222340367)"><path fill="black" stroke="none" paint-order="stroke fill markers" d=" M 246.93719356298826 450.4160056586667 L 233.32452414632158 457.222340367 L 246.93719356298826 464.02867507533335 Z"/></g></g></g><g/><g/><g/><g/><g/></g></svg>