<svg version="1.1" xmlns="http://www.w3.org/2000/svg" xmlns:xlink="http://www.w3.org/1999/xlink" width="952" height="697"><desc>title%20Update-Usuario%0A%0Aactor%20Usuario%0Aparticipant%20Controller%0Aparticipant%20Service%0Aparticipant%20ServiceGeral%0Aparticipant%20Repository%0Adatabase%20BD%0A%0Aactivate%20Usuario%0AUsuario%20-%3E%20Controller%3A%201%3AatualizaUsuario()%0Adeactivate%20Usuario%0A%0Aactivate%20Controller%0AController%20-%3E%20Service%3A%202%3AfabricaUsuario()%0AService%20--%3EController%3A%20returnUsuario%0AController%20-%3EService%3A%203%3AupdateUsuario()%0Adeactivate%20Controller%0A%0Aactivate%20Service%0AService%20-%3E%20ServiceGeral%3A%204%3AupdateObjeto()%0Adeactivate%20Service%0A%0Aactivate%20ServiceGeral%0AServiceGeral%20-%3E%20Repository%3A%205%3AsaveAndFlush()%0Adeactivate%20ServiceGeral%0A%0Aactivate%20Repository%0ARepository%20-%3EBD%3A6%3AexecuteQuery()%0Adeactivate%20Repository%0A%0Aactivate%20BD%0ABD%20--%3ERepository%3A%0Adeactivate%20BD%0A%0ARepository%20--%3E%20ServiceGeral%3A%0AServiceGeral%20--%3EService%3A%20%0AService%20--%3EController%3A</desc><defs/><g><g/><g/><g/><g/><g/><g/><g/><g/><g/><g/><g/><g><rect fill="white" stroke="none" x="0" y="0" width="952" height="697"/></g><g><text fill="black" stroke="none" font-family="sans-serif" font-size="16.5pt" font-style="normal" font-weight="normal" text-decoration="normal" x="399.10672007752277" y="24.50280495" text-anchor="start" dominant-baseline="alphabetic" xml:space="preserve">Update-Usuario</text></g><g/><g><path fill="none" stroke="black" paint-order="fill stroke markers" d=" M 33.42528445029297 128.884754037 L 33.42528445029297 697.3498288769999" stroke-miterlimit="10" stroke-width="1.3612669416666667" stroke-dasharray="12.565541,5.445067766666667"/><path fill="none" stroke="black" paint-order="fill stroke markers" d=" M 216.35603354573564 128.884754037 L 216.35603354573564 697.3498288769999" stroke-miterlimit="10" stroke-width="1.3612669416666667" stroke-dasharray="12.565541,5.445067766666667"/><path fill="none" stroke="black" paint-order="fill stroke markers" d=" M 393.596032519108 128.884754037 L 393.596032519108 697.3498288769999" stroke-miterlimit="10" stroke-width="1.3612669416666667" stroke-dasharray="12.565541,5.445067766666667"/><path fill="none" stroke="black" paint-order="fill stroke markers" d=" M 563.5132165510742 128.884754037 L 563.5132165510742 697.3498288769999" stroke-miterlimit="10" stroke-width="1.3612669416666667" stroke-dasharray="12.565541,5.445067766666667"/><path fill="none" stroke="black" paint-order="fill stroke markers" d=" M 738.2979542939778 128.884754037 L 738.2979542939778 697.3498288769999" stroke-miterlimit="10" stroke-width="1.3612669416666667" stroke-dasharray="12.565541,5.445067766666667"/><path fill="none" stroke="black" paint-order="fill stroke markers" d=" M 911.4506272175455 128.884754037 L 911.4506272175455 697.3498288769999" stroke-miterlimit="10" stroke-width="1.3612669416666667" stroke-dasharray="12.565541,5.445067766666667"/></g><g><g><path fill="white" stroke="black" paint-order="fill stroke markers" d=" M 42.73635033129297 59.786844078 A 9.311065881 9.311065881 0 1 1 42.73634567576042 59.77753301367084 M 33.42528445029297 69.097909959 L 33.42528445029297 89.026857985 M 21.66393807429297 76.285399411 L 45.18663082629297 76.285399411 M 33.42528445029297 89.026857985 L 21.66393807429297 107.648989747 M 33.42528445029297 89.026857985 L 45.18663082629297 107.648989747" stroke-miterlimit="10" stroke-width="2.7769845610000004" stroke-dasharray=""/></g><g><g/><text fill="black" stroke="none" font-family="sans-serif" font-size="11pt" font-style="normal" font-weight="normal" text-decoration="normal" x="8.167601650000002" y="123.98419304699999" text-anchor="start" dominant-baseline="alphabetic" xml:space="preserve">Usuario</text></g><path fill="none" stroke="none"/><g><path fill="white" stroke="black" paint-order="fill stroke markers" d=" M 166.85712281630987 84.779705127 L 265.8549442751614 84.779705127 L 265.8549442751614 128.884754037 L 166.85712281630987 128.884754037 L 166.85712281630987 84.779705127 Z" stroke-miterlimit="10" stroke-width="2.613632528" stroke-dasharray=""/></g><g><g/><text fill="black" stroke="none" font-family="sans-serif" font-size="11pt" font-style="normal" font-weight="normal" text-decoration="normal" x="184.58081839680986" y="112.549550737" text-anchor="start" dominant-baseline="alphabetic" xml:space="preserve">Controller</text></g><path fill="none" stroke="none"/><g><path fill="white" stroke="black" paint-order="fill stroke markers" d=" M 351.4306941773775 84.779705127 L 435.7613708608385 84.779705127 L 435.7613708608385 128.884754037 L 351.4306941773775 128.884754037 L 351.4306941773775 84.779705127 Z" stroke-miterlimit="10" stroke-width="2.613632528" stroke-dasharray=""/></g><g><g/><text fill="black" stroke="none" font-family="sans-serif" font-size="11pt" font-style="normal" font-weight="normal" text-decoration="normal" x="369.15438975787754" y="112.549550737" text-anchor="start" dominant-baseline="alphabetic" xml:space="preserve">Service</text></g><path fill="none" stroke="none"/><g><path fill="white" stroke="black" paint-order="fill stroke markers" d=" M 503.4237601673515 84.779705127 L 623.6026729347968 84.779705127 L 623.6026729347968 128.884754037 L 503.4237601673515 128.884754037 L 503.4237601673515 84.779705127 Z" stroke-miterlimit="10" stroke-width="2.613632528" stroke-dasharray=""/></g><g><g/><text fill="black" stroke="none" font-family="sans-serif" font-size="11pt" font-style="normal" font-weight="normal" text-decoration="normal" x="521.1474557478515" y="112.549550737" text-anchor="start" dominant-baseline="alphabetic" xml:space="preserve">ServiceGeral</text></g><path fill="none" stroke="none"/><g><path fill="white" stroke="black" paint-order="fill stroke markers" d=" M 685.5384844825207 84.779705127 L 791.0574241054348 84.779705127 L 791.0574241054348 128.884754037 L 685.5384844825207 128.884754037 L 685.5384844825207 84.779705127 Z" stroke-miterlimit="10" stroke-width="2.613632528" stroke-dasharray=""/></g><g><g/><text fill="black" stroke="none" font-family="sans-serif" font-size="11pt" font-style="normal" font-weight="normal" text-decoration="normal" x="703.2621800630208" y="112.549550737" text-anchor="start" dominant-baseline="alphabetic" xml:space="preserve">Repository</text></g><g><path fill="white" stroke="black" paint-order="fill stroke markers" d=" M 887.6012303995456 96.867755569 L 887.6012303995456 62.563828639 L 935.3000240355454 62.563828639 L 935.3000240355454 96.867755569" stroke-miterlimit="10" stroke-width="2.7769845610000004" stroke-dasharray=""/><path fill="white" stroke="black" paint-order="fill stroke markers" d=" M 935.3000240355454 61.3713587981 L 935.2988315756418 61.47916934301662 L 935.2952543151757 61.58696910696859 L 935.2892926118705 61.69474731006935 L 935.2809470618911 61.8024931745884 L 935.2702184997859 61.91019592602908 L 935.257107998402 62.017844794206 L 935.2416168687788 62.125429014322044 L 935.2237466600162 62.232937828044854 L 935.2034991591202 62.34036048458265 L 935.180876390824 62.44768624175929 L 935.1558806173856 62.55490436708851 L 935.1285143383616 62.66200413884712 L 935.098780290357 62.76897484714718 L 935.0666814467519 62.87580579500701 L 935.0322210174038 62.982486299420856 L 934.995402448327 63.08900569242717 L 934.9562294213476 63.19535332217542 L 934.9147058537359 63.30151855399125 L 934.8708358978139 63.40749077143996 L 934.8246239405405 63.5132593773881 L 934.7760746030732 63.618813795063225 L 934.7251927403051 63.724143469111524 L 934.6719834403802 63.82923786665337 L 934.616452024184 63.93408647833659 L 934.558604044812 64.03867881938739 L 934.4984452870139 64.1430044306588 L 934.4359817666152 64.24705287967667 L 934.371219729916 64.35081376168277 L 934.304165653066 64.45427670067541 L 934.2348262414171 64.55743135044686 L 934.1632084288524 64.66026739561813 L 934.0893193770937 64.7627745526704 L 934.0131664749847 64.86494257097338 L 933.9347573377519 64.96676123381039 L 933.8540998062438 65.06822035939997 L 933.7712019461463 65.16930980191414 L 933.6860720471765 65.27001945249287 L 933.598718622253 65.37033924025505 L 933.5091504066459 65.47025913330548 L 933.4173763571018 65.56976913973813 L 933.3234056509493 65.66885930863528 L 933.2272476851808 65.7675197310626 L 933.1289120755127 65.86574054106009 L 933.0284086554238 65.96351191662859 L 932.9257474751728 66.06082408071202 L 932.8209388007917 66.15766730217506 L 932.7139931130608 66.25403189677627 L 932.6049211064599 66.3499082281365 L 932.4937336880986 66.4452867087025 L 932.380441976626 66.54015780070569 L 932.2650573011191 66.63451201711595 L 932.147591199949 66.72833992259025 L 932.0280554196281 66.82163213441623 L 931.9064619136349 66.91437932345046 L 931.7828228412185 67.00657221505134 L 931.6571505661831 67.0982015900065 L 931.5294576556516 67.18925828545483 L 931.3997568788086 67.27973319580266 L 931.2680612056237 67.36961727363435 L 931.1343838055544 67.45890153061701 L 930.9987380462295 67.54757703839935 L 930.8611374921117 67.6356349295045 L 930.7215959031417 67.72306639821673 L 930.5801272333624 67.80986270146201 L 930.4367456295226 67.89601515968236 L 930.2914654296635 67.98151515770375 L 930.1443011616836 68.06635414559763 L 929.9952675418875 68.15052363953589 L 929.8443794735126 68.2340152226393 L 929.6916520452403 68.31682054581911 L 929.5371005296861 68.39893132861202 L 929.3807403818726 68.48033936000816 L 929.2225872376843 68.56103649927225 L 929.062656912304 68.6410146767576 L 928.9009653986308 68.72026589471311 L 928.7375288656815 68.79878222808303 L 928.5723636569729 68.87655582529945 L 928.4054862888886 68.95357890906746 L 928.2369134490261 69.02984377714286 L 928.066661994529 69.10534280310242 L 927.8947489504009 69.18006843710643 L 927.7211915078028 69.25401320665378 L 927.5460070223345 69.32716971732913 L 927.3692130122985 69.39953065354239 L 927.1908271569484 69.47108877926021 L 927.0108672947212 69.54183693872967 L 926.8293514214531 69.61176805719379 L 926.6462976885801 69.68087514159897 L 926.4617244013232 69.74915128129439 L 926.275650016857 69.81658964872294 L 926.088093142465 69.88318350010411 L 925.8990725336783 69.94892617610824 L 925.7086070924005 70.01381110252252 L 925.5167158650166 70.07783179090838 L 925.3234180404899 70.14098183925032 L 925.1287329484413 70.20325493259614 L 924.9326800572181 70.26464484368842 L 924.735278971946 70.32514543358717 L 924.5365494325689 70.38475065228383 L 924.3365113118751 70.44345453930622 L 924.1351846135102 70.50125122431453 L 923.9325894699762 70.55813492768844 L 923.7287461406183 70.61409996110503 L 923.5236750096001 70.66914072810756 L 923.3173965838633 70.72325172466522 L 923.109931491079 70.77642753972344 L 922.9013004775833 70.82866285574504 L 922.6915244063039 70.87995244924193 L 922.4806242546729 70.9302911912975 L 922.2686211125298 70.9796740480795 L 922.0555361800122 71.0280960813434 L 921.8413907654358 71.07555244892625 L 921.6262062831635 71.12203840523081 L 921.4100042514642 71.16754930170019 L 921.1928062903611 71.21208058728268 L 920.9746341194691 71.25562780888683 L 920.7555095558236 71.29818661182675 L 920.5354545116982 71.33975274025764 L 920.3144909924141 71.38032203760127 L 920.0926410941391 71.41989044696174 L 919.8699270016781 71.45845401153106 L 919.6463709862546 71.49600887498494 L 919.4219954032842 71.5325512818683 L 919.1968226901379 71.56807757797091 L 918.9708753638995 71.60258421069277 L 918.7441760191133 71.63606772939937 L 918.5167473255249 71.66852478576672 L 918.288612025814 71.69995213411627 L 918.0597929333208 71.73034663173934 L 917.8303129297634 71.7597052392115 L 917.6001949629514 71.78802502069648 L 917.3694620444893 71.81530314423973 L 917.138137247477 71.84153688205163 L 916.9062437042011 71.86672361078024 L 916.673804603823 71.8908608117737 L 916.4408431900589 71.913946071332 L 916.2073827588559 71.93597708094846 L 915.973446656063 71.95695163754044 L 915.739058275095 71.97686764366978 L 915.504241054595 71.99572310775245 L 915.2690184760894 72.01351614425778 L 915.0334140616397 72.03024497389691 L 914.7974513714914 72.04590792380084 L 914.5611540017168 72.06050342768764 L 914.3245455818558 72.07403002601906 L 914.0876497725532 72.08648636614654 L 913.8504902631927 72.09787120244648 L 913.6130907695275 72.1081833964447 L 913.3754750313091 72.11742191693043 L 913.1376668099134 72.12558584005929 L 912.8996898859643 72.13267434944576 L 912.661568056956 72.13868673624485 L 912.4233251348728 72.14362239922286 L 912.1849849438084 72.14748084481762 L 911.9465713175834 72.1502616871878 L 911.7081080973617 72.15196464825142 L 911.4696191292666 72.15258955771385 L 911.231128261996 72.15213635308466 L 910.9926593444382 72.15060507968391 L 910.754236223286 72.14799589063767 L 910.515882740653 72.1443090468627 L 910.2776227316886 72.13954491704027 L 910.0394800221953 72.1337039775794 L 909.8014784262457 72.12678681256918 L 909.5636417438009 72.11879411372033 L 909.3259937583309 72.10972668029609 L 909.0885582344364 72.09958541903224 L 908.8513589154717 72.08837134404646 L 908.6144195211713 72.07608557673689 L 908.377763745277 72.06272934567005 L 908.1414152531692 72.04830398645788 L 907.9053976795001 72.0328109416243 L 907.6697346258305 72.01625176046089 L 907.4344496582694 71.99862809887196 L 907.1995663051174 71.97994171920898 L 906.9651080545141 71.96019449009434 L 906.7310983520892 71.9393883862345 L 906.4975605986178 71.91752548822251 L 906.264518147681 71.89460798232996 L 906.0319943033293 71.87063816028832 L 905.8000123177534 71.84561841905983 L 905.5685953889588 71.81955126059778 L 905.3377666584453 71.79243929159627 L 905.1075492088937 71.7642852232296 L 904.8779660618571 71.73509187088118 L 904.6490401754588 71.7048621538619 L 904.4207944420968 71.67359909511825 L 904.1932516861542 71.64130582093009 L 903.9664346617169 71.6079855605979 L 903.7403660502985 71.57364164611994 L 903.5150684585715 71.53827751185906 L 903.2905644161074 71.50189669419922 L 903.0668763731235 71.46450283119185 L 902.8440266982376 71.42609966219209 L 902.6220376762315 71.38669102748484 L 902.4009315058224 71.34628086790075 L 902.180730297443 71.30487322442208 L 901.9614560710309 71.26247223777868 L 901.7431307538257 71.21908214803388 L 901.5257761781772 71.17470729416048 L 901.3094140793622 71.12935211360693 L 901.0940660934099 71.08302114185344 L 900.8797537549397 71.0357190119586 L 900.6664984950065 70.987450454096 L 900.4543216389591 70.93822029508118 L 900.2432444043058 70.88803345788901 L 900.0332878985944 70.8368949611614 L 899.8244731173005 70.7848099187054 L 899.6168209417282 70.73178353898187 L 899.410352136922 70.67782112458457 L 899.2050873495904 70.62292807170999 L 899.0010471060409 70.56710986961765 L 898.7982518101279 70.51037210008127 L 898.5967217412121 70.4527204368305 L 898.3964770521325 70.39416064498364 L 898.1975377671909 70.33469858047107 L 897.9999237801501 70.27434018944969 L 897.8036548522442 70.2130915077083 L 897.6087506102024 70.15095866006402 L 897.4152305442865 70.08794785974987 L 897.2231140063417 70.02406540779336 L 897.032420207862 69.95931769238642 L 896.843168218068 69.89371118824668 L 896.655376962001 69.82725245596986 L 896.4690652186304 69.7599481413738 L 896.284251618975 69.69180497483389 L 896.1009546442409 69.62282977060998 L 895.9191926239728 69.55302942616503 L 895.7389837342212 69.4824109214753 L 895.5603459957249 69.41098131833243 L 895.383297272109 69.3387477596372 L 895.2078552680981 69.26571746868528 L 895.0340375277467 69.19189774844492 L 894.8618614326838 69.1172959808266 L 894.6913442003754 69.04191962594494 L 894.5225028824028 68.96577622137262 L 894.3553543627569 68.88887338138663 L 894.1899153561505 68.81121879620689 L 894.0262024063463 68.73282023122718 L 893.864231884503 68.6536855262387 L 893.7040199875378 68.573822594646 L 893.5455827365066 68.49323942267567 L 893.3889359750028 68.41194406857777 L 893.234095367572 68.32994466181995 L 893.0810763981456 68.24724940227456 L 892.9298943684934 68.16386655939866 L 892.7805643966921 68.07980447140702 L 892.6331014156145 67.99507154443839 L 892.487520171436 67.90967625171488 L 892.3438352221596 67.8236271326946 L 892.2020609361604 67.73693279221771 L 892.062211490749 67.64960189964606 L 891.9243008707532 67.56164318799608 L 891.7883428671202 67.47306545306569 L 891.6543510755371 67.38387755255452 L 891.5223388950714 67.29408840517834 L 891.392319526831 67.20370698977703 L 891.2643059726445 67.11274234441683 L 891.1383110337606 67.02120356548647 L 891.0143473095683 66.92909980678756 L 890.8924271963366 66.83644027861922 L 890.7725628859752 66.74323424685704 L 890.6547663648153 66.64949103202653 L 890.5390494124108 66.55522000837107 L 890.4254236003605 66.46043060291444 L 890.3139002911512 66.3651322945182 L 890.2044906370205 66.2693346129338 L 890.0972055788428 66.17304713784955 L 889.9920558450345 66.07627949793272 L 889.8890519504815 65.97904136986665 L 889.7882041954872 65.88134247738313 L 889.6895226647431 65.78319259028999 L 889.5930172263202 65.68460152349414 L 889.4986975306817 65.58557913602012 L 889.4065730097187 65.48613533002413 L 889.3166528758065 65.38628004980393 L 889.2289461208836 65.2860232808043 L 889.1434615155523 65.18537504861862 L 889.0602076082021 65.08434541798623 L 888.979192724154 64.982944491786 L 888.9004249648292 64.88118241002603 L 888.823912206938 64.77906934882972 L 888.7496621016921 64.67661551941809 L 888.6776820740406 64.5738311670887 L 888.6079793219259 64.47072657019112 L 888.5405608155654 64.36731203909913 L 888.4754332967534 64.26359791517966 L 888.4126032781875 64.15959456975868 L 888.3520770428173 64.05531240308405 L 888.2938606432158 63.95076184328555 L 888.2379599009746 63.84595334533201 L 888.1843804061211 63.74089738998592 L 888.1331275165603 63.63560448275524 L 888.0842063575385 63.530085152842965 L 888.0376218211306 63.42434995209415 L 887.9933785657518 63.318409453940745 L 887.9514810156903 63.2122742523443 L 887.9119333606666 63.105954960736526 L 887.8747395554129 62.99946221095797 L 887.8399033192791 62.892806652194885 L 887.8074281358594 62.78599894991426 L 887.7773172526454 62.679049784797314 L 887.7495736807001 62.57196985167143 L 887.7242001943578 62.464769858440704 L 887.7011993309458 62.357460525015114 L 887.6805733905313 62.25005258223858 L 887.6623244356912 62.14255677081588 L 887.6464542913058 62.03498384023857 L 887.6329645443763 61.92734454771006 L 887.621856543866 61.81964965706991 L 887.613131400566 61.71190993771744 L 887.606789986983 61.6041361635348 L 887.6028329372534 61.49633911180959 L 887.6012606470787 61.38852956215717 L 887.6020732736866 61.28071829544265 L 887.6052707358152 61.172916092702856 L 887.6108527137209 61.06513373406823 L 887.6188186492105 60.957381997684834 L 887.6291677456973 60.84967165863649 L 887.6418989682801 60.74201348786736 L 887.6570110438472 60.6344182511048 L 887.6745024612038 60.526896707782825 L 887.6943714712227 60.41945960996616 L 887.7166160870192 60.31211770127506 L 887.7412340841507 60.204881715810956 L 887.7682230008377 60.097762377083015 L 887.7975801382111 59.99077039693585 L 887.8293025605816 59.88391647447831 L 887.8633870957335 59.7772112950136 L 887.8998303352415 59.67066552897075 L 887.9386286348123 59.56428983083758 L 887.979778114648 59.45809483809524 L 888.023274659835 59.35209117015452 L 888.0691139207551 59.24628942729389 L 888.1172913135202 59.14070018959944 L 888.1678020204315 59.03533401590697 L 888.2206409904601 58.93020144274604 L 888.2758029397532 58.82531298328635 L 888.3332823521619 58.72067912628645 L 888.3930734797926 58.61631033504484 L 888.4551703435825 58.51221704635366 L 888.519566733897 58.40840966945505 L 888.5862562111508 58.30489858500019 L 888.6552321064516 58.20169414401126 L 888.7264875222675 58.098806666846365 L 888.8000153331161 57.996246442167475 L 888.8758081862777 57.894023725911595 L 888.9538585025301 57.79214874026516 L 889.0341584769069 57.69063167264185 L 889.1167000794773 57.58948267466382 L 889.20147505615 57.488711861146584 L 889.288474929498 57.38832930908751 L 889.3776909996063 57.28834505665816 L 889.4691143449425 57.18876910220045 L 889.562735823248 57.08961140322686 L 889.658546072453 56.99088187542464 L 889.7565355116126 56.8925903916643 L 889.8566943418645 56.794746781012314 L 889.959012547409 56.6973608277482 L 890.0634798965108 56.60044227038614 L 890.1700859425223 56.5040008007011 L 890.2788200249275 56.40804606275968 L 890.3896712704088 56.31258765195572 L 890.5026285939342 56.217635114050736 L 890.6176806998653 56.12319794421941 L 890.7348160830875 56.029285586100016 L 890.8540230301599 55.93590743085011 L 890.9752896204873 55.8430728162074 L 891.0986037275118 55.75079102555599 L 891.2239530199251 55.65907128699804 L 891.3513249629028 55.56792277243099 L 891.4807068193567 55.47735459663031 L 891.6120856512088 55.387375816338135 L 891.7454483206853 55.29799542935749 L 891.8807814916307 55.20922237365261 L 892.0180716308406 55.12106552645507 L 892.1573050094154 55.033533703376136 L 892.2984677041333 54.94663565752517 L 892.4415455988424 54.86038007863435 L 892.5865243858725 54.77477559218967 L 892.7333895674658 54.689830758568455 L 892.8821264572265 54.60555407218327 L 893.0327201815894 54.52195396063252 L 893.1851556813078 54.439038783857704 L 893.3394177129586 54.35681683330739 L 893.4954908504673 54.27529633110813 L 893.6533594866501 54.19448542924221 L 893.813007834775 54.114392208732454 L 893.9744199301401 54.03502467883419 L 894.1375796316706 53.95639077623426 L 894.3024706235321 53.878498364257396 L 894.4690764167631 53.801355232079885 L 894.6373803509229 53.72496909395066 L 894.8073655957581 53.649347588419886 L 894.9790151528864 53.57449827757509 L 895.1523118574949 53.50042864628498 L 895.3272383800573 53.42714610145097 L 895.5037772280675 53.35465797126647 L 895.6819107477876 53.28297150448409 L 895.8616211260141 53.21209386969077 L 896.042890391859 53.14203215459092 L 896.2257004185467 53.072793365297684 L 896.4100329252269 53.00438442563227 L 896.5958694788027 52.93681217643165 L 896.7831914957733 52.870083374864436 L 896.9719802440932 52.80420469375517 L 897.162216845045 52.739182720917064 L 897.3538822751271 52.67502395849323 L 897.5469573679562 52.611734822306424 L 897.7414228161839 52.54932164121754 L 897.9372591734275 52.48779065649267 L 898.1344468562143 52.427148021179015 L 898.3329661459405 52.36739979948956 L 898.5327971908425 52.3085519661967 L 898.7339200079823 52.25061040603471 L 898.9363144852459 52.19358091311133 L 899.1399603833543 52.13746919032833 L 899.344837337887 52.08228084881122 L 899.5509248613197 52.02802140734818 L 899.7582023450716 51.974696291838114 L 899.9666490615671 51.922310834748146 L 900.1762441663083 51.87087027458034 L 900.3869666999592 51.82037975534783 L 900.5987955904423 51.770844326060484 L 900.8117096550449 51.72226894021993 L 901.025687602538 51.674658455324284 L 901.2407080353053 51.62801763238236 L 901.4567494514824 51.58235113543759 L 901.673790247108 51.5376635311016 L 901.8918087182833 51.49395928809759 L 902.1107830633429 51.451242776813444 L 902.3306913850347 51.409518268864694 L 902.5515116927098 51.368789936667355 L 902.7732219045215 51.32906185302072 L 902.9957998496334 51.29033799070003 L 903.2192232704364 51.252622222059266 L 903.4434698247745 51.21591831864385 L 903.6685170881794 51.18022995081354 L 903.8943425561122 51.14556068737539 L 904.1209236462142 51.11191399522683 L 904.3482377005654 51.079293239009054 L 904.5762619879495 51.047701680770494 L 904.804973706128 51.01714247964064 L 905.0343499841196 50.98761869151416 L 905.2643678844877 50.95913326874524 L 905.4950044056338 50.93168905985244 L 905.7262364840982 50.90528880923376 L 905.9580409968655 50.87993515689227 L 906.1903947636779 50.85563063817208 L 906.4232745493521 50.83237768350481 L 906.6566570661037 50.81017861816654 L 906.8905189758755 50.78903566204531 L 907.1248368926713 50.768950929419105 L 907.3595873848948 50.749926428744466 L 907.5947469776924 50.7319640624556 L 907.8302921553008 50.71506562677416 L 908.0661993633984 50.69923281152964 L 908.3024450114611 50.684467199990365 L 908.5390054751209 50.6707702687052 L 908.7758570985287 50.658143387355835 L 909.0129761967194 50.64658781861989 L 909.2503390579808 50.63610471804463 L 909.4879219462246 50.62669513393135 L 909.7257011033598 50.61836000723063 L 909.9636527516692 50.61110017144819 L 910.2017530961859 50.604916352561574 L 910.4399783270741 50.5998091689475 L 910.6783046220091 50.595779131320086 L 910.9167081485601 50.592826642679725 L 911.155165066573 50.59095199827282 L 911.3936515305548 50.59015538556226 L 911.6321436920579 50.59043688420866 L 911.8706177020647 50.59179646606236 L 912.1090497133731 50.594233995166334 L 912.3474158829806 50.59774922776969 L 912.5856923744689 50.6023418123521 L 912.8238553603874 50.60801128965893 L 913.0618810246359 50.61475709274719 L 913.2997455648464 50.622578547042174 L 913.537425194763 50.63147487040497 L 913.7748961466211 50.64144517321068 L 914.0121346735231 50.6524884584373 L 914.249117051814 50.66460362176552 L 914.4858195834536 50.67778945168912 L 914.7222185983859 50.69204462963607 L 914.9582904569065 50.70736773010048 L 915.1940115520262 50.72375722078505 L 915.4293583118318 50.74121146275439 L 915.6643072018437 50.759728710598836 L 915.8988347273685 50.77930711260903 L 916.1329174358492 50.79994471096109 L 916.3665319192099 50.821639441912396 L 916.599654816197 50.844389136007905 L 916.8322628147151 50.86819151829718 L 917.0643326541582 50.893044208561825 L 917.2958411277357 50.91894472155353 L 917.5267650847932 50.94589046724256 L 917.7570814331274 50.973878751076825 L 917.9867671412953 51.00290677425126 L 918.2157992409177 51.03297163398772 L 918.4441548289753 51.064070323825305 L 918.6718110700998 51.09619973392093 L 918.8987451988565 51.129356651360375 L 919.1249345220219 51.16353776047952 L 919.3503564208522 51.198739643195935 L 919.5749883533451 51.23495877935069 L 919.7988078564948 51.27219154706035 L 920.0217925485374 51.31043422307917 L 920.2439201311894 51.349682983171405 L 920.4651683918779 51.38993390249377 L 920.685515205961 51.43118295598788 L 920.9049385389409 51.47342601878273 L 921.1234164486673 51.51665886660727 L 921.3409270875312 51.56087717621274 L 921.55744870465 51.60607652580503 L 921.7729596480424 51.65225239548683 L 921.9874383667936 51.69940016770967 L 922.2008634132106 51.74751512773561 L 922.4132134449666 51.79659246410874 L 922.6244672272353 51.84662726913632 L 922.8346036348145 51.89761453937955 L 923.0436016542385 51.949549176153894 L 923.2514403858797 52.00242598603895 L 923.458099046038 52.0562396813978 L 923.6635569690197 52.11098488090573 L 923.8677936092037 52.16665611008844 L 924.070788543096 52.22324780186939 L 924.2725214713726 52.28075429712656 L 924.4729722209087 52.339169845258354 L 924.6721207467963 52.398488604758626 L 924.8699471343489 52.458704643800864 L 925.0664316010925 52.51981194083135 L 925.2615544987443 52.581804385171296 L 925.4552963151771 52.64467577762793 L 925.6476376763704 52.708419831114405 L 925.8385593483489 52.77303017127848 L 926.028042239104 52.83850033713999 L 926.2160674005049 52.90482378173691 L 926.402616030192 52.97199387278003 L 926.5876694734577 53.040003893316246 L 926.771209225112 53.108847042400164 L 926.9532169313327 53.17851643577425 L 927.1336743915008 53.24900510655722 L 927.3125635600206 53.32030600594074 L 927.4898665481244 53.39241200389429 L 927.6655656256612 53.465315889878156 L 927.8396432228695 53.5390103735645 L 928.0120819321348 53.61348808556637 L 928.1828645097298 53.68874157817461 L 928.3519738775391 53.76476332610268 L 928.5193931247667 53.84154572723915 L 928.6851055096275 53.91908110340788 L 928.8490944610212 53.99736170113587 L 929.0113435801892 54.07637969242858 L 929.1718366423548 54.156127175552726 L 929.3305575983456 54.236596175826456 L 929.4874905761982 54.3177786464168 L 929.6426198827455 54.39966646914434 L 929.7959300051864 54.48225145529506 L 929.9474056126361 54.56552534643915 L 930.0970315576602 54.6494798152569 L 930.244792877789 54.73410646637139 L 930.3906747970135 54.81939683718802 L 930.5346627272634 54.9053423987408 L 930.6767422698656 54.99193455654518 L 930.8168992169843 55.079164651457546 L 930.9551195530415 55.16702396054111 L 931.0913894561189 55.25550369793815 L 931.2256952993397 55.344595015748695 L 931.3580236522315 55.43428900491518 L 931.4883612820691 55.52457669611344 L 931.6166951551985 55.615449060649595 L 931.7430124383392 55.706897011362926 L 931.8673004998678 55.79891140353456 L 931.9895469110822 55.891483035801954 L 932.109739447443 55.98460265107904 L 932.2278660897966 56.07826093748187 L 932.3439150255773 56.17244852925987 L 932.4578746499882 56.26715600773234 L 932.5697335671618 56.36237390223035 L 932.6794805912997 56.45809269104382 L 932.7871047477909 56.55430280237361 L 932.8925952743093 56.65099461528878 L 932.9959416218903 56.74815846068861 L 933.0971334559853 56.84578462226952 L 933.1961606574952 56.943863337496715 L 933.2930133237821 57.0423847985804 L 933.3876817696605 57.14133915345658 L 933.4801565283644 57.240716506772216 L 933.5704283524952 57.34050692087479 L 933.6584882149456 57.44070041680606 L 933.7443273098027 57.54128697529992 L 933.8279370532287 57.64225653778434 L 933.9093090843186 57.74359900738722 L 933.9884352659375 57.84530424994605 L 934.065307685533 57.94736209502132 L 934.1399186559271 58.04976233691358 L 934.2122607160852 58.15249473568397 L 934.2823266318613 58.25554901817823 L 934.3501093967224 58.35891487905398 L 934.4156022324484 58.46258198181127 L 934.4787985898101 58.566539959826216 L 934.539692149225 58.67077841738765 L 934.5982768213873 58.77528693073668 L 934.654546747879 58.88005504910905 L 934.7084963017542 58.985072295780256 L 934.7601200881024 59.09032816911312 L 934.8094129445881 59.19581214360803 L 934.8563699419667 59.301513670955444 L 934.9009863845775 59.4074221810907 L 934.9432578108136 59.513527083251056 L 934.9831799935674 59.619817767034704 L 935.0207489406541 59.72628360346185 L 935.0559608952101 59.832913946037564 L 935.0888123360694 59.939698131816456 L 935.1192999781154 60.046625482468926 L 935.147420772609 60.153685305349015 L 935.1731719074944 60.26086689456366 L 935.1965508076796 60.36815953204325 L 935.2175551352939 60.47555248861345 L 935.2361827899222 60.5830350250681 L 935.2524319088144 60.69059639324311 L 935.2663008670723 60.79822583709131 L 935.2777882778116 60.905912593758 L 935.2868929923007 61.01364589465726 L 935.293614100076 61.12141496654876 L 935.2979509290319 61.22920903261514 L 935.2999030454895 61.337017313539604 M 935.3000240355454 95.6752857281 L 935.2988315756418 95.78309627301661 L 935.2952543151757 95.89089603696858 L 935.2892926118705 95.99867424006935 L 935.2809470618911 96.1064201045884 L 935.2702184997859 96.21412285602908 L 935.257107998402 96.321771724206 L 935.2416168687788 96.42935594432204 L 935.2237466600162 96.53686475804484 L 935.2034991591202 96.64428741458265 L 935.180876390824 96.75161317175929 L 935.1558806173856 96.85883129708851 L 935.1285143383616 96.96593106884711 L 935.098780290357 97.07290177714718 L 935.0666814467519 97.17973272500701 L 935.0322210174038 97.28641322942086 L 934.995402448327 97.39293262242717 L 934.9562294213476 97.49928025217542 L 934.9147058537359 97.60544548399125 L 934.8708358978139 97.71141770143996 L 934.8246239405405 97.8171863073881 L 934.7760746030732 97.92274072506322 L 934.7251927403051 98.02807039911151 L 934.6719834403802 98.13316479665336 L 934.616452024184 98.23801340833658 L 934.558604044812 98.34260574938737 L 934.4984452870139 98.4469313606588 L 934.4359817666152 98.55097980967666 L 934.371219729916 98.65474069168278 L 934.304165653066 98.7582036306754 L 934.2348262414171 98.86135828044685 L 934.1632084288524 98.96419432561812 L 934.0893193770937 99.0667014826704 L 934.0131664749847 99.16886950097337 L 933.9347573377519 99.27068816381038 L 933.8540998062438 99.37214728939998 L 933.7712019461463 99.47323673191414 L 933.6860720471765 99.57394638249288 L 933.598718622253 99.67426617025505 L 933.5091504066459 99.77418606330548 L 933.4173763571018 99.87369606973812 L 933.3234056509493 99.97278623863527 L 933.2272476851808 100.0714466610626 L 933.1289120755127 100.1696674710601 L 933.0284086554238 100.2674388466286 L 932.9257474751728 100.36475101071201 L 932.8209388007917 100.46159423217506 L 932.7139931130608 100.55795882677627 L 932.6049211064599 100.65383515813649 L 932.4937336880986 100.74921363870249 L 932.380441976626 100.84408473070569 L 932.2650573011191 100.93843894711594 L 932.147591199949 101.03226685259024 L 932.0280554196281 101.12555906441622 L 931.9064619136349 101.21830625345046 L 931.7828228412185 101.31049914505132 L 931.6571505661831 101.4021285200065 L 931.5294576556516 101.49318521545483 L 931.3997568788086 101.58366012580265 L 931.2680612056237 101.67354420363434 L 931.1343838055544 101.762828460617 L 930.9987380462295 101.85150396839936 L 930.8611374921117 101.93956185950451 L 930.7215959031417 102.02699332821673 L 930.5801272333624 102.11378963146201 L 930.4367456295226 102.19994208968237 L 930.2914654296635 102.28544208770374 L 930.1443011616836 102.37028107559762 L 929.9952675418875 102.45445056953588 L 929.8443794735126 102.53794215263929 L 929.6916520452403 102.6207474758191 L 929.5371005296861 102.70285825861201 L 929.3807403818726 102.78426629000816 L 929.2225872376843 102.86496342927225 L 929.062656912304 102.9449416067576 L 928.9009653986308 103.02419282471311 L 928.7375288656815 103.10270915808303 L 928.5723636569729 103.18048275529944 L 928.4054862888886 103.25750583906745 L 928.2369134490261 103.33377070714286 L 928.066661994529 103.4092697331024 L 927.8947489504009 103.48399536710642 L 927.7211915078028 103.55794013665377 L 927.5460070223345 103.63109664732913 L 927.3692130122985 103.70345758354237 L 927.1908271569484 103.7750157092602 L 927.0108672947212 103.84576386872968 L 926.8293514214531 103.91569498719377 L 926.6462976885801 103.98480207159896 L 926.4617244013232 104.05307821129438 L 926.275650016857 104.12051657872294 L 926.088093142465 104.1871104301041 L 925.8990725336783 104.25285310610823 L 925.7086070924005 104.31773803252251 L 925.5167158650166 104.38175872090837 L 925.3234180404899 104.44490876925032 L 925.1287329484413 104.50718186259614 L 924.9326800572181 104.5685717736884 L 924.735278971946 104.62907236358716 L 924.5365494325689 104.68867758228383 L 924.3365113118751 104.7473814693062 L 924.1351846135102 104.80517815431453 L 923.9325894699762 104.86206185768845 L 923.7287461406183 104.91802689110501 L 923.5236750096001 104.97306765810755 L 923.3173965838633 105.02717865466522 L 923.109931491079 105.08035446972343 L 922.9013004775833 105.13258978574503 L 922.6915244063039 105.18387937924192 L 922.4806242546729 105.23421812129749 L 922.2686211125298 105.28360097807949 L 922.0555361800122 105.33202301134341 L 921.8413907654358 105.37947937892625 L 921.6262062831635 105.4259653352308 L 921.4100042514642 105.4714762317002 L 921.1928062903611 105.51600751728267 L 920.9746341194691 105.55955473888682 L 920.7555095558236 105.60211354182675 L 920.5354545116982 105.64367967025764 L 920.3144909924141 105.68424896760128 L 920.0926410941391 105.72381737696173 L 919.8699270016781 105.76238094153106 L 919.6463709862546 105.79993580498493 L 919.4219954032842 105.83647821186828 L 919.1968226901379 105.8720045079709 L 918.9708753638995 105.90651114069276 L 918.7441760191133 105.93999465939936 L 918.5167473255249 105.97245171576672 L 918.288612025814 106.00387906411626 L 918.0597929333208 106.03427356173933 L 917.8303129297634 106.0636321692115 L 917.6001949629514 106.09195195069648 L 917.3694620444893 106.11923007423972 L 917.138137247477 106.14546381205162 L 916.9062437042011 106.17065054078024 L 916.673804603823 106.1947877417737 L 916.4408431900589 106.21787300133201 L 916.2073827588559 106.23990401094846 L 915.973446656063 106.26087856754044 L 915.739058275095 106.28079457366978 L 915.504241054595 106.29965003775246 L 915.2690184760894 106.31744307425777 L 915.0334140616397 106.3341719038969 L 914.7974513714914 106.34983485380084 L 914.5611540017168 106.36443035768762 L 914.3245455818558 106.37795695601905 L 914.0876497725532 106.39041329614655 L 913.8504902631927 106.40179813244647 L 913.6130907695275 106.4121103264447 L 913.3754750313091 106.42134884693041 L 913.1376668099134 106.42951277005928 L 912.8996898859643 106.43660127944577 L 912.661568056956 106.44261366624485 L 912.4233251348728 106.44754932922287 L 912.1849849438084 106.45140777481762 L 911.9465713175834 106.45418861718778 L 911.7081080973617 106.45589157825142 L 911.4696191292666 106.45651648771386 L 911.231128261996 106.45606328308465 L 910.9926593444382 106.4545320096839 L 910.754236223286 106.45192282063768 L 910.515882740653 106.44823597686269 L 910.2776227316886 106.44347184704026 L 910.0394800221953 106.43763090757939 L 909.8014784262457 106.43071374256917 L 909.5636417438009 106.42272104372033 L 909.3259937583309 106.41365361029608 L 909.0885582344364 106.40351234903224 L 908.8513589154717 106.39229827404645 L 908.6144195211713 106.38001250673689 L 908.377763745277 106.36665627567004 L 908.1414152531692 106.35223091645787 L 907.9053976795001 106.33673787162431 L 907.6697346258305 106.32017869046089 L 907.4344496582694 106.30255502887195 L 907.1995663051174 106.28386864920897 L 906.9651080545141 106.26412142009434 L 906.7310983520892 106.2433153162345 L 906.4975605986178 106.22145241822251 L 906.264518147681 106.19853491232995 L 906.0319943033293 106.17456509028831 L 905.8000123177534 106.14954534905984 L 905.5685953889588 106.12347819059778 L 905.3377666584453 106.09636622159626 L 905.1075492088937 106.06821215322961 L 904.8779660618571 106.03901880088118 L 904.6490401754588 106.0087890838619 L 904.4207944420968 105.97752602511825 L 904.1932516861542 105.94523275093007 L 903.9664346617169 105.91191249059789 L 903.7403660502985 105.87756857611994 L 903.5150684585715 105.84220444185907 L 903.2905644161074 105.8058236241992 L 903.0668763731235 105.76842976119184 L 902.8440266982376 105.73002659219209 L 902.6220376762315 105.69061795748485 L 902.4009315058224 105.65020779790075 L 902.180730297443 105.60880015442207 L 901.9614560710309 105.56639916777867 L 901.7431307538257 105.52300907803387 L 901.5257761781772 105.47863422416049 L 901.3094140793622 105.43327904360692 L 901.0940660934099 105.38694807185344 L 900.8797537549397 105.33964594195861 L 900.6664984950065 105.291377384096 L 900.4543216389591 105.24214722508117 L 900.2432444043058 105.19196038788901 L 900.0332878985944 105.1408218911614 L 899.8244731173005 105.08873684870541 L 899.6168209417282 105.03571046898188 L 899.410352136922 104.98174805458457 L 899.2050873495904 104.92685500170998 L 899.0010471060409 104.87103679961766 L 898.7982518101279 104.81429903008126 L 898.5967217412121 104.75664736683049 L 898.3964770521325 104.69808757498365 L 898.1975377671909 104.63862551047107 L 897.9999237801501 104.57826711944969 L 897.8036548522442 104.51701843770829 L 897.6087506102024 104.45488559006402 L 897.4152305442865 104.39187478974986 L 897.2231140063417 104.32799233779335 L 897.032420207862 104.26324462238642 L 896.843168218068 104.19763811824667 L 896.655376962001 104.13117938596986 L 896.4690652186304 104.0638750713738 L 896.284251618975 103.99573190483389 L 896.1009546442409 103.92675670060999 L 895.9191926239728 103.85695635616503 L 895.7389837342212 103.7863378514753 L 895.5603459957249 103.71490824833242 L 895.383297272109 103.64267468963719 L 895.2078552680981 103.56964439868527 L 895.0340375277467 103.4958246784449 L 894.8618614326838 103.4212229108266 L 894.6913442003754 103.34584655594495 L 894.5225028824028 103.26970315137261 L 894.3553543627569 103.19280031138662 L 894.1899153561505 103.11514572620688 L 894.0262024063463 103.03674716122718 L 893.864231884503 102.9576124562387 L 893.7040199875378 102.87774952464599 L 893.5455827365066 102.79716635267567 L 893.3889359750028 102.71587099857777 L 893.234095367572 102.63387159181995 L 893.0810763981456 102.55117633227457 L 892.9298943684934 102.46779348939864 L 892.7805643966921 102.383731401407 L 892.6331014156145 102.29899847443839 L 892.487520171436 102.21360318171489 L 892.3438352221596 102.12755406269459 L 892.2020609361604 102.04085972221772 L 892.062211490749 101.95352882964605 L 891.9243008707532 101.86557011799609 L 891.7883428671202 101.77699238306569 L 891.6543510755371 101.68780448255453 L 891.5223388950714 101.59801533517833 L 891.392319526831 101.50763391977702 L 891.2643059726445 101.41666927441683 L 891.1383110337606 101.32513049548646 L 891.0143473095683 101.23302673678755 L 890.8924271963366 101.14036720861921 L 890.7725628859752 101.04716117685703 L 890.6547663648153 100.95341796202653 L 890.5390494124108 100.85914693837105 L 890.4254236003605 100.76435753291443 L 890.3139002911512 100.66905922451821 L 890.2044906370205 100.5732615429338 L 890.0972055788428 100.47697406784954 L 889.9920558450345 100.3802064279327 L 889.8890519504815 100.28296829986664 L 889.7882041954872 100.18526940738312 L 889.6895226647431 100.08711952028997 L 889.5930172263202 99.98852845349413 L 889.4986975306817 99.8895060660201 L 889.4065730097187 99.79006226002413 L 889.3166528758065 99.69020697980392 L 889.2289461208836 99.5899502108043 L 889.1434615155523 99.48930197861863 L 889.0602076082021 99.38827234798623 L 888.979192724154 99.28687142178599 L 888.9004249648292 99.18510934002603 L 888.823912206938 99.08299627882971 L 888.7496621016921 98.98054244941808 L 888.6776820740406 98.87775809708869 L 888.6079793219259 98.7746535001911 L 888.5405608155654 98.67123896909912 L 888.4754332967534 98.56752484517966 L 888.4126032781875 98.46352149975867 L 888.3520770428173 98.35923933308405 L 888.2938606432158 98.25468877328554 L 888.2379599009746 98.14988027533201 L 888.1843804061211 98.04482431998592 L 888.1331275165603 97.93953141275524 L 888.0842063575385 97.83401208284296 L 888.0376218211306 97.72827688209414 L 887.9933785657518 97.62233638394075 L 887.9514810156903 97.5162011823443 L 887.9119333606666 97.40988189073651 L 887.8747395554129 97.30338914095798 L 887.8399033192791 97.19673358219488 L 887.8074281358594 97.08992587991426 L 887.7773172526454 96.9829767147973 L 887.7495736807001 96.87589678167143 L 887.7242001943578 96.7686967884407 L 887.7011993309458 96.66138745501512 L 887.6805733905313 96.55397951223858 L 887.6623244356912 96.44648370081588 L 887.6464542913058 96.33891077023856 L 887.6329645443763 96.23127147771005 L 887.621856543866 96.1235765870699 L 887.613131400566 96.01583686771744 L 887.606789986983 95.90806309353479 L 887.6028329372534 95.80026604180959 L 887.6012606470787 95.69245649215716" stroke-miterlimit="10" stroke-width="2.7769845610000004" stroke-dasharray=""/></g><g><g/><text fill="black" stroke="none" font-family="sans-serif" font-size="11pt" font-style="normal" font-weight="normal" text-decoration="normal" x="901.2680939533853" y="123.98419304699999" text-anchor="start" dominant-baseline="alphabetic" xml:space="preserve">BD</text></g></g><g><path fill="white" stroke="black" paint-order="fill stroke markers" d=" M 25.25768280029297 137.052355687 L 41.59288610029297 137.052355687 L 41.59288610029297 182.790924927 L 25.25768280029297 182.790924927 L 25.25768280029297 137.052355687" stroke-miterlimit="10" stroke-width="1.3612669416666667" stroke-dasharray=""/><path fill="white" stroke="black" paint-order="fill stroke markers" d=" M 208.18843189573565 182.790924927 L 224.52363519573564 182.790924927 L 224.52363519573564 320.006632647 L 208.18843189573565 320.006632647 L 208.18843189573565 182.790924927" stroke-miterlimit="10" stroke-width="1.3612669416666667" stroke-dasharray=""/><path fill="white" stroke="black" paint-order="fill stroke markers" d=" M 385.428430869108 320.006632647 L 401.763634169108 320.006632647 L 401.763634169108 365.745201887 L 385.428430869108 365.745201887 L 385.428430869108 320.006632647" stroke-miterlimit="10" stroke-width="1.3612669416666667" stroke-dasharray=""/><path fill="white" stroke="black" paint-order="fill stroke markers" d=" M 555.3456149010741 365.745201887 L 571.6808182010742 365.745201887 L 571.6808182010742 411.483771127 L 555.3456149010741 411.483771127 L 555.3456149010741 365.745201887" stroke-miterlimit="10" stroke-width="1.3612669416666667" stroke-dasharray=""/><path fill="white" stroke="black" paint-order="fill stroke markers" d=" M 730.1303526439777 411.483771127 L 746.4655559439778 411.483771127 L 746.4655559439778 457.222340367 L 730.1303526439777 457.222340367 L 730.1303526439777 411.483771127" stroke-miterlimit="10" stroke-width="1.3612669416666667" stroke-dasharray=""/><path fill="white" stroke="black" paint-order="fill stroke markers" d=" M 903.2830255675455 457.222340367 L 919.6182288675456 457.222340367 L 919.6182288675456 502.960909607 L 903.2830255675455 502.960909607 L 903.2830255675455 457.222340367" stroke-miterlimit="10" stroke-width="1.3612669416666667" stroke-dasharray=""/><g><g><rect fill="white" stroke="none" x="60.922876671959614" y="161.555160637" width="127.93556465210938" height="21.23576429"/></g><text fill="black" stroke="none" font-family="sans-serif" font-size="11pt" font-style="normal" font-weight="normal" text-decoration="normal" x="63.373157166959615" y="176.25684360699998" text-anchor="start" dominant-baseline="alphabetic" xml:space="preserve">1:atualizaUsuario()</text></g><g><path fill="none" stroke="black" paint-order="fill stroke markers" d=" M 41.59288610029297 182.790924927 L 194.73911451206897 182.790924927" stroke-miterlimit="10" stroke-width="1.3612669416666667" stroke-dasharray=""/><g transform="translate(208.18843189573565,182.790924927) translate(-208.18843189573565,-182.790924927)"><path fill="black" stroke="none" paint-order="stroke fill markers" d=" M 194.57576247906897 175.98459021866665 L 208.18843189573565 182.790924927 L 194.57576247906897 189.59725963533333 Z"/></g></g><g><g><rect fill="white" stroke="none" x="248.35618879943357" y="207.293729877" width="121.40729011597656" height="21.23576429"/></g><text fill="black" stroke="none" font-family="sans-serif" font-size="11pt" font-style="normal" font-weight="normal" text-decoration="normal" x="250.80646929443355" y="221.99541284699998" text-anchor="start" dominant-baseline="alphabetic" xml:space="preserve">2:fabricaUsuario()</text></g><g><path fill="none" stroke="black" paint-order="fill stroke markers" d=" M 224.52363519573564 228.529494167 L 380.14671513544135 228.529494167" stroke-miterlimit="10" stroke-width="1.3612669416666667" stroke-dasharray=""/><g transform="translate(393.596032519108,228.529494167) translate(-393.596032519108,-228.529494167)"><path fill="black" stroke="none" paint-order="stroke fill markers" d=" M 379.98336310244133 221.72315945866666 L 393.596032519108 228.529494167 L 379.98336310244133 235.33582887533333 Z"/></g></g><g><g><rect fill="white" stroke="none" x="262.203707720332" y="253.032299117" width="93.71225227417969" height="21.23576429"/></g><text fill="black" stroke="none" font-family="sans-serif" font-size="11pt" font-style="normal" font-weight="normal" text-decoration="normal" x="264.653988215332" y="267.733982087" text-anchor="start" dominant-baseline="alphabetic" xml:space="preserve">returnUsuario</text></g><g><path fill="none" stroke="black" paint-order="fill stroke markers" d=" M 393.596032519108 274.268063407 L 237.97295257940232 274.268063407" stroke-miterlimit="10" stroke-width="1.3612669416666667" stroke-dasharray="6.53408132"/><g transform="translate(224.52363519573564,274.268063407) translate(-224.52363519573564,-274.268063407)"><path fill="black" stroke="none" paint-order="stroke fill markers" d=" M 238.1363046124023 267.46172869866666 L 224.52363519573564 274.268063407 L 238.1363046124023 281.07439811533334 Z"/></g></g><g><g><rect fill="white" stroke="none" x="243.8536257674023" y="298.770868357" width="122.24481453003906" height="21.23576429"/></g><text fill="black" stroke="none" font-family="sans-serif" font-size="11pt" font-style="normal" font-weight="normal" text-decoration="normal" x="246.30390626240228" y="313.47255132699996" text-anchor="start" dominant-baseline="alphabetic" xml:space="preserve">3:updateUsuario()</text></g><g><path fill="none" stroke="black" paint-order="fill stroke markers" d=" M 224.52363519573564 320.006632647 L 371.97911348544136 320.006632647" stroke-miterlimit="10" stroke-width="1.3612669416666667" stroke-dasharray=""/><g transform="translate(385.428430869108,320.006632647) translate(-385.428430869108,-320.006632647)"><path fill="black" stroke="none" paint-order="stroke fill markers" d=" M 371.81576145244134 313.20029793866667 L 385.428430869108 320.006632647 L 371.81576145244134 326.81296735533334 Z"/></g></g><g><g><rect fill="white" stroke="none" x="421.09362474077466" y="344.509437597" width="114.92199958863281" height="21.23576429"/></g><text fill="black" stroke="none" font-family="sans-serif" font-size="11pt" font-style="normal" font-weight="normal" text-decoration="normal" x="423.5439052357747" y="359.21112056699997" text-anchor="start" dominant-baseline="alphabetic" xml:space="preserve">4:updateObjeto()</text></g><g><path fill="none" stroke="black" paint-order="fill stroke markers" d=" M 401.763634169108 365.745201887 L 541.8962975174074 365.745201887" stroke-miterlimit="10" stroke-width="1.3612669416666667" stroke-dasharray=""/><g transform="translate(555.3456149010741,365.745201887) translate(-555.3456149010741,-365.745201887)"><path fill="black" stroke="none" paint-order="stroke fill markers" d=" M 541.7329454844074 358.93886717866667 L 555.3456149010741 365.745201887 L 541.7329454844074 372.55153659533335 Z"/></g></g><g><g><rect fill="white" stroke="none" x="591.0108087727408" y="390.248006837" width="119.78955329957031" height="21.23576429"/></g><text fill="black" stroke="none" font-family="sans-serif" font-size="11pt" font-style="normal" font-weight="normal" text-decoration="normal" x="593.4610892677408" y="404.94968980699997" text-anchor="start" dominant-baseline="alphabetic" xml:space="preserve">5:saveAndFlush()</text></g><g><path fill="none" stroke="black" paint-order="fill stroke markers" d=" M 571.6808182010742 411.483771127 L 716.6810352603111 411.483771127" stroke-miterlimit="10" stroke-width="1.3612669416666667" stroke-dasharray=""/><g transform="translate(730.1303526439777,411.483771127) translate(-730.1303526439777,-411.483771127)"><path fill="black" stroke="none" paint-order="stroke fill markers" d=" M 716.5176832273111 404.6774364186667 L 730.1303526439777 411.483771127 L 716.5176832273111 418.29010583533335 Z"/></g></g><g><g><rect fill="white" stroke="none" x="765.7955465156444" y="435.986576077" width="118.15748848023438" height="21.23576429"/></g><text fill="black" stroke="none" font-family="sans-serif" font-size="11pt" font-style="normal" font-weight="normal" text-decoration="normal" x="768.2458270106445" y="450.688259047" text-anchor="start" dominant-baseline="alphabetic" xml:space="preserve">6:executeQuery()</text></g><g><path fill="none" stroke="black" paint-order="fill stroke markers" d=" M 746.4655559439778 457.222340367 L 889.8337081838788 457.222340367" stroke-miterlimit="10" stroke-width="1.3612669416666667" stroke-dasharray=""/><g transform="translate(903.2830255675455,457.222340367) translate(-903.2830255675455,-457.222340367)"><path fill="black" stroke="none" paint-order="stroke fill markers" d=" M 889.6703561508788 450.4160056586667 L 903.2830255675455 457.222340367 L 889.6703561508788 464.02867507533335 Z"/></g></g><g><g><rect fill="white" stroke="none" x="818.3402094357616" y="481.725145317" width="4.90056099" height="21.23576429"/></g><text fill="black" stroke="none" font-family="sans-serif" font-size="11pt" font-style="normal" font-weight="normal" text-decoration="normal" x="820.7904899307616" y="496.426828287" text-anchor="start" dominant-baseline="alphabetic" xml:space="preserve"></text></g><g><path fill="none" stroke="black" paint-order="fill stroke markers" d=" M 903.2830255675455 502.960909607 L 751.7472716776444 502.960909607" stroke-miterlimit="10" stroke-width="1.3612669416666667" stroke-dasharray="6.53408132"/><g transform="translate(738.2979542939778,502.960909607) translate(-738.2979542939778,-502.960909607)"><path fill="black" stroke="none" paint-order="stroke fill markers" d=" M 751.9106237106445 496.1545748986667 L 738.2979542939778 502.960909607 L 751.9106237106445 509.76724431533336 Z"/></g></g><g><g><rect fill="white" stroke="none" x="648.455304927526" y="527.463714557" width="4.90056099" height="21.23576429"/></g><text fill="black" stroke="none" font-family="sans-serif" font-size="11pt" font-style="normal" font-weight="normal" text-decoration="normal" x="650.905585422526" y="542.165397527" text-anchor="start" dominant-baseline="alphabetic" xml:space="preserve"></text></g><g><path fill="none" stroke="black" paint-order="fill stroke markers" d=" M 738.2979542939778 548.699478847 L 576.9625339347408 548.699478847" stroke-miterlimit="10" stroke-width="1.3612669416666667" stroke-dasharray="6.53408132"/><g transform="translate(563.5132165510742,548.699478847) translate(-563.5132165510742,-548.699478847)"><path fill="black" stroke="none" paint-order="stroke fill markers" d=" M 577.1258859677408 541.8931441386667 L 563.5132165510742 548.699478847 L 577.1258859677408 555.5058135553334 Z"/></g></g><g><g><rect fill="white" stroke="none" x="476.10434404009106" y="573.202283797" width="4.90056099" height="21.23576429"/></g><text fill="black" stroke="none" font-family="sans-serif" font-size="11pt" font-style="normal" font-weight="normal" text-decoration="normal" x="478.5546245350911" y="587.9039667669999" text-anchor="start" dominant-baseline="alphabetic" xml:space="preserve"></text></g><g><path fill="none" stroke="black" paint-order="fill stroke markers" d=" M 563.5132165510742 594.438048087 L 407.04534990277466 594.438048087" stroke-miterlimit="10" stroke-width="1.3612669416666667" stroke-dasharray="6.53408132"/><g transform="translate(393.596032519108,594.438048087) translate(-393.596032519108,-594.438048087)"><path fill="black" stroke="none" paint-order="stroke fill markers" d=" M 407.2087019357747 587.6317133786666 L 393.596032519108 594.438048087 L 407.2087019357747 601.2443827953333 Z"/></g></g><g><g><rect fill="white" stroke="none" x="302.5257525374218" y="618.9408530369999" width="4.90056099" height="21.23576429"/></g><text fill="black" stroke="none" font-family="sans-serif" font-size="11pt" font-style="normal" font-weight="normal" text-decoration="normal" x="304.9760330324218" y="633.6425360069999" text-anchor="start" dominant-baseline="alphabetic" xml:space="preserve"></text></g><g><path fill="none" stroke="black" paint-order="fill stroke markers" d=" M 393.596032519108 640.1766173269999 L 229.80535092940232 640.1766173269999" stroke-miterlimit="10" stroke-width="1.3612669416666667" stroke-dasharray="6.53408132"/><g transform="translate(216.35603354573564,640.1766173269999) translate(-216.35603354573564,-640.1766173269999)"><path fill="black" stroke="none" paint-order="stroke fill markers" d=" M 229.96870296240232 633.3702826186666 L 216.35603354573564 640.1766173269999 L 229.96870296240232 646.9829520353333 Z"/></g></g></g><g/><g/><g/><g/><g/><g/></g></svg>