<svg version="1.1" xmlns="http://www.w3.org/2000/svg" xmlns:xlink="http://www.w3.org/1999/xlink" width="949" height="605"><desc>title%20View-Usuario%0A%0Aactor%20Usuario%0Aparticipant%20Controller%0Aparticipant%20Service%0Aparticipant%20ServiceGeral%0Aparticipant%20Repository%0Adatabase%20BD%0A%0Aactivate%20Usuario%0AUsuario%20-%3E%20Controller%3A%201%3AretornaUsuario()%0Adeactivate%20Usuario%0A%0Aactivate%20Controller%0AController%20-%3EService%3A%202%3AretornaUsuario()%0Adeactivate%20Controller%0A%0Aactivate%20Service%0AService%20-%3E%20ServiceGeral%3A%203%3AretornaObjeto()%0Adeactivate%20Service%0A%0Aactivate%20ServiceGeral%0AServiceGeral%20-%3E%20Repository%3A%204%3AfindReference()%0Adeactivate%20ServiceGeral%0A%0Aactivate%20Repository%0ARepository%20-%3EBD%3A5%3AexecuteQuery()%0Adeactivate%20Repository%0A%0Aactivate%20BD%0ABD%20--%3ERepository%3A%0Adeactivate%20BD%0A%0ARepository%20--%3E%20ServiceGeral%3A%0AServiceGeral%20--%3EService%3A%20%0AService%20--%3EController%3A</desc><defs/><g><g/><g/><g/><g/><g/><g/><g/><g/><g/><g><rect fill="white" stroke="none" x="0" y="0" width="949" height="605"/></g><g><text fill="black" stroke="none" font-family="sans-serif" font-size="16.5pt" font-style="normal" font-weight="normal" text-decoration="normal" x="409.6919098968587" y="24.50280495" text-anchor="start" dominant-baseline="alphabetic" xml:space="preserve">View-Usuario</text></g><g/><g><path fill="none" stroke="black" paint-order="fill stroke markers" d=" M 33.42528445029297 128.884754037 L 33.42528445029297 605.872690397" stroke-miterlimit="10" stroke-width="1.3612669416666667" stroke-dasharray="12.565541,5.445067766666667"/><path fill="none" stroke="black" paint-order="fill stroke markers" d=" M 212.27586386800127 128.884754037 L 212.27586386800127 605.872690397" stroke-miterlimit="10" stroke-width="1.3612669416666667" stroke-dasharray="12.565541,5.445067766666667"/><path fill="none" stroke="black" paint-order="fill stroke markers" d=" M 391.12644328570957 128.884754037 L 391.12644328570957 605.872690397" stroke-miterlimit="10" stroke-width="1.3612669416666667" stroke-dasharray="12.565541,5.445067766666667"/><path fill="none" stroke="black" paint-order="fill stroke markers" d=" M 562.6542077620117 128.884754037 L 562.6542077620117 605.872690397" stroke-miterlimit="10" stroke-width="1.3612669416666667" stroke-dasharray="12.565541,5.445067766666667"/><path fill="none" stroke="black" paint-order="fill stroke markers" d=" M 735.8140370576497 128.884754037 L 735.8140370576497 605.872690397" stroke-miterlimit="10" stroke-width="1.3612669416666667" stroke-dasharray="12.565541,5.445067766666667"/><path fill="none" stroke="black" paint-order="fill stroke markers" d=" M 908.9667099812174 128.884754037 L 908.9667099812174 605.872690397" stroke-miterlimit="10" stroke-width="1.3612669416666667" stroke-dasharray="12.565541,5.445067766666667"/></g><g><g><path fill="white" stroke="black" paint-order="fill stroke markers" d=" M 42.73635033129297 59.786844078 A 9.311065881 9.311065881 0 1 1 42.73634567576042 59.77753301367084 M 33.42528445029297 69.097909959 L 33.42528445029297 89.026857985 M 21.66393807429297 76.285399411 L 45.18663082629297 76.285399411 M 33.42528445029297 89.026857985 L 21.66393807429297 107.648989747 M 33.42528445029297 89.026857985 L 45.18663082629297 107.648989747" stroke-miterlimit="10" stroke-width="2.7769845610000004" stroke-dasharray=""/></g><g><g/><text fill="black" stroke="none" font-family="sans-serif" font-size="11pt" font-style="normal" font-weight="normal" text-decoration="normal" x="8.167601650000002" y="123.98419304699999" text-anchor="start" dominant-baseline="alphabetic" xml:space="preserve">Usuario</text></g><path fill="none" stroke="none"/><g><path fill="white" stroke="black" paint-order="fill stroke markers" d=" M 162.7769531385755 84.779705127 L 261.77477459742704 84.779705127 L 261.77477459742704 128.884754037 L 162.7769531385755 128.884754037 L 162.7769531385755 84.779705127 Z" stroke-miterlimit="10" stroke-width="2.613632528" stroke-dasharray=""/></g><g><g/><text fill="black" stroke="none" font-family="sans-serif" font-size="11pt" font-style="normal" font-weight="normal" text-decoration="normal" x="180.50064871907549" y="112.549550737" text-anchor="start" dominant-baseline="alphabetic" xml:space="preserve">Controller</text></g><path fill="none" stroke="none"/><g><path fill="white" stroke="black" paint-order="fill stroke markers" d=" M 348.9611049439791 84.779705127 L 433.29178162744006 84.779705127 L 433.29178162744006 128.884754037 L 348.9611049439791 128.884754037 L 348.9611049439791 84.779705127 Z" stroke-miterlimit="10" stroke-width="2.613632528" stroke-dasharray=""/></g><g><g/><text fill="black" stroke="none" font-family="sans-serif" font-size="11pt" font-style="normal" font-weight="normal" text-decoration="normal" x="366.6848005244791" y="112.549550737" text-anchor="start" dominant-baseline="alphabetic" xml:space="preserve">Service</text></g><path fill="none" stroke="none"/><g><path fill="white" stroke="black" paint-order="fill stroke markers" d=" M 502.564751378289 84.779705127 L 622.7436641457343 84.779705127 L 622.7436641457343 128.884754037 L 502.564751378289 128.884754037 L 502.564751378289 84.779705127 Z" stroke-miterlimit="10" stroke-width="2.613632528" stroke-dasharray=""/></g><g><g/><text fill="black" stroke="none" font-family="sans-serif" font-size="11pt" font-style="normal" font-weight="normal" text-decoration="normal" x="520.288446958789" y="112.549550737" text-anchor="start" dominant-baseline="alphabetic" xml:space="preserve">ServiceGeral</text></g><path fill="none" stroke="none"/><g><path fill="white" stroke="black" paint-order="fill stroke markers" d=" M 683.0545672461926 84.779705127 L 788.5735068691067 84.779705127 L 788.5735068691067 128.884754037 L 683.0545672461926 128.884754037 L 683.0545672461926 84.779705127 Z" stroke-miterlimit="10" stroke-width="2.613632528" stroke-dasharray=""/></g><g><g/><text fill="black" stroke="none" font-family="sans-serif" font-size="11pt" font-style="normal" font-weight="normal" text-decoration="normal" x="700.7782628266926" y="112.549550737" text-anchor="start" dominant-baseline="alphabetic" xml:space="preserve">Repository</text></g><g><path fill="white" stroke="black" paint-order="fill stroke markers" d=" M 885.1173131632174 96.867755569 L 885.1173131632174 62.563828639 L 932.8161067992173 62.563828639 L 932.8161067992173 96.867755569" stroke-miterlimit="10" stroke-width="2.7769845610000004" stroke-dasharray=""/><path fill="white" stroke="black" paint-order="fill stroke markers" d=" M 932.8161067992173 61.3713587981 L 932.8149143393136 61.47916934301662 L 932.8113370788476 61.58696910696859 L 932.8053753755423 61.69474731006935 L 932.797029825563 61.8024931745884 L 932.7863012634577 61.91019592602908 L 932.7731907620739 62.017844794206 L 932.7576996324507 62.125429014322044 L 932.7398294236881 62.232937828044854 L 932.719581922792 62.34036048458265 L 932.6969591544959 62.44768624175929 L 932.6719633810575 62.55490436708851 L 932.6445971020335 62.66200413884712 L 932.6148630540289 62.76897484714718 L 932.5827642104238 62.87580579500701 L 932.5483037810757 62.982486299420856 L 932.5114852119989 63.08900569242717 L 932.4723121850195 63.19535332217542 L 932.4307886174078 63.30151855399125 L 932.3869186614858 63.40749077143996 L 932.3407067042124 63.5132593773881 L 932.2921573667451 63.618813795063225 L 932.241275503977 63.724143469111524 L 932.1880662040521 63.82923786665337 L 932.1325347878559 63.93408647833659 L 932.0746868084839 64.03867881938739 L 932.0145280506857 64.1430044306588 L 931.9520645302871 64.24705287967667 L 931.8873024935879 64.35081376168277 L 931.8202484167379 64.45427670067541 L 931.7509090050889 64.55743135044686 L 931.6792911925243 64.66026739561813 L 931.6054021407656 64.7627745526704 L 931.5292492386566 64.86494257097338 L 931.4508401014238 64.96676123381039 L 931.3701825699156 65.06822035939997 L 931.2872847098182 65.16930980191414 L 931.2021548108484 65.27001945249287 L 931.1148013859249 65.37033924025505 L 931.0252331703177 65.47025913330548 L 930.9334591207737 65.56976913973813 L 930.8394884146212 65.66885930863528 L 930.7433304488527 65.7675197310626 L 930.6449948391846 65.86574054106009 L 930.5444914190957 65.96351191662859 L 930.4418302388447 66.06082408071202 L 930.3370215644636 66.15766730217506 L 930.2300758767327 66.25403189677627 L 930.1210038701317 66.3499082281365 L 930.0098164517705 66.4452867087025 L 929.8965247402979 66.54015780070569 L 929.781140064791 66.63451201711595 L 929.6636739636209 66.72833992259025 L 929.5441381833 66.82163213441623 L 929.4225446773067 66.91437932345046 L 929.2989056048904 67.00657221505134 L 929.173233329855 67.0982015900065 L 929.0455404193235 67.18925828545483 L 928.9158396424805 67.27973319580266 L 928.7841439692955 67.36961727363435 L 928.6504665692263 67.45890153061701 L 928.5148208099014 67.54757703839935 L 928.3772202557835 67.6356349295045 L 928.2376786668136 67.72306639821673 L 928.0962099970343 67.80986270146201 L 927.9528283931945 67.89601515968236 L 927.8075481933354 67.98151515770375 L 927.6603839253555 68.06635414559763 L 927.5113503055594 68.15052363953589 L 927.3604622371845 68.2340152226393 L 927.2077348089122 68.31682054581911 L 927.053183293358 68.39893132861202 L 926.8968231455444 68.48033936000816 L 926.7386700013561 68.56103649927225 L 926.5787396759758 68.6410146767576 L 926.4170481623026 68.72026589471311 L 926.2536116293534 68.79878222808303 L 926.0884464206448 68.87655582529945 L 925.9215690525605 68.95357890906746 L 925.752996212698 69.02984377714286 L 925.5827447582009 69.10534280310242 L 925.4108317140727 69.18006843710643 L 925.2372742714747 69.25401320665378 L 925.0620897860064 69.32716971732913 L 924.8852957759703 69.39953065354239 L 924.7069099206203 69.47108877926021 L 924.526950058393 69.54183693872967 L 924.345434185125 69.61176805719379 L 924.162380452252 69.68087514159897 L 923.977807164995 69.74915128129439 L 923.7917327805288 69.81658964872294 L 923.6041759061369 69.88318350010411 L 923.4151552973502 69.94892617610824 L 923.2246898560724 70.01381110252252 L 923.0327986286885 70.07783179090838 L 922.8395008041617 70.14098183925032 L 922.6448157121132 70.20325493259614 L 922.44876282089 70.26464484368842 L 922.2513617356178 70.32514543358717 L 922.0526321962408 70.38475065228383 L 921.852594075547 70.44345453930622 L 921.6512673771821 70.50125122431453 L 921.448672233648 70.55813492768844 L 921.2448289042902 70.61409996110503 L 921.039757773272 70.66914072810756 L 920.8334793475352 70.72325172466522 L 920.6260142547509 70.77642753972344 L 920.4173832412552 70.82866285574504 L 920.2076071699757 70.87995244924193 L 919.9967070183448 70.9302911912975 L 919.7847038762017 70.9796740480795 L 919.571618943684 71.0280960813434 L 919.3574735291077 71.07555244892625 L 919.1422890468353 71.12203840523081 L 918.9260870151361 71.16754930170019 L 918.708889054033 71.21208058728268 L 918.490716883141 71.25562780888683 L 918.2715923194954 71.29818661182675 L 918.05153727537 71.33975274025764 L 917.830573756086 71.38032203760127 L 917.608723857811 71.41989044696174 L 917.38600976535 71.45845401153106 L 917.1624537499265 71.49600887498494 L 916.9380781669561 71.5325512818683 L 916.7129054538098 71.56807757797091 L 916.4869581275714 71.60258421069277 L 916.2602587827852 71.63606772939937 L 916.0328300891968 71.66852478576672 L 915.8046947894859 71.69995213411627 L 915.5758756969926 71.73034663173934 L 915.3463956934353 71.7597052392115 L 915.1162777266233 71.78802502069648 L 914.8855448081612 71.81530314423973 L 914.6542200111488 71.84153688205163 L 914.422326467873 71.86672361078024 L 914.1898873674949 71.8908608117737 L 913.9569259537308 71.913946071332 L 913.7234655225278 71.93597708094846 L 913.4895294197348 71.95695163754044 L 913.2551410387669 71.97686764366978 L 913.0203238182669 71.99572310775245 L 912.7851012397613 72.01351614425778 L 912.5494968253116 72.03024497389691 L 912.3135341351633 72.04590792380084 L 912.0772367653886 72.06050342768764 L 911.8406283455276 72.07403002601906 L 911.603732536225 72.08648636614654 L 911.3665730268646 72.09787120244648 L 911.1291735331994 72.1081833964447 L 910.8915577949809 72.11742191693043 L 910.6537495735853 72.12558584005929 L 910.4157726496362 72.13267434944576 L 910.1776508206278 72.13868673624485 L 909.9394078985447 72.14362239922286 L 909.7010677074803 72.14748084481762 L 909.4626540812553 72.1502616871878 L 909.2241908610335 72.15196464825142 L 908.9857018929384 72.15258955771385 L 908.7472110256679 72.15213635308466 L 908.50874210811 72.15060507968391 L 908.2703189869578 72.14799589063767 L 908.0319655043248 72.1443090468627 L 907.7937054953604 72.13954491704027 L 907.5555627858672 72.1337039775794 L 907.3175611899176 72.12678681256918 L 907.0797245074727 72.11879411372033 L 906.8420765220028 72.10972668029609 L 906.6046409981083 72.09958541903224 L 906.3674416791436 72.08837134404646 L 906.1305022848431 72.07608557673689 L 905.8938465089489 72.06272934567005 L 905.657498016841 72.04830398645788 L 905.421480443172 72.0328109416243 L 905.1858173895024 72.01625176046089 L 904.9505324219413 71.99862809887196 L 904.7156490687893 71.97994171920898 L 904.481190818186 71.96019449009434 L 904.2471811157611 71.9393883862345 L 904.0136433622897 71.91752548822251 L 903.7806009113528 71.89460798232996 L 903.5480770670011 71.87063816028832 L 903.3160950814253 71.84561841905983 L 903.0846781526307 71.81955126059778 L 902.8538494221172 71.79243929159627 L 902.6236319725656 71.7642852232296 L 902.394048825529 71.73509187088118 L 902.1651229391307 71.7048621538619 L 901.9368772057687 71.67359909511825 L 901.7093344498261 71.64130582093009 L 901.4825174253888 71.6079855605979 L 901.2564488139703 71.57364164611994 L 901.0311512222434 71.53827751185906 L 900.8066471797792 71.50189669419922 L 900.5829591367954 71.46450283119185 L 900.3601094619095 71.42609966219209 L 900.1381204399033 71.38669102748484 L 899.9170142694943 71.34628086790075 L 899.6968130611149 71.30487322442208 L 899.4775388347027 71.26247223777868 L 899.2592135174975 71.21908214803388 L 899.0418589418491 71.17470729416048 L 898.8254968430341 71.12935211360693 L 898.6101488570818 71.08302114185344 L 898.3958365186115 71.0357190119586 L 898.1825812586784 70.987450454096 L 897.970404402631 70.93822029508118 L 897.7593271679776 70.88803345788901 L 897.5493706622663 70.8368949611614 L 897.3405558809724 70.7848099187054 L 897.1329037054 70.73178353898187 L 896.9264349005939 70.67782112458457 L 896.7211701132622 70.62292807170999 L 896.5171298697128 70.56710986961765 L 896.3143345737998 70.51037210008127 L 896.112804504884 70.4527204368305 L 895.9125598158043 70.39416064498364 L 895.7136205308627 70.33469858047107 L 895.516006543822 70.27434018944969 L 895.3197376159161 70.2130915077083 L 895.1248333738743 70.15095866006402 L 894.9313133079584 70.08794785974987 L 894.7391967700136 70.02406540779336 L 894.5485029715338 69.95931769238642 L 894.3592509817398 69.89371118824668 L 894.1714597256729 69.82725245596986 L 893.9851479823022 69.7599481413738 L 893.8003343826468 69.69180497483389 L 893.6170374079128 69.62282977060998 L 893.4352753876447 69.55302942616503 L 893.255066497893 69.4824109214753 L 893.0764287593968 69.41098131833243 L 892.8993800357808 69.3387477596372 L 892.72393803177 69.26571746868528 L 892.5501202914186 69.19189774844492 L 892.3779441963557 69.1172959808266 L 892.2074269640473 69.04191962594494 L 892.0385856460747 68.96577622137262 L 891.8714371264288 68.88887338138663 L 891.7059981198224 68.81121879620689 L 891.5422851700182 68.73282023122718 L 891.3803146481749 68.6536855262387 L 891.2201027512097 68.573822594646 L 891.0616655001785 68.49323942267567 L 890.9050187386747 68.41194406857777 L 890.7501781312438 68.32994466181995 L 890.5971591618174 68.24724940227456 L 890.4459771321652 68.16386655939866 L 890.2966471603639 68.07980447140702 L 890.1491841792864 67.99507154443839 L 890.0036029351079 67.90967625171488 L 889.8599179858314 67.8236271326946 L 889.7181436998322 67.73693279221771 L 889.5782942544208 67.64960189964606 L 889.4403836344251 67.56164318799608 L 889.304425630792 67.47306545306569 L 889.170433839209 67.38387755255452 L 889.0384216587432 67.29408840517834 L 888.9084022905029 67.20370698977703 L 888.7803887363164 67.11274234441683 L 888.6543937974325 67.02120356548647 L 888.5304300732402 66.92909980678756 L 888.4085099600085 66.83644027861922 L 888.288645649647 66.74323424685704 L 888.1708491284871 66.64949103202653 L 888.0551321760827 66.55522000837107 L 887.9415063640324 66.46043060291444 L 887.8299830548231 66.3651322945182 L 887.7205734006924 66.2693346129338 L 887.6132883425147 66.17304713784955 L 887.5081386087064 66.07627949793272 L 887.4051347141534 65.97904136986665 L 887.3042869591591 65.88134247738313 L 887.205605428415 65.78319259028999 L 887.109099989992 65.68460152349414 L 887.0147802943536 65.58557913602012 L 886.9226557733906 65.48613533002413 L 886.8327356394784 65.38628004980393 L 886.7450288845555 65.2860232808043 L 886.6595442792242 65.18537504861862 L 886.5762903718739 65.08434541798623 L 886.4952754878259 64.982944491786 L 886.4165077285011 64.88118241002603 L 886.3399949706098 64.77906934882972 L 886.265744865364 64.67661551941809 L 886.1937648377125 64.5738311670887 L 886.1240620855978 64.47072657019112 L 886.0566435792373 64.36731203909913 L 885.9915160604253 64.26359791517966 L 885.9286860418594 64.15959456975868 L 885.8681598064892 64.05531240308405 L 885.8099434068877 63.95076184328555 L 885.7540426646465 63.84595334533201 L 885.700463169793 63.74089738998592 L 885.6492102802322 63.63560448275524 L 885.6002891212104 63.530085152842965 L 885.5537045848025 63.42434995209415 L 885.5094613294236 63.318409453940745 L 885.4675637793622 63.2122742523443 L 885.4280161243385 63.105954960736526 L 885.3908223190848 62.99946221095797 L 885.355986082951 62.892806652194885 L 885.3235108995312 62.78599894991426 L 885.2934000163173 62.679049784797314 L 885.265656444372 62.57196985167143 L 885.2402829580296 62.464769858440704 L 885.2172820946176 62.357460525015114 L 885.1966561542032 62.25005258223858 L 885.178407199363 62.14255677081588 L 885.1625370549776 62.03498384023857 L 885.1490473080481 61.92734454771006 L 885.1379393075379 61.81964965706991 L 885.1292141642379 61.71190993771744 L 885.1228727506549 61.6041361635348 L 885.1189157009253 61.49633911180959 L 885.1173434107505 61.38852956215717 L 885.1181560373585 61.28071829544265 L 885.1213534994871 61.172916092702856 L 885.1269354773927 61.06513373406823 L 885.1349014128824 60.957381997684834 L 885.1452505093691 60.84967165863649 L 885.157981731952 60.74201348786736 L 885.1730938075191 60.6344182511048 L 885.1905852248757 60.526896707782825 L 885.2104542348945 60.41945960996616 L 885.2326988506911 60.31211770127506 L 885.2573168478226 60.204881715810956 L 885.2843057645096 60.097762377083015 L 885.3136629018829 59.99077039693585 L 885.3453853242535 59.88391647447831 L 885.3794698594054 59.7772112950136 L 885.4159130989134 59.67066552897075 L 885.4547113984842 59.56428983083758 L 885.4958608783198 59.45809483809524 L 885.5393574235069 59.35209117015452 L 885.5851966844269 59.24628942729389 L 885.6333740771921 59.14070018959944 L 885.6838847841034 59.03533401590697 L 885.736723754132 58.93020144274604 L 885.7918857034251 58.82531298328635 L 885.8493651158337 58.72067912628645 L 885.9091562434645 58.61631033504484 L 885.9712531072544 58.51221704635366 L 886.0356494975689 58.40840966945505 L 886.1023389748227 58.30489858500019 L 886.1713148701235 58.20169414401126 L 886.2425702859393 58.098806666846365 L 886.316098096788 57.996246442167475 L 886.3918909499496 57.894023725911595 L 886.469941266202 57.79214874026516 L 886.5502412405788 57.69063167264185 L 886.6327828431491 57.58948267466382 L 886.7175578198219 57.488711861146584 L 886.8045576931698 57.38832930908751 L 886.8937737632782 57.28834505665816 L 886.9851971086143 57.18876910220045 L 887.0788185869199 57.08961140322686 L 887.1746288361248 56.99088187542464 L 887.2726182752845 56.8925903916643 L 887.3727771055363 56.794746781012314 L 887.4750953110808 56.6973608277482 L 887.5795626601827 56.60044227038614 L 887.6861687061942 56.5040008007011 L 887.7949027885994 56.40804606275968 L 887.9057540340807 56.31258765195572 L 888.0187113576061 56.217635114050736 L 888.1337634635372 56.12319794421941 L 888.2508988467594 56.029285586100016 L 888.3701057938317 55.93590743085011 L 888.4913723841591 55.8430728162074 L 888.6146864911836 55.75079102555599 L 888.740035783597 55.65907128699804 L 888.8674077265747 55.56792277243099 L 888.9967895830285 55.47735459663031 L 889.1281684148806 55.387375816338135 L 889.2615310843572 55.29799542935749 L 889.3968642553026 55.20922237365261 L 889.5341543945125 55.12106552645507 L 889.6733877730873 55.033533703376136 L 889.8145504678051 54.94663565752517 L 889.9576283625142 54.86038007863435 L 890.1026071495444 54.77477559218967 L 890.2494723311377 54.689830758568455 L 890.3982092208984 54.60555407218327 L 890.5488029452613 54.52195396063252 L 890.7012384449797 54.439038783857704 L 890.8555004766305 54.35681683330739 L 891.0115736141391 54.27529633110813 L 891.1694422503219 54.19448542924221 L 891.3290905984469 54.114392208732454 L 891.490502693812 54.03502467883419 L 891.6536623953425 53.95639077623426 L 891.818553387204 53.878498364257396 L 891.985159180435 53.801355232079885 L 892.1534631145947 53.72496909395066 L 892.32344835943 53.649347588419886 L 892.4950979165583 53.57449827757509 L 892.6683946211667 53.50042864628498 L 892.8433211437292 53.42714610145097 L 893.0198599917394 53.35465797126647 L 893.1979935114595 53.28297150448409 L 893.377703889686 53.21209386969077 L 893.5589731555309 53.14203215459092 L 893.7417831822186 53.072793365297684 L 893.9261156888988 53.00438442563227 L 894.1119522424746 52.93681217643165 L 894.2992742594452 52.870083374864436 L 894.488063007765 52.80420469375517 L 894.6782996087169 52.739182720917064 L 894.869965038799 52.67502395849323 L 895.0630401316281 52.611734822306424 L 895.2575055798558 52.54932164121754 L 895.4533419370994 52.48779065649267 L 895.6505296198861 52.427148021179015 L 895.8490489096124 52.36739979948956 L 896.0488799545144 52.3085519661967 L 896.2500027716542 52.25061040603471 L 896.4523972489178 52.19358091311133 L 896.6560431470261 52.13746919032833 L 896.8609201015589 52.08228084881122 L 897.0670076249916 52.02802140734818 L 897.2742851087435 51.974696291838114 L 897.482731825239 51.922310834748146 L 897.6923269299801 51.87087027458034 L 897.9030494636311 51.82037975534783 L 898.1148783541141 51.770844326060484 L 898.3277924187167 51.72226894021993 L 898.5417703662099 51.674658455324284 L 898.7567907989771 51.62801763238236 L 898.9728322151543 51.58235113543759 L 899.1898730107798 51.5376635311016 L 899.4078914819552 51.49395928809759 L 899.6268658270147 51.451242776813444 L 899.8467741487066 51.409518268864694 L 900.0675944563817 51.368789936667355 L 900.2893046681934 51.32906185302072 L 900.5118826133053 51.29033799070003 L 900.7353060341082 51.252622222059266 L 900.9595525884464 51.21591831864385 L 901.1845998518513 51.18022995081354 L 901.410425319784 51.14556068737539 L 901.6370064098861 51.11191399522683 L 901.8643204642373 51.079293239009054 L 902.0923447516213 51.047701680770494 L 902.3210564697998 51.01714247964064 L 902.5504327477914 50.98761869151416 L 902.7804506481596 50.95913326874524 L 903.0110871693057 50.93168905985244 L 903.2423192477701 50.90528880923376 L 903.4741237605374 50.87993515689227 L 903.7064775273498 50.85563063817208 L 903.939357313024 50.83237768350481 L 904.1727398297755 50.81017861816654 L 904.4066017395473 50.78903566204531 L 904.6409196563432 50.768950929419105 L 904.8756701485667 50.749926428744466 L 905.1108297413642 50.7319640624556 L 905.3463749189726 50.71506562677416 L 905.5822821270702 50.69923281152964 L 905.818527775133 50.684467199990365 L 906.0550882387928 50.6707702687052 L 906.2919398622006 50.658143387355835 L 906.5290589603912 50.64658781861989 L 906.7664218216527 50.63610471804463 L 907.0040047098964 50.62669513393135 L 907.2417838670317 50.61836000723063 L 907.4797355153411 50.61110017144819 L 907.7178358598578 50.604916352561574 L 907.956061090746 50.5998091689475 L 908.194387385681 50.595779131320086 L 908.432790912232 50.592826642679725 L 908.6712478302449 50.59095199827282 L 908.9097342942267 50.59015538556226 L 909.1482264557297 50.59043688420866 L 909.3867004657366 50.59179646606236 L 909.625132477045 50.594233995166334 L 909.8634986466525 50.59774922776969 L 910.1017751381407 50.6023418123521 L 910.3399381240592 50.60801128965893 L 910.5779637883078 50.61475709274719 L 910.8158283285183 50.622578547042174 L 911.0535079584349 50.63147487040497 L 911.290978910293 50.64144517321068 L 911.5282174371949 50.6524884584373 L 911.7651998154859 50.66460362176552 L 912.0019023471255 50.67778945168912 L 912.2383013620578 50.69204462963607 L 912.4743732205784 50.70736773010048 L 912.710094315698 50.72375722078505 L 912.9454410755037 50.74121146275439 L 913.1803899655156 50.759728710598836 L 913.4149174910403 50.77930711260903 L 913.6490001995211 50.79994471096109 L 913.8826146828818 50.821639441912396 L 914.1157375798689 50.844389136007905 L 914.348345578387 50.86819151829718 L 914.5804154178301 50.893044208561825 L 914.8119238914076 50.91894472155353 L 915.042847848465 50.94589046724256 L 915.2731641967993 50.973878751076825 L 915.5028499049672 51.00290677425126 L 915.7318820045896 51.03297163398772 L 915.9602375926472 51.064070323825305 L 916.1878938337717 51.09619973392093 L 916.4148279625284 51.129356651360375 L 916.6410172856938 51.16353776047952 L 916.8664391845241 51.198739643195935 L 917.091071117017 51.23495877935069 L 917.3148906201667 51.27219154706035 L 917.5378753122093 51.31043422307917 L 917.7600028948613 51.349682983171405 L 917.9812511555498 51.38993390249377 L 918.2015979696329 51.43118295598788 L 918.4210213026128 51.47342601878273 L 918.6394992123392 51.51665886660727 L 918.8570098512031 51.56087717621274 L 919.0735314683219 51.60607652580503 L 919.2890424117143 51.65225239548683 L 919.5035211304655 51.69940016770967 L 919.7169461768825 51.74751512773561 L 919.9292962086384 51.79659246410874 L 920.1405499909072 51.84662726913632 L 920.3506863984863 51.89761453937955 L 920.5596844179104 51.949549176153894 L 920.7675231495516 52.00242598603895 L 920.9741818097099 52.0562396813978 L 921.1796397326916 52.11098488090573 L 921.3838763728755 52.16665611008844 L 921.5868713067679 52.22324780186939 L 921.7886042350444 52.28075429712656 L 921.9890549845805 52.339169845258354 L 922.1882035104682 52.398488604758626 L 922.3860298980208 52.458704643800864 L 922.5825143647644 52.51981194083135 L 922.7776372624162 52.581804385171296 L 922.9713790788489 52.64467577762793 L 923.1637204400423 52.708419831114405 L 923.3546421120208 52.77303017127848 L 923.5441250027759 52.83850033713999 L 923.7321501641768 52.90482378173691 L 923.9186987938639 52.97199387278003 L 924.1037522371296 53.040003893316246 L 924.2872919887839 53.108847042400164 L 924.4692996950046 53.17851643577425 L 924.6497571551727 53.24900510655722 L 924.8286463236925 53.32030600594074 L 925.0059493117963 53.39241200389429 L 925.1816483893331 53.465315889878156 L 925.3557259865414 53.5390103735645 L 925.5281646958067 53.61348808556637 L 925.6989472734017 53.68874157817461 L 925.868056641211 53.76476332610268 L 926.0354758884386 53.84154572723915 L 926.2011882732994 53.91908110340788 L 926.3651772246931 53.99736170113587 L 926.5274263438611 54.07637969242858 L 926.6879194060267 54.156127175552726 L 926.8466403620175 54.236596175826456 L 927.0035733398701 54.3177786464168 L 927.1587026464174 54.39966646914434 L 927.3120127688583 54.48225145529506 L 927.463488376308 54.56552534643915 L 927.6131143213321 54.6494798152569 L 927.7608756414609 54.73410646637139 L 927.9067575606854 54.81939683718802 L 928.0507454909352 54.9053423987408 L 928.1928250335375 54.99193455654518 L 928.3329819806562 55.079164651457546 L 928.4712023167134 55.16702396054111 L 928.6074722197908 55.25550369793815 L 928.7417780630116 55.344595015748695 L 928.8741064159034 55.43428900491518 L 929.004444045741 55.52457669611344 L 929.1327779188704 55.615449060649595 L 929.259095202011 55.706897011362926 L 929.3833832635397 55.79891140353456 L 929.5056296747541 55.891483035801954 L 929.6258222111148 55.98460265107904 L 929.7439488534685 56.07826093748187 L 929.8599977892492 56.17244852925987 L 929.9739574136601 56.26715600773234 L 930.0858163308337 56.36237390223035 L 930.1955633549716 56.45809269104382 L 930.3031875114627 56.55430280237361 L 930.4086780379812 56.65099461528878 L 930.5120243855622 56.74815846068861 L 930.6132162196571 56.84578462226952 L 930.712243421167 56.943863337496715 L 930.809096087454 57.0423847985804 L 930.9037645333324 57.14133915345658 L 930.9962392920363 57.240716506772216 L 931.0865111161671 57.34050692087479 L 931.1745709786175 57.44070041680606 L 931.2604100734745 57.54128697529992 L 931.3440198169005 57.64225653778434 L 931.4253918479905 57.74359900738722 L 931.5045180296094 57.84530424994605 L 931.5813904492048 57.94736209502132 L 931.656001419599 58.04976233691358 L 931.7283434797571 58.15249473568397 L 931.7984093955332 58.25554901817823 L 931.8661921603942 58.35891487905398 L 931.9316849961202 58.46258198181127 L 931.994881353482 58.566539959826216 L 932.0557749128968 58.67077841738765 L 932.1143595850592 58.77528693073668 L 932.1706295115508 58.88005504910905 L 932.224579065426 58.985072295780256 L 932.2762028517743 59.09032816911312 L 932.32549570826 59.19581214360803 L 932.3724527056386 59.301513670955444 L 932.4170691482494 59.4074221810907 L 932.4593405744855 59.513527083251056 L 932.4992627572393 59.619817767034704 L 932.536831704326 59.72628360346185 L 932.572043658882 59.832913946037564 L 932.6048950997413 59.939698131816456 L 932.6353827417872 60.046625482468926 L 932.6635035362809 60.153685305349015 L 932.6892546711663 60.26086689456366 L 932.7126335713515 60.36815953204325 L 932.7336378989658 60.47555248861345 L 932.752265553594 60.5830350250681 L 932.7685146724863 60.69059639324311 L 932.7823836307442 60.79822583709131 L 932.7938710414835 60.905912593758 L 932.8029757559726 61.01364589465726 L 932.8096968637478 61.12141496654876 L 932.8140336927038 61.22920903261514 L 932.8159858091614 61.337017313539604 M 932.8161067992173 95.6752857281 L 932.8149143393136 95.78309627301661 L 932.8113370788476 95.89089603696858 L 932.8053753755423 95.99867424006935 L 932.797029825563 96.1064201045884 L 932.7863012634577 96.21412285602908 L 932.7731907620739 96.321771724206 L 932.7576996324507 96.42935594432204 L 932.7398294236881 96.53686475804484 L 932.719581922792 96.64428741458265 L 932.6969591544959 96.75161317175929 L 932.6719633810575 96.85883129708851 L 932.6445971020335 96.96593106884711 L 932.6148630540289 97.07290177714718 L 932.5827642104238 97.17973272500701 L 932.5483037810757 97.28641322942086 L 932.5114852119989 97.39293262242717 L 932.4723121850195 97.49928025217542 L 932.4307886174078 97.60544548399125 L 932.3869186614858 97.71141770143996 L 932.3407067042124 97.8171863073881 L 932.2921573667451 97.92274072506322 L 932.241275503977 98.02807039911151 L 932.1880662040521 98.13316479665336 L 932.1325347878559 98.23801340833658 L 932.0746868084839 98.34260574938737 L 932.0145280506857 98.4469313606588 L 931.9520645302871 98.55097980967666 L 931.8873024935879 98.65474069168278 L 931.8202484167379 98.7582036306754 L 931.7509090050889 98.86135828044685 L 931.6792911925243 98.96419432561812 L 931.6054021407656 99.0667014826704 L 931.5292492386566 99.16886950097337 L 931.4508401014238 99.27068816381038 L 931.3701825699156 99.37214728939998 L 931.2872847098182 99.47323673191414 L 931.2021548108484 99.57394638249288 L 931.1148013859249 99.67426617025505 L 931.0252331703177 99.77418606330548 L 930.9334591207737 99.87369606973812 L 930.8394884146212 99.97278623863527 L 930.7433304488527 100.0714466610626 L 930.6449948391846 100.1696674710601 L 930.5444914190957 100.2674388466286 L 930.4418302388447 100.36475101071201 L 930.3370215644636 100.46159423217506 L 930.2300758767327 100.55795882677627 L 930.1210038701317 100.65383515813649 L 930.0098164517705 100.74921363870249 L 929.8965247402979 100.84408473070569 L 929.781140064791 100.93843894711594 L 929.6636739636209 101.03226685259024 L 929.5441381833 101.12555906441622 L 929.4225446773067 101.21830625345046 L 929.2989056048904 101.31049914505132 L 929.173233329855 101.4021285200065 L 929.0455404193235 101.49318521545483 L 928.9158396424805 101.58366012580265 L 928.7841439692955 101.67354420363434 L 928.6504665692263 101.762828460617 L 928.5148208099014 101.85150396839936 L 928.3772202557835 101.93956185950451 L 928.2376786668136 102.02699332821673 L 928.0962099970343 102.11378963146201 L 927.9528283931945 102.19994208968237 L 927.8075481933354 102.28544208770374 L 927.6603839253555 102.37028107559762 L 927.5113503055594 102.45445056953588 L 927.3604622371845 102.53794215263929 L 927.2077348089122 102.6207474758191 L 927.053183293358 102.70285825861201 L 926.8968231455444 102.78426629000816 L 926.7386700013561 102.86496342927225 L 926.5787396759758 102.9449416067576 L 926.4170481623026 103.02419282471311 L 926.2536116293534 103.10270915808303 L 926.0884464206448 103.18048275529944 L 925.9215690525605 103.25750583906745 L 925.752996212698 103.33377070714286 L 925.5827447582009 103.4092697331024 L 925.4108317140727 103.48399536710642 L 925.2372742714747 103.55794013665377 L 925.0620897860064 103.63109664732913 L 924.8852957759703 103.70345758354237 L 924.7069099206203 103.7750157092602 L 924.526950058393 103.84576386872968 L 924.345434185125 103.91569498719377 L 924.162380452252 103.98480207159896 L 923.977807164995 104.05307821129438 L 923.7917327805288 104.12051657872294 L 923.6041759061369 104.1871104301041 L 923.4151552973502 104.25285310610823 L 923.2246898560724 104.31773803252251 L 923.0327986286885 104.38175872090837 L 922.8395008041617 104.44490876925032 L 922.6448157121132 104.50718186259614 L 922.44876282089 104.5685717736884 L 922.2513617356178 104.62907236358716 L 922.0526321962408 104.68867758228383 L 921.852594075547 104.7473814693062 L 921.6512673771821 104.80517815431453 L 921.448672233648 104.86206185768845 L 921.2448289042902 104.91802689110501 L 921.039757773272 104.97306765810755 L 920.8334793475352 105.02717865466522 L 920.6260142547509 105.08035446972343 L 920.4173832412552 105.13258978574503 L 920.2076071699757 105.18387937924192 L 919.9967070183448 105.23421812129749 L 919.7847038762017 105.28360097807949 L 919.571618943684 105.33202301134341 L 919.3574735291077 105.37947937892625 L 919.1422890468353 105.4259653352308 L 918.9260870151361 105.4714762317002 L 918.708889054033 105.51600751728267 L 918.490716883141 105.55955473888682 L 918.2715923194954 105.60211354182675 L 918.05153727537 105.64367967025764 L 917.830573756086 105.68424896760128 L 917.608723857811 105.72381737696173 L 917.38600976535 105.76238094153106 L 917.1624537499265 105.79993580498493 L 916.9380781669561 105.83647821186828 L 916.7129054538098 105.8720045079709 L 916.4869581275714 105.90651114069276 L 916.2602587827852 105.93999465939936 L 916.0328300891968 105.97245171576672 L 915.8046947894859 106.00387906411626 L 915.5758756969926 106.03427356173933 L 915.3463956934353 106.0636321692115 L 915.1162777266233 106.09195195069648 L 914.8855448081612 106.11923007423972 L 914.6542200111488 106.14546381205162 L 914.422326467873 106.17065054078024 L 914.1898873674949 106.1947877417737 L 913.9569259537308 106.21787300133201 L 913.7234655225278 106.23990401094846 L 913.4895294197348 106.26087856754044 L 913.2551410387669 106.28079457366978 L 913.0203238182669 106.29965003775246 L 912.7851012397613 106.31744307425777 L 912.5494968253116 106.3341719038969 L 912.3135341351633 106.34983485380084 L 912.0772367653886 106.36443035768762 L 911.8406283455276 106.37795695601905 L 911.603732536225 106.39041329614655 L 911.3665730268646 106.40179813244647 L 911.1291735331994 106.4121103264447 L 910.8915577949809 106.42134884693041 L 910.6537495735853 106.42951277005928 L 910.4157726496362 106.43660127944577 L 910.1776508206278 106.44261366624485 L 909.9394078985447 106.44754932922287 L 909.7010677074803 106.45140777481762 L 909.4626540812553 106.45418861718778 L 909.2241908610335 106.45589157825142 L 908.9857018929384 106.45651648771386 L 908.7472110256679 106.45606328308465 L 908.50874210811 106.4545320096839 L 908.2703189869578 106.45192282063768 L 908.0319655043248 106.44823597686269 L 907.7937054953604 106.44347184704026 L 907.5555627858672 106.43763090757939 L 907.3175611899176 106.43071374256917 L 907.0797245074727 106.42272104372033 L 906.8420765220028 106.41365361029608 L 906.6046409981083 106.40351234903224 L 906.3674416791436 106.39229827404645 L 906.1305022848431 106.38001250673689 L 905.8938465089489 106.36665627567004 L 905.657498016841 106.35223091645787 L 905.421480443172 106.33673787162431 L 905.1858173895024 106.32017869046089 L 904.9505324219413 106.30255502887195 L 904.7156490687893 106.28386864920897 L 904.481190818186 106.26412142009434 L 904.2471811157611 106.2433153162345 L 904.0136433622897 106.22145241822251 L 903.7806009113528 106.19853491232995 L 903.5480770670011 106.17456509028831 L 903.3160950814253 106.14954534905984 L 903.0846781526307 106.12347819059778 L 902.8538494221172 106.09636622159626 L 902.6236319725656 106.06821215322961 L 902.394048825529 106.03901880088118 L 902.1651229391307 106.0087890838619 L 901.9368772057687 105.97752602511825 L 901.7093344498261 105.94523275093007 L 901.4825174253888 105.91191249059789 L 901.2564488139703 105.87756857611994 L 901.0311512222434 105.84220444185907 L 900.8066471797792 105.8058236241992 L 900.5829591367954 105.76842976119184 L 900.3601094619095 105.73002659219209 L 900.1381204399033 105.69061795748485 L 899.9170142694943 105.65020779790075 L 899.6968130611149 105.60880015442207 L 899.4775388347027 105.56639916777867 L 899.2592135174975 105.52300907803387 L 899.0418589418491 105.47863422416049 L 898.8254968430341 105.43327904360692 L 898.6101488570818 105.38694807185344 L 898.3958365186115 105.33964594195861 L 898.1825812586784 105.291377384096 L 897.970404402631 105.24214722508117 L 897.7593271679776 105.19196038788901 L 897.5493706622663 105.1408218911614 L 897.3405558809724 105.08873684870541 L 897.1329037054 105.03571046898188 L 896.9264349005939 104.98174805458457 L 896.7211701132622 104.92685500170998 L 896.5171298697128 104.87103679961766 L 896.3143345737998 104.81429903008126 L 896.112804504884 104.75664736683049 L 895.9125598158043 104.69808757498365 L 895.7136205308627 104.63862551047107 L 895.516006543822 104.57826711944969 L 895.3197376159161 104.51701843770829 L 895.1248333738743 104.45488559006402 L 894.9313133079584 104.39187478974986 L 894.7391967700136 104.32799233779335 L 894.5485029715338 104.26324462238642 L 894.3592509817398 104.19763811824667 L 894.1714597256729 104.13117938596986 L 893.9851479823022 104.0638750713738 L 893.8003343826468 103.99573190483389 L 893.6170374079128 103.92675670060999 L 893.4352753876447 103.85695635616503 L 893.255066497893 103.7863378514753 L 893.0764287593968 103.71490824833242 L 892.8993800357808 103.64267468963719 L 892.72393803177 103.56964439868527 L 892.5501202914186 103.4958246784449 L 892.3779441963557 103.4212229108266 L 892.2074269640473 103.34584655594495 L 892.0385856460747 103.26970315137261 L 891.8714371264288 103.19280031138662 L 891.7059981198224 103.11514572620688 L 891.5422851700182 103.03674716122718 L 891.3803146481749 102.9576124562387 L 891.2201027512097 102.87774952464599 L 891.0616655001785 102.79716635267567 L 890.9050187386747 102.71587099857777 L 890.7501781312438 102.63387159181995 L 890.5971591618174 102.55117633227457 L 890.4459771321652 102.46779348939864 L 890.2966471603639 102.383731401407 L 890.1491841792864 102.29899847443839 L 890.0036029351079 102.21360318171489 L 889.8599179858314 102.12755406269459 L 889.7181436998322 102.04085972221772 L 889.5782942544208 101.95352882964605 L 889.4403836344251 101.86557011799609 L 889.304425630792 101.77699238306569 L 889.170433839209 101.68780448255453 L 889.0384216587432 101.59801533517833 L 888.9084022905029 101.50763391977702 L 888.7803887363164 101.41666927441683 L 888.6543937974325 101.32513049548646 L 888.5304300732402 101.23302673678755 L 888.4085099600085 101.14036720861921 L 888.288645649647 101.04716117685703 L 888.1708491284871 100.95341796202653 L 888.0551321760827 100.85914693837105 L 887.9415063640324 100.76435753291443 L 887.8299830548231 100.66905922451821 L 887.7205734006924 100.5732615429338 L 887.6132883425147 100.47697406784954 L 887.5081386087064 100.3802064279327 L 887.4051347141534 100.28296829986664 L 887.3042869591591 100.18526940738312 L 887.205605428415 100.08711952028997 L 887.109099989992 99.98852845349413 L 887.0147802943536 99.8895060660201 L 886.9226557733906 99.79006226002413 L 886.8327356394784 99.69020697980392 L 886.7450288845555 99.5899502108043 L 886.6595442792242 99.48930197861863 L 886.5762903718739 99.38827234798623 L 886.4952754878259 99.28687142178599 L 886.4165077285011 99.18510934002603 L 886.3399949706098 99.08299627882971 L 886.265744865364 98.98054244941808 L 886.1937648377125 98.87775809708869 L 886.1240620855978 98.7746535001911 L 886.0566435792373 98.67123896909912 L 885.9915160604253 98.56752484517966 L 885.9286860418594 98.46352149975867 L 885.8681598064892 98.35923933308405 L 885.8099434068877 98.25468877328554 L 885.7540426646465 98.14988027533201 L 885.700463169793 98.04482431998592 L 885.6492102802322 97.93953141275524 L 885.6002891212104 97.83401208284296 L 885.5537045848025 97.72827688209414 L 885.5094613294236 97.62233638394075 L 885.4675637793622 97.5162011823443 L 885.4280161243385 97.40988189073651 L 885.3908223190848 97.30338914095798 L 885.355986082951 97.19673358219488 L 885.3235108995312 97.08992587991426 L 885.2934000163173 96.9829767147973 L 885.265656444372 96.87589678167143 L 885.2402829580296 96.7686967884407 L 885.2172820946176 96.66138745501512 L 885.1966561542032 96.55397951223858 L 885.178407199363 96.44648370081588 L 885.1625370549776 96.33891077023856 L 885.1490473080481 96.23127147771005 L 885.1379393075379 96.1235765870699 L 885.1292141642379 96.01583686771744 L 885.1228727506549 95.90806309353479 L 885.1189157009253 95.80026604180959 L 885.1173434107505 95.69245649215716" stroke-miterlimit="10" stroke-width="2.7769845610000004" stroke-dasharray=""/></g><g><g/><text fill="black" stroke="none" font-family="sans-serif" font-size="11pt" font-style="normal" font-weight="normal" text-decoration="normal" x="898.7841767170572" y="123.98419304699999" text-anchor="start" dominant-baseline="alphabetic" xml:space="preserve">BD</text></g></g><g><path fill="white" stroke="black" paint-order="fill stroke markers" d=" M 25.25768280029297 137.052355687 L 41.59288610029297 137.052355687 L 41.59288610029297 182.790924927 L 25.25768280029297 182.790924927 L 25.25768280029297 137.052355687" stroke-miterlimit="10" stroke-width="1.3612669416666667" stroke-dasharray=""/><path fill="white" stroke="black" paint-order="fill stroke markers" d=" M 204.10826221800127 182.790924927 L 220.44346551800126 182.790924927 L 220.44346551800126 228.529494167 L 204.10826221800127 228.529494167 L 204.10826221800127 182.790924927" stroke-miterlimit="10" stroke-width="1.3612669416666667" stroke-dasharray=""/><path fill="white" stroke="black" paint-order="fill stroke markers" d=" M 382.9588416357096 228.529494167 L 399.29404493570956 228.529494167 L 399.29404493570956 274.268063407 L 382.9588416357096 274.268063407 L 382.9588416357096 228.529494167" stroke-miterlimit="10" stroke-width="1.3612669416666667" stroke-dasharray=""/><path fill="white" stroke="black" paint-order="fill stroke markers" d=" M 554.4866061120116 274.268063407 L 570.8218094120117 274.268063407 L 570.8218094120117 320.006632647 L 554.4866061120116 320.006632647 L 554.4866061120116 274.268063407" stroke-miterlimit="10" stroke-width="1.3612669416666667" stroke-dasharray=""/><path fill="white" stroke="black" paint-order="fill stroke markers" d=" M 727.6464354076496 320.006632647 L 743.9816387076497 320.006632647 L 743.9816387076497 365.745201887 L 727.6464354076496 365.745201887 L 727.6464354076496 320.006632647" stroke-miterlimit="10" stroke-width="1.3612669416666667" stroke-dasharray=""/><path fill="white" stroke="black" paint-order="fill stroke markers" d=" M 900.7991083312173 365.745201887 L 917.1343116312174 365.745201887 L 917.1343116312174 411.483771127 L 900.7991083312173 411.483771127 L 900.7991083312173 365.745201887" stroke-miterlimit="10" stroke-width="1.3612669416666667" stroke-dasharray=""/><g><g><rect fill="white" stroke="none" x="60.922876671959614" y="161.555160637" width="123.855394974375" height="21.23576429"/></g><text fill="black" stroke="none" font-family="sans-serif" font-size="11pt" font-style="normal" font-weight="normal" text-decoration="normal" x="63.373157166959615" y="176.25684360699998" text-anchor="start" dominant-baseline="alphabetic" xml:space="preserve">1:retornaUsuario()</text></g><g><path fill="none" stroke="black" paint-order="fill stroke markers" d=" M 41.59288610029297 182.790924927 L 190.6589448343346 182.790924927" stroke-miterlimit="10" stroke-width="1.3612669416666667" stroke-dasharray=""/><g transform="translate(204.10826221800127,182.790924927) translate(-204.10826221800127,-182.790924927)"><path fill="black" stroke="none" paint-order="stroke fill markers" d=" M 190.4955928013346 175.98459021866665 L 204.10826221800127 182.790924927 L 190.4955928013346 189.59725963533333 Z"/></g></g><g><g><rect fill="white" stroke="none" x="239.77345608966792" y="207.293729877" width="123.855394974375" height="21.23576429"/></g><text fill="black" stroke="none" font-family="sans-serif" font-size="11pt" font-style="normal" font-weight="normal" text-decoration="normal" x="242.2237365846679" y="221.99541284699998" text-anchor="start" dominant-baseline="alphabetic" xml:space="preserve">2:retornaUsuario()</text></g><g><path fill="none" stroke="black" paint-order="fill stroke markers" d=" M 220.44346551800126 228.529494167 L 369.5095242520429 228.529494167" stroke-miterlimit="10" stroke-width="1.3612669416666667" stroke-dasharray=""/><g transform="translate(382.9588416357096,228.529494167) translate(-382.9588416357096,-228.529494167)"><path fill="black" stroke="none" paint-order="stroke fill markers" d=" M 369.3461722190429 221.72315945866666 L 382.9588416357096 228.529494167 L 369.3461722190429 235.33582887533333 Z"/></g></g><g><g><rect fill="white" stroke="none" x="418.6240355073762" y="253.032299117" width="116.53258003296875" height="21.23576429"/></g><text fill="black" stroke="none" font-family="sans-serif" font-size="11pt" font-style="normal" font-weight="normal" text-decoration="normal" x="421.07431600237624" y="267.733982087" text-anchor="start" dominant-baseline="alphabetic" xml:space="preserve">3:retornaObjeto()</text></g><g><path fill="none" stroke="black" paint-order="fill stroke markers" d=" M 399.29404493570956 274.268063407 L 541.037288728345 274.268063407" stroke-miterlimit="10" stroke-width="1.3612669416666667" stroke-dasharray=""/><g transform="translate(554.4866061120116,274.268063407) translate(-554.4866061120116,-274.268063407)"><path fill="black" stroke="none" paint-order="stroke fill markers" d=" M 540.8739366953449 267.46172869866666 L 554.4866061120116 274.268063407 L 540.8739366953449 281.07439811533334 Z"/></g></g><g><g><rect fill="white" stroke="none" x="590.1517999836783" y="298.770868357" width="118.16464485230469" height="21.23576429"/></g><text fill="black" stroke="none" font-family="sans-serif" font-size="11pt" font-style="normal" font-weight="normal" text-decoration="normal" x="592.6020804786783" y="313.47255132699996" text-anchor="start" dominant-baseline="alphabetic" xml:space="preserve">4:findReference()</text></g><g><path fill="none" stroke="black" paint-order="fill stroke markers" d=" M 570.8218094120117 320.006632647 L 714.197118023983 320.006632647" stroke-miterlimit="10" stroke-width="1.3612669416666667" stroke-dasharray=""/><g transform="translate(727.6464354076496,320.006632647) translate(-727.6464354076496,-320.006632647)"><path fill="black" stroke="none" paint-order="stroke fill markers" d=" M 714.0337659909829 313.20029793866667 L 727.6464354076496 320.006632647 L 714.0337659909829 326.81296735533334 Z"/></g></g><g><g><rect fill="white" stroke="none" x="763.3116292793163" y="344.509437597" width="118.15748848023438" height="21.23576429"/></g><text fill="black" stroke="none" font-family="sans-serif" font-size="11pt" font-style="normal" font-weight="normal" text-decoration="normal" x="765.7619097743163" y="359.21112056699997" text-anchor="start" dominant-baseline="alphabetic" xml:space="preserve">5:executeQuery()</text></g><g><path fill="none" stroke="black" paint-order="fill stroke markers" d=" M 743.9816387076497 365.745201887 L 887.3497909475507 365.745201887" stroke-miterlimit="10" stroke-width="1.3612669416666667" stroke-dasharray=""/><g transform="translate(900.7991083312173,365.745201887) translate(-900.7991083312173,-365.745201887)"><path fill="black" stroke="none" paint-order="stroke fill markers" d=" M 887.1864389145506 358.93886717866667 L 900.7991083312173 365.745201887 L 887.1864389145506 372.55153659533335 Z"/></g></g><g><g><rect fill="white" stroke="none" x="815.8562921994335" y="390.248006837" width="4.90056099" height="21.23576429"/></g><text fill="black" stroke="none" font-family="sans-serif" font-size="11pt" font-style="normal" font-weight="normal" text-decoration="normal" x="818.3065726944335" y="404.94968980699997" text-anchor="start" dominant-baseline="alphabetic" xml:space="preserve"></text></g><g><path fill="none" stroke="black" paint-order="fill stroke markers" d=" M 900.7991083312173 411.483771127 L 749.2633544413163 411.483771127" stroke-miterlimit="10" stroke-width="1.3612669416666667" stroke-dasharray="6.53408132"/><g transform="translate(735.8140370576497,411.483771127) translate(-735.8140370576497,-411.483771127)"><path fill="black" stroke="none" paint-order="stroke fill markers" d=" M 749.4267064743163 404.6774364186667 L 735.8140370576497 411.483771127 L 749.4267064743163 418.29010583533335 Z"/></g></g><g><g><rect fill="white" stroke="none" x="646.7838419148306" y="435.986576077" width="4.90056099" height="21.23576429"/></g><text fill="black" stroke="none" font-family="sans-serif" font-size="11pt" font-style="normal" font-weight="normal" text-decoration="normal" x="649.2341224098307" y="450.688259047" text-anchor="start" dominant-baseline="alphabetic" xml:space="preserve"></text></g><g><path fill="none" stroke="black" paint-order="fill stroke markers" d=" M 735.8140370576497 457.222340367 L 576.1035251456783 457.222340367" stroke-miterlimit="10" stroke-width="1.3612669416666667" stroke-dasharray="6.53408132"/><g transform="translate(562.6542077620117,457.222340367) translate(-562.6542077620117,-457.222340367)"><path fill="black" stroke="none" paint-order="stroke fill markers" d=" M 576.2668771786783 450.4160056586667 L 562.6542077620117 457.222340367 L 576.2668771786783 464.02867507533335 Z"/></g></g><g><g><rect fill="white" stroke="none" x="474.4400450288606" y="481.725145317" width="4.90056099" height="21.23576429"/></g><text fill="black" stroke="none" font-family="sans-serif" font-size="11pt" font-style="normal" font-weight="normal" text-decoration="normal" x="476.8903255238606" y="496.426828287" text-anchor="start" dominant-baseline="alphabetic" xml:space="preserve"></text></g><g><path fill="none" stroke="black" paint-order="fill stroke markers" d=" M 562.6542077620117 502.960909607 L 404.5757606693762 502.960909607" stroke-miterlimit="10" stroke-width="1.3612669416666667" stroke-dasharray="6.53408132"/><g transform="translate(391.12644328570957,502.960909607) translate(-391.12644328570957,-502.960909607)"><path fill="black" stroke="none" paint-order="stroke fill markers" d=" M 404.73911270237625 496.1545748986667 L 391.12644328570957 502.960909607 L 404.73911270237625 509.76724431533336 Z"/></g></g><g><g><rect fill="white" stroke="none" x="299.2508730818554" y="527.463714557" width="4.90056099" height="21.23576429"/></g><text fill="black" stroke="none" font-family="sans-serif" font-size="11pt" font-style="normal" font-weight="normal" text-decoration="normal" x="301.7011535768554" y="542.165397527" text-anchor="start" dominant-baseline="alphabetic" xml:space="preserve"></text></g><g><path fill="none" stroke="black" paint-order="fill stroke markers" d=" M 391.12644328570957 548.699478847 L 225.72518125166795 548.699478847" stroke-miterlimit="10" stroke-width="1.3612669416666667" stroke-dasharray="6.53408132"/><g transform="translate(212.27586386800127,548.699478847) translate(-212.27586386800127,-548.699478847)"><path fill="black" stroke="none" paint-order="stroke fill markers" d=" M 225.88853328466794 541.8931441386667 L 212.27586386800127 548.699478847 L 225.88853328466794 555.5058135553334 Z"/></g></g></g><g/><g/><g/><g/><g/><g/></g></svg>